<mxfile host="app.diagrams.net" modified="2024-01-22T06:22:07.440Z" agent="Mozilla/5.0 (Windows NT 10.0; Win64; x64) AppleWebKit/537.36 (KHTML, like Gecko) Chrome/120.0.0.0 Safari/537.36 Edg/120.0.0.0" etag="hsujjBFyyedqKw0wUkZm" version="22.1.21" type="github">
  <diagram name="第 1 页" id="jdGElGO_bUGHnF63IRS6">
    <mxGraphModel dx="3146" dy="918" grid="1" gridSize="10" guides="1" tooltips="1" connect="1" arrows="1" fold="1" page="1" pageScale="1" pageWidth="827" pageHeight="1169" math="0" shadow="0">
      <root>
        <mxCell id="0" />
        <mxCell id="1" parent="0" />
        <mxCell id="gx3IbBur36U3xI308H9o-89" value="" style="whiteSpace=wrap;html=1;" vertex="1" parent="1">
          <mxGeometry x="-1350" y="40" width="670" height="660" as="geometry" />
        </mxCell>
        <mxCell id="gx3IbBur36U3xI308H9o-8" value="" style="whiteSpace=wrap;html=1;" vertex="1" parent="1">
          <mxGeometry x="90" y="810" width="660" height="330" as="geometry" />
        </mxCell>
        <mxCell id="gx3IbBur36U3xI308H9o-23" value="" style="whiteSpace=wrap;html=1;" vertex="1" parent="1">
          <mxGeometry x="227" y="900" width="260" height="215" as="geometry" />
        </mxCell>
        <mxCell id="gx3IbBur36U3xI308H9o-1" value="" style="shape=image;imageAspect=0;aspect=fixed;verticalLabelPosition=bottom;verticalAlign=top;image=data:image/jpeg,/9j/4AAQSkZJRgABAQEBLAEsAAD/7QEcUGhvdG9zaG9wIDMuMAA4QklNBAQAAAAAAQAcAVoAAxslRxwCeAASQWxpYmFiYSBDbG91ZCBMb2dvHAJaAAhIQU5HWkhPVRwCdAABABwCZQABABwCUAAISGFuZC1vdXQcAl8AAQAcAhkAAQAcAmkAEkFsaWJhYmEtQ2xvdWQgTG9nbxwCBQASQWxpYmFiYS1DbG91ZCBMb2dvHAI3AAoyMDIwOjEyOjAzHAJzAA1BbGliYWJhIENsb3VkHAJuAA1BbGliYWJhIENsb3VkHAJnAAEAHAJ6AAJDThwCKAAMU2VlIFJlbGVhc2UgHAIUACRXZWJzaXRlRGlzdHJpYnV0aW9ufFBSTkFyY2hpdmVfMVllYXIcAg8AAQAA/9sAQwAEAgMDAwIEAwMDBAQEBAUJBgUFBQULCAgGCQ0LDQ0NCwwMDhAUEQ4PEw8MDBIYEhMVFhcXFw4RGRsZFhoUFhcW/9sAQwEEBAQFBQUKBgYKFg8MDxYWFhYWFhYWFhYWFhYWFhYWFhYWFhYWFhYWFhYWFhYWFhYWFhYWFhYWFhYWFhYWFhYW/8AAEQgFhgqMAwEiAAIRAQMRAf/EABwAAQACAwEBAQAAAAAAAAAAAAAHCAEFBgIEA//EAFsQAQABAgMEAwcOCgcHAgUFAQABAgMEBREGByExCBJBN1FhcXSBshMUFyIyNlVzkaGxs8HRFRgzQlR1kpOUwiM0NVJicqIWJFNWguHwQ9IlJ0RjZCZFhKPxpP/EABwBAQACAwEBAQAAAAAAAAAAAAAGBwEFCAQCA//EAEQRAQABAgMCCgUKBQMFAQEAAAABAgMEBREGsQcSITE1QVFxcpE0YYGhwRMUFiIyM1JT0eEVFyNCVGKi8CQlgrLxkkP/2gAMAwEAAhEDEQA/AL/AAAAAAAAAAAAAAAAAAAAAAAAAAAAAAAAAAAAAAAAAAAAAAAAAAAAAAAAAAAAAAAAAAAAAAAAAAAAAAAAAAAAAAAAAAAAAAAAAAAAAAAAAAAAAAAAAAAAAAAAAAAAAAAAAAAAAAAAAAAAAAAAAAAAAAAAAAAAAAAAAAAAAAAAAAAAAAAAAAAAAAAAAAAAAAAAAAAAAAAAAAAAAAAAAAAAAAAAAAAAAAAAAAAAAAAAAAAAAAAAAAAAAAAAAAAAAAAAAAAAAAAAAAAAAAAAAAAAAAAAAAAAAAAAAAAAAAAAAAAAAAAAAAAAAAAAAAAAAAAAAAAAAAAAAAAAAAAAAAAAAAAAAAAAAAAAAAAAAAAAAAAAAAAAAAAAAAAAAAAAAAAAAAAAAAAAAAAAAAAAAAAAAAAAAAAAAAAAAAAAAAAAAAAAAAAAAAAAAAAAAAAAAAAAAAAAAAAAAAAAAAAAAAAAAAAAAAAAAAAAAAAAAAAAAAAAAAAAAAAAAAAAAAAAAAAAAAAAAAAAAAAAAAAAAAAAAAAAAAAAAAAAAAAAAAAAAAAAAAAAAAAAAAAAAAAAAAAAAAAAAAAAAAAAAAAAAAAAAAAAAAAAAAAAAAAAAAAAAAAAAAAAAAAAAAAAAAAAAAAAAAAAAAAAAAAAAAAAAAAAAAAAAAAAAAAAAAAAAAAAAAAAAAAAAAAAAAAAAAAAAAAAAAAAAAAAAAAAAAAAAAAAAAAAAAAAAAAAAAAAAAAAAAAAAAAAAAAAAAAAAAAAAAAAAAAAAAAAAAAAAAAAAAAAAAAAAAAAAAAAAAAAAAAAAAAAAAAAAAAAAAAAAAAAAAAAAAAAAAAAAAAAAAAAAAAAAAAAAAAAAAAAAAAAAAAAAAAAAAAAAAAAAAAAAAAAAAAAAAAAAAAAAAAAAAAAAAAAAAAAAAAAAAAAAAAAAAAAAAAAAAAAAAAAAAAAAAAAAAAAAAAAAAAAAAAAAAAAAAAAAAAAAAAAAAAAAAAAAAAAAAAAAAAAAAAAAAAAAAAAAAAAAAAAAAAAAAAAAAAAAAAAAAAAAAAAAAAAAAAAAAAAAAAAAAAAAAAAAAAAAAAAAAAAAAAAAAAAAAAAAAAAAAAAAAAAAAAAAAAAAAAAAAAAAAAAAAAAAAAAAAAAAAAAAAAAAAAAAAAAAAAAAAAAAAAAAAAAAAAAAAAAAAAAAAAAAAAAAAAAAAAAAAAAAAAAAAAAAAAAAAAAAAAAAAAAAAAAAAAAAAAAAAAAAAAAAAAAAAAAAAAAAAAAAAAAAAAAAAAAAAAAAAAAAAAAAAAAAAAAAAAAAAAAAAAAAAAAAAAAAAAAAAAAAAAAAAAAAAAAAAAAAAAAAAAAAAAAAAAAAAAAAAAAAAAAAAAAAAAAAAAAAAAAAAAAAAAAAAAAAAAAAAAAAAAAAAAAAAAAAAAAAAAAAAAAAAAAAAAAAAAAAAAAAAAAAAAAAAAAAAAAAAAAAAAAAAAAAAAAAAAAAAAAAAAAAAAAAAAAAAAAAAAAAAAAAAAAAAAAAAAAAAAAAAAAAAAAAAAAAAAAAAAAAAAAAAAAAAAAAAAAAAAAAAAAAAAAAAAAAAAAAAAAAAAAAAAAAAAAAAAAAAAAAAAAAAAAAAAAAAAAAAAAAAAAAAAAAAAAAAAAAAAAAAAAAAAAAAAAAAAAAAAAAAAAAAAAAAAAAAAAAAAAAAAAAAAAAAAAAAAAAAAAAAAAAAAAAAAAAAAAAAAAAAAAAAAAAAAAAAAAAAAAAAAAAAAAAAAAAAAAAAAAAAAAAAAAAAAAAAAAAAAAAAAAAAAAAAAAAAAAAAAAAAAAAAAAAAAAAAAAAAAAAAAAAAAAAAAAAAAAAAAAAAAAAAAAAAAAAAAAAAAAAAAAAAAAAAAAAAAAAAAAAAAAAAAAAAAAAAAAAAAAAAAAAAAAAAAAAAAAAAAAAAAAAAAAAAAAAAAAAAAAAAAAAAAAAAAAAAAAAAAAAAAAAAAAAAAAAAAAAAAAAAAAAAAAAAAAAAAAAAAAAAAAAAAAAAAAAAAAAAAAAAAAAAAAAAAAAAAAAAAAAAAAAAAAAAAAAAAAAAAAAAAAAAAAAAAAAAAAAAAAAAAAAAAAAAAAAAAAAAAAAAAAAAAAAAAAAAAAAAAAAAAAAAAAAAAAAAAAAAAAAAAAAAAAAAAAAAAAAAAAAAAAAAAAAAAAAAAAAAAAAAAAAAAAAAAAAAAAAAAAAAAAAAAAAAAAAAAAAAAAAAAAAAAAAAAAAAAAAAAAAAAAAAAAAAAAAAAAAAAAAAAAAAAAAAAAAAAAAAAAAAAAAAAAAAAAAAAAAAAAAAAAAAAAAAAAAAAAAAAAAAAAAAAAAAAAAAAAAAAAAAAAAAAAAAAAAAAAAAAAAAAAAAAAAAAAAAAAAAAAAAAAAAAAAAAAAAAAAAAAAAAAAAAAAAAAAAAAAAAAAAAAAAAAAAAAAAAAAAAAAAAAAAAAAAAAAAAAAAAAAAAAAAAAAAAAAAAAAAAAAAAAAAAAAAAAAAAAAAAAAAAAAAAAAAAAAAAAAAAAAAAAAAAAAAAAAAAAAAAAAAAAAAAAAAAAAAAAAAAAAAAAAAAAAAAAAAAAAAAAAAAAAAAAAAAAAAAAAAAAAAAAAAAAAAAAAAAAAAAAAAAAAAAAAAAAAAAAAAAAAAAAAAAAAAAAAAAAAAAAAAAAAAAAAAAAAAAAAAAAAAAAAAAAAAAAAAAAAAAAAAAAAAAAAAAAAAAAAAAAAAAAAAAAAAAAAAAAAAAAAAAAAAAAAAAAAAAAAAAAAAAAAAAAAAAAAAAAAAAAAAAAAAAAAAAAAAAAAAAAAAAAAAAAAAAAAAAAAAAAAAAAAAAAAAAAAAAAAAAAAAAAAAAAAAAAAAAAAAAAAAAAAAAAAAAAAAAAAAAAAAAAAAAAAAAAAAAAAAAAAAAAAAAAAAAAAAAAAAAAAAAAAAAAAAAAAAAAAAAAAAAAAAAAAAAAAAAAAAAAAAAAAAAAAAAAAAAAAAAAAAAAAAAAAAAAAAAAAAAAAAAAAAAAAAAAAAAAAAAAAAAAAAAAAAAAAAAAAAAAAAAAAAAAAAAAAAAAAAAAAAAAAAAAAAAAAAAAAAAAAAAAAAAAAAAAAAAAAAAAAAAAAAAAAAAAAAAAAAAAAAAAAAAAAAAAAAAAAAAAAAAAAAAAAAAAAAAAAAAAAAAAAAAAAAAAAAAAAAAAAAAAAAAAAAAAAAAAAAAAAAAAAAAAAAAAAAAAAAAAAAAAAAAAAAAAAAAAAAAAAAAAAAAAAAAAAAAAAAAAAAAAAAAAAAAAAAAAAAAAAAAAAAAAAAAAAAAAAAAAAAAAAAAAAAAAAAAAAAAAAAAAAAAAAAAAAAAAAAAAAAAAAAAAAAAAAAAAAAAAAAAAAAAAAAAAAAAAAAAAAAAAAAAAAAAAAAAAAAAAAAAAAAAAAAAAAAAAAAAAAAAAAAAAAAAAAAAAAAAAAAAAAAAAAAAAAAAAAAAAAAAAAAAAAAAAAAAAAAAAAAAAAAAAAAAAAAAAAAAAAAAAAAAAAAAAAAAAAAAAAAAAAAAAAAAAAAAAAAAAAAAAAAAAAAAAAAAAAAAAAAAAAAAAAAAAAAAAAAAAAAAAAAAAAAAAAAAAAAAAAAAAAAAAAAAAAAAAAAAAAAAAAAAAAAAAAAAAAAAAAAAAAAAAAAAAAAAAAAAAAAAAAAAAAAAAAAAAAAAAAAAAAAAAAAAAAAAAAAAAAAAAAAAAAAAAAAAAAAAAAAAAAAAAAAAAAAAAAAAAAAAAAAAAAAAAAAAAAAAAAAAAAAAAAAAAAAAAAAAAAAAAAAAAAAAAAAAAAAAAAAAAAAAAAAAAAAAAAAAAAAAAAAAAAAAAAAAAAAAAAAAAAAAAAAAAAAAAAAAAAAAAAAAAAAAAAAAAAAAAAAAAAAAAAAAAAAAAAAAAAAAAAAAAAAAAAAAAAAAAAAAAAAAAAAAAAAAAAAAAAAAAAAAAAAAAAAAAAAAAAAAAAAAAAAAAAAAAAAAAAAAAAAAAAAAAAAAAAAAAAAAAAAAAAAAAAAAAAAAAAAAAAAAAAAAAAAAAAAAAAAAAAAAAAAAAAAAAAAAAAAAAAAAAAAAAAAAAAAAAAAAAAAAAAAAAAAAAAAAAAAAAAAAAAAAAAAAAAAAAAAAAAAAAAAAAAAAAAAAAAAAAAAAAAAAAAAAAAAAAAAAAAAAAAAAAAAAAAAAAAAAAAAAAAAAAAAAAAAAAAAAAAAAAAAAAAAAAAAAAAAAAAAAAAAAAAAAAAAAAAAAAAAAAAAAAAAAAAAAAAAAAAAAAAAAAAAAAAAAAAAAAAAAAAAAAAAAAAAAAAAAAAAAAAAAAAAAAAAAAAAAAAAAAAAAAAAAAAAAAAAAAAAAAAAAAAAAAAAAAAAAAAAAAAAAAAAAAAAAAAAAAAAAAAAAAAAAAAAAAAAAAAAAAAAAAAAAAAAAAAAAAAAAAAAAAAAAAAAAAAAAAAAAAAAAAAAAAAAAAAAAAAAAAAAAAAAAAAAAAAAAAAAAAAAAAAAAAAAAAAAAAAAAAAAAAAAAAAAAAAAAAAAAAAAAAAAAAAAAAAAAAAAAAAAAAAAAAAAAAAAAAAAAAAAAAAAAAAAAAAAAAAAAAAAAAAAAAAAAAAAAAAAAAAAAAAAAAAAAAAAAAAAAAAAAAAAAAAAAAAAAAAAAAAAAAAAAAAAAAAAAAAAAAAAAAAAAAAAAAAAAAAAAAAAAAAAAAAAAAAAAAAAAAAAAAAAAAAAAAAAAAAAAAAAAAAAAAAAAAAAAAAAAAAAAAAAAAAAAAAAAAAAAAAAAAAAAAAAAAAAAAAAAAAAAAAAAAAAAAAAAAAAAAAAAAAAAAAAAAAAAAAAAAAAAAAAAAAAAAAAAAAAAAAAAAAAAAAAAAAAAAAAAAAAAAAAAAAAAAAAAAAAAAAAAAAAAAAAAAAAAAAAAAAAAAAAAAAAAAAAAAAAAAAAAAAAAAAAAAAAAAAAAAAAAAAAAAAAAAAAAAAAAAAAAAAAAAAAAAAAAAAAAAAAAAAAAAAAAAAAAAAAAAAAAAAAAAAAAAAAAAAAAAAAAAAAAAAAAAAAAAAAAAAAAAAAAAAAAAAAAAAAAAAAAAAAAAAAAAAAAAAAAAAAAAAAAAAAAAAAAAAAAAAAAAAAAAAAAAAAAAAAAAAAAAAAAAAAAAAAAAAAAAAAAAAAAAAAAAAAAAAAAAAAAAAAAAAAAAAAAAAAAAAAAAAAAAAAAAAAAAAAAAAAAAAAAAAAAAAAAAAAAAAAAAAAAAAAAAAAAAAAAAAAAAAAAAAAAAAAAAAAAAAAAAAAAAAAAAAAAAAAAAAAAAAAAAAAAAAAAAAAAAAAAAAAAAAAAAAAAAAAAAAAAAAAAAAAAAAAAAAAAAAAAAAAAAAAAAAAAAAAAAAAAAAAAAAAAAAAAAAAAAAAAAAAAAAAAAAAAAAAAAAAAAAAAAAAAAAAAAAAAAAAAAAAAAAAAAAAAAAAAAAAAAAAAAAAAAAAAAAAAAAAAAAAAAAAAAAAAAAAAAAAAAAAAAAAAAAAAAAAAAAAAAAAAAAAAAAAAAAAAAAAAAAAAAAAAAAAAAAAAAAAAAAAAAAAAAAAAAAAAAAAAAAAAAAAAAAAAAAAAAAAAAAAAAAAAAAAAAAAAAAAAAAAAAAAAAAAAAAAAAAAAAAAAAAAAAAAAAAAAAAAAAAAAAAAAAAAAAAAAAAAAAAAAAAAAAAAAAAAAAAAAAAAAAAAAAAAAAAAAAAAAAAAAAAAAAAAAAAAAAAAAAAAAAAAAAAAAAAAAAAAAAAAAAAAAAAAAAAAAAAAAAAAAAAAAAAAAAAAAAAAAAAAAAAAAAAAAAAAAAAAAAAAAAAAAAAAAAAAAAAAAAAAAAAAAAAAAAAAAAAAAAAAAAAAAAAAAAAAAAAAAAAAAAAAAAAAAAAAAAAAAAAAAAAAAAAAAAAAAAAAAAAAAAAAAAAAAAAAAAAAAAAAAAAAAAAAAAAAAAAAAAAAAAAAAAAAAAAAAAAAAAAAAAAAAAAAAAAAAAAAAAAAAAAAAAAAAAAAAAAAAAAAAAAAAAAAAAAAAAAAAAAAAAAAAAAAAAAAAAAAAAAAAAAAAAAAAAAAAAAAAAAAAAAAAAAAAAAAAAAAAAAAAAAAAAAAAAAAAAAAAAAAAAAAAAAAAAAAAAAAAAAAAAAAAAAAAAAAAAAAAAAAAAAAAAAAAAAAAAAAAAAAAAAAAAAAAAAAAAAAAAAAAAAAAAAAAAAAAAAAAAAAAAAAAAAAAAAAAAAAAAAAAAAAAAAAAAAAAAAAAAAAAAAAAAAAAAAAAAAAAAAAAAAAAAAAAAAAAAAAAAAAAAAAAAAAAAAAAAAAAAAAAAAAAAAAAAAAAAAAAAAAAAAAAAAAAAAAAAAAAAAAAAAAAAAAAAAAAAAAAAAAAAAAAAAAAAAAAAAAAAAAAAAAAAAAAAAAAAAAAAAAAAAAAAAAAAAAAAAAAAAAAAAAAAAAAAAAAAAAAAAAAAAAAAAAAAAAAAAAAAAAAAAAAAAAAAAAAAAAAAAAAAAAAAAAAAAAAAAAAAAAAAAAAAAAAAAAAAAAAAAAAAAAAAAAAAAAAAAAAAAAAAAAAAAAAAAAAAAAAAAAAAAAAAAAAAAAAAAAAAAAAAAAAAAAAAAAAAAAAAAAAAAAAAAAAAAAAAAAAAAAAAAAAAAAAAAAAAAAAAAAAAAAAAAAAAAAAAAAAAAAAAAAAAAAAAAAAAAAAAAAAAAAAAAAAAAAAAAAAAAAAAAAAAAAAAAAAAAAAAAAAAAAAAAAAAAAAAAAAAAAAAAAAAAAAAAAAAAAAAAAAAAAAAAAAAAAAAAAAAAAAAAAAAAAAAAAAAAAAAAAAAAAAAAAAAAAAAAAAAAAAAAAAAAAAAAAAAAAAAAAAAAAAAAAAAAAAAAAAAAAAAAAAAAAAAAAAAAAAAAAAAAAAAAAAAAAAAAAAAAAAAAAAAAAAAAAAAAAAAAAAAAAAAAAAAAAAAAAAAAAAAAAAAAAAAAAAAAAAAAAAAAAAAAAAAAAAAAAAAAAAAAAAAAAAAAAAAAAAAAAAAAAAAAAAAAAAAAAAAAAAAAAAAAAAAAAAAAAAAAAAAAAAAAAAAAAAAAAAAAAAAAAAAAAAAAAAAAAAAAAAAAAAAAAAAAAAAAAAAAAAAAAAAAAAAAAAAAAAAAAAAAAAAAAAAAAAAAAAAAAAAAAAAAAAAAAAAAAAAAAAAAAAAAAAAAAAAAAAAAAAAAAAAAAAAAAAAAAAAAAAAAAAAAAAAAAAAAAAAAAAAAAAAAAAAAAAAAAAAAAAAAAAAAAAAAAAAAAAAAAAAAAAAAAAAAAAAAAAAAAAAAAAAAAAAAAAAAAAAAAAAAAAAAAAAAAAAAAAAAAAAAAAAAAAAAAAAAAAAAAAAAAAAAAAAAAAAAAAAAAAAAAAAAAAAAAAAAAAAAAAAAAAAAAAAAAAAAAAAAAAAAAAAAAAAAAAAAAAAAAAAAAAAAAAAAAAAAAAAAAAAAAAAAAAAAAAAAAAAAAAAAAAAAAAAAAAAAAAAAAAAAAAAAAAAAAAAAAAAAAAAAAAAAAAAAAAAAAAAAAAAAAAAAAAAAAAAAAAAAAAAAAAAAAAAAAAAAAAAAAAAAAAAAAAAAAAAAAAAAAAAAAAAAAAAAAAAAAAAAAAAAAAAAAAAAAAAAAAAAAAAAAAAAAAAAAAAAAAAAAAAAAAAAAAAAAAAAAAAAAAAAAAAAAAAAAAAAAAAAAAAAAAAAAAAAAAAAAAAAAAAAAAAAAAAAAAAAAAAAAAAAAAAAAAAAAAAAAAAAAAAAAAAAAAAAAAAAAAAAAAAAAAAAAAAAAAAAAAAAAAAAAAAAAAAAAAAAAAAAAAAAAAAAAAAAAAAAAAAAAAAAAAAAAAAAAAAAAAAAAAAAAAAAAAAAAAAAAAAAAAAAAAAAAAAAAAAAAAAAAAAAAAAAAAAAAAAAAAAAAAAAAAAAAAAAAAAAAAAAAAAAAAAAAAAAAAAAAAAAAAAAAAAAAAAAAAAAAAAAAAAAAAAAAAAAAAAAAAAAAAAAAAAAAAAAAAAAAAAAAAAAAAAAAAAAAAAAAAAAAAAAAAAAAAAAAAAAAAAAAAAAAAAAAAAAAAAAAAAAAAAAAAAAAAAAAAAAAAAAAAAAAAAAAAAAAAAAAAAAAAAAAAAAAAAAAAAAAAAAAAAAAAAAAAAAAAAAAAAAAAAAAAAAAAAAAAAAAAAAAAAAAAAAAAAAAAAAAAAAAAAAAAAAAAAAAAAAAAAAAAAAAAAAAAAAAAAAAAAAAAAAAAAAAAAAAAAAAAAAAAAAAAAAAAAAAAAAAAAAAAAAAAAAAAAAAAAAAAAAAAAAAAAAAAAAAAAAAAAAAAAAAAAAAAAAAAAAAAAAAAAAAAAAAAAAAAAAAAAAAAAAAAAAAAAAAAAAAAAAAAAAAAAAAAAAAAAAAAAAAAAAAAAAAAAAAAAAAAAAAAAAAAAAAAAAAAAAAAAAAAAAAAAAAAAAAAAAAAAAAAAAAAAAAAAAAAAAAAAAAAAAAAAAAAAAAAAAAAAAAAAAAAAAAAAAAAAAAAAAAAAAAAAAAAAAAAAAAAAAAAAAAAAAAAAAAAAAAAAAAAAAAAAAAAAAAAAAAAAAAAAAAAAAAAAAAAAAAAAAAAAAAAAAAAAAAAAAAAAAAAAAAAAAAAAAAAAAAAAAAAAAAAAAAAAAAAAAAAAAAAAAAAAAAAAAAAAAAAAAAAAAAAAAAAAAAAAAAAAAAAAAAAAAAAAAAAAAAAAAAAAAAAAAAAAAAAAAAAAAAAAAAAAAAAAAAAAAAAAAAAAAAAAAAAAAAAAAAAAAAAAAAAAAAAAAAAAAAAAAAAAAAAAAAAAAAAAAAAAAAAAAAAAAAAAAAAAAAAAAAAAAAAAAAAAAAAAAAAAAAAAAAAAAAAAAAAAAAAAAAAAAAAAAAAAAAAAAAAAAAAAAAAAAAAAAAAAAAAAAAAAAAAAAAAAAAAAAAAAAAAAAAAAAAAAAAAAAAAAAAAAAAAAAAAAAAAAAAAAAAAAAAAAAAAAAAAAAAAAAAAAAAAAAAAAAAAAAAAAAAAAAAAAAAAAAAAAAAAAAAAAAAAAAAAAAAAAAAAAAAAAAAAAAAAAAAAAAAAAAAAAAAAAAAAAAAAAAAAAAAAAAAAAAAAAAAAAAAAAAAAAAAAAAAAAAAAAAAAAAAAAAAAAAAAAAAAAAAAAAAAAAAAAAAAAAAAAAAAAAAAAAAAAAAAAAAAAAAAAAAAAAAAAAAAAAAAAAAAAAAAAAAAAAAAAAAAAAAAAAAAAAAAAAAAAAAAAAAAAAAAAAAAAAAAAAAAAAAAAAAAAAAAAAAAAAAAAAAAAAAAAAAAAAAAAAAAAAAAAAAAAAAAAAAAAAAAAAAAAAAAAAAAAAAAAAAAAAAAAAAAAAAAAAAAAAAAAAAAAAAAAAAAAAAAAAAAAAAAAAAAAAAAAAAAAAAAAAAAAAAAAAAAAAAAAAAAAAAAAAAAAAAAAAAAAAAAAAAAAAAAAAAAAAAAAAAAAAAAAAAAAAAAAAAAAAAAAAAAAAAAAAAAAAAAAAAAAAAAAAAAAAAAAAAAAAAAAAAAAAAAAAAAAAAAAAAAAAAAAAAAAAAAAAAAAAAAAAAAAAAAAAAAAAAAAAAAAAAAAAAAAAAAAAAAAAAAAAAAAAAAAAAAAAAAAAAAAAAAAAAAAAAAAAAAAAAAAAAAAAAAAAAAAAAAAAAAAAAAAAAAAAAAAAAAAAAAAAAAAAAAAAAAAAAAAAAAAAAAAAAAAAAAAAAAAAAAAAAAAAAAAAAAAAAAAAAAAAAAAAAAAAAAAAAAAAAAAAAAAAAAAAAAAAAAAAAAAAAAAAAAAAAAAAAAAAAAAAAAAAAAAAAAAAAAAAAAAAAAAAAAAAAAAAAAAAAAAAAAAAAAAAAAAAAAAAAAAAAAAAAAAAAAAAAAAAAAAAAAAAAAAAAAAAAAAAAAAAAAAAAAAAAAAAAAAAAAAAAAAAAAAAAAAAAAAAAAAAAAAAAAAAAAAAAAAAAAAAAAAAAAAAAAAAAAAAAAAAAAAAAAAAAAAAAAAAAAAAAAAAAAAAAAAAAAAAAAAAAAAAAAAAAAAAAAAAAAAAAAAAAAAAAAAAAAAAAAAAAAAAAAAAAAAAAAAAAAAAAAAAAAAAAAAAAAAAAAAAAAAAAAAAAAAAAAAAAAAAAAAAAAAAAAAAAAAAAAAAAAAAAAAAAAAAAAAAAAAAAAAAAAAAAAAAAAAAAAAAAAAAAAAAAAAAAAAAAAAAAAAAAAAAAAAAAAAAAAAAAAAAAAAAAAAAAAAAAAAAAAAAAAAAAAAAAAAAAAAAAAAAAAAAAAAAAAAAAAAAAAAAAAAAAAAAAAAAAAAAAAAAAAAAAAAAAAAAAAAAAAAAAAAAAAAAAAAAAAAAAAAAAAAAAAAAAAAAAAAAAAAAAAAAAAAAAAAAAAAAAAAAAAAAAAAAAAAAAAAAAAAAAAAAAAAAAAAAAAAAAAAAAAAAAAAAAAAAAAAAAAAAAAAAAAAAAAAAAAAAAAAAAAAAAAAAAAAAAAAAAAAAAAAAAAAAAAAAAAAAAAAAAAAAAAAAAAAAAAAAAAAAAAAAAAAAAAAAAAAAAAAAAAAAAAAAAAAAAAAAAAAAAAAAAAAAAAAAAAAAAAAAAAAAAAAAAAAAAAAAAAAAAAAAAAAAAAAAAAAAAAAAAAAAAAAAAAAAAAAAAAAAAAAAAAAAAAAAAAAAAAAAAAAAAAAAAAAAAAAAAAAAAAAAAAAAAAAAAAAAAAAAAAAAAAAAAAAAAAAAAAAAAAAAAAAAAAAAAAAAAAAAAAAAAAAAAAAAAAAAAAAAAAAAAAAAAAAAAAAAAAAAAAAAAAAAAAAAAAAAAAAAAAAAAAAAAAAAAAAAAAAAAAAAAAAAAAAAAAAAAAAAAAAAAAAAAAAAAAAAAAAAAAAAAAAAAAAAAAAAAAAAAAAAAAAAAAAAAAAAAAAAAAAAAAAAAAAAAAAAAAAAAAAAAAAAAAAAAAAAAAAAAAAAAAAAAAAAAAAAAAAAAAAAAAAAAAAAAAAAAAAAAAAAAAAAAAAAAAAAAAAAAAAAAAAAAAAAAAAAAAAAAAAAAAAAAAAAAAAAAAAAAAAAAAAAAAAAAAAAAAAAAAAAAAAAAAAAAAAAAAAAAAAAAAAAAAAAAAAAAAAAAAAAAAAAAAAAAAAAAAAAAAAAAAAAAAAAAAAAAAAAAAAAAAAAAAAAAAAAAAAAAAAAAAAAAAAAAAAAAAAAAAAAAAAAAAAAAAAAAAAAAAAAAAAAAAAAAAAAAAAAAAAAAAAAAAAAAAAAAAAAAAAAAAAAAAAAAAAAAAAAAAAAAAAAAAAAAAAAAAAAAAAAAAAAAAAAAAAAAAAAAAAAAAAAAAAAAAAAAAAAAAAAAAAAAAAAAAAAAAAAAAAAAAAAAAAAAAAAAAAAAAAAAAAAAAAAAAAAAAAAAAAAAAAAAAAAAAAAAAAAAAAAAAAAAAAAAAAAAAAAAAAAAAAAAAAAAAAAAAAAAAAAAAAAAAAAAAAAAAAAAAAAAAAAAAAAAAAAAAAAAAADGvBiZlgetY75rD8cViMPhrM3cRet2rdPGa66oiI8cy4zaTevsTk0zRdzaMTcp50YWPVJ+WODy4nHYbDRrfuRT3y9OGwWJxVXFsW5qn1Rq7nWDWEJ5t0hMvormnLsiv3Y7K7tyKY+T/u0OK6Qe0FVf9BkuAt068OtVVM6NFe2wye1/wD017olILOxmd3f/wCOnfMLFCt/4wG1PwZl/wDq+8/GA2p+Dcv/ANX3vw+nGT/inyej6C51+CPOFkBW/wDGA2p+Dcv/ANX3n4wG1Pwbl/8Aq+8+nGT/AIp8j6C51+CPOFkBW/8AGA2p+Dcv/wBX3n4wG1Pwbl/+r7z6cZP+KfI+gudfgjzhZAVv/GA2p+Dcv/1fefjAbU/BuX/6vvPpxk/4p8j6C51+CPOFkBW/8YDan4Ny/wD1fefjAbU/BuX/AOr7z6cZP+KfI+gudfgjzhZAVv8AxgNqfg3L/wDV95+MBtT8G5f/AKvvPpxk/wCKfI+gudfgjzhZAVv/ABgNqfg3L/8AV97Hs/7U/BmXf6vvPpvlH4p8j6C51+CPOFkImJ7WdYQluv3pbabY7UWsrw+WYCizT7bE3oirS3RHOfH3k1xr2t7luaWMxtfK2NeLrpyxoj+Z5XiMtvRZv6cbTXSJ1073oBsmuAAAAAAAAAADUfFnk46nKr85bTbnFRbn1GLsT1Jq7NdHzVVxaZmWaYmqqIfbrHfNVdcy357Y5fj72AxmT4C1fw9c0XKKoq1pmH4/jAbU/BmXfJV96KV7aZTRVNNVU6x6kuo2HziumKqaaZif9ULICt/4wG1PwZl/+r7z8YDan4Ny/wD1fe+fpxk/4p8n19Bc6/BH/wCoWQFb/wAYDan4Ny//AFfefjAbU/BuX/6vvPpxk/4p8j6C51+CPOFkBW/8YDan4Ny//V95+MBtT8G5f/q+8+nGT/inyPoLnX4I84WQFb/xgNqfg3L/APV95+MBtT8G5f8A6vvPpxk/4p8j6C51+CPOFkBW/wDGA2p+Dcv/ANX3n4wG1Pwbl/8Aq+8+nGT/AIp8j6C51+CPOFkBW/8AGA2p+Dcv/wBX3n4wG1PwZl/+r7z6cZP+KfI+gudfgjzhZDU1Vv8AxgNqfgzLv9X3vrwPSEziJj13kODqjt9SuVRPzzL6o22yeqdOPPlL4r2HzumNfk4n2wsLqawh7JN/+z9+YjMssxmEmeGtOlyPm0dzszt/snnsRGAzrDTXP/p3KupXE+KebcYTPMuxU6Wr0TPZq02LyLM8JGt6xVEdumse51GsDzFVNUaxMT4mdYbSJapkBkAAAAAAAAAAAAAAAAAAAAAAAAAAAAAAAAAAAAAAAAAAAAAAAAAAAAAAAAAAAAAAAAAAAAAAAAAAAAAAAAAAAAAAAAAAAAAAAAAAAAAAAAAAAAAAAAAAAAAAAAAAAAAAAAAAAAAAAAAAAAAAAAAAAAAAAAAAAAAAAAAAAAAAAAAAAAAAAAAAAAAAAAAAAAAAAAAAAAAAAAAAAAAAAAAAAAAAAAAAAAAAAAAAAAAAAAAAAAAAAAAAAAAAAAAAAAAAAAAAAAAAAAAAAAAAAAAAAAAAGNY77HZpr8rj96e8DJti8v8A94ri9jrkT6jhLcx1qvDPejwvPicVZwtqbt6rSmOt++Fwt7FXYtWadap6odNmuPweW4KvGY/E2sPYtxrVcu1xTEeeUPbwt/GFw9deE2WwvrmqOE4q/GlHjpjt/wDOCJN4G22f7XZhOIzLFTFmJ1tYa3Mxbt+CI7fHPFzsclXZztxfuzNvA/Vp7Z5/2WvkmwVi1TF3HzxqvwxzR39rdbU7W7R7RXpuZtmuIvRM8LcVzTRT4qY4NLPg+njIIHexN69VxrtUzPr5Vg2MNZsURRapimPVGgA/HV+4AwAAAAAAAAAAD9sDhsRjcbaweFt1XL9+qKLdumNZmX4J66LuwE2bEbXZrZ0ruRpgaKo5U9tzSe/2efvtxk2U3MzxcWKObnmeyGlz3OLeV4OrEV8/NTHbLvdzGxNjY3ZSjD1URVj8Rpcxd2O2r+7E96OTs2RfeFwtvC2abNqNKaY0c94vFXcVfqv3p1qqnWQB6XnAAAAAAAAAAO1jRkBCXSf2AnFYWrazKrOt6zTpjLdEe7ojlX44QEvLftUXrNVq7TFVFcTFUTHCVVt/Ww1zZDaib+Fon8GY6qqvDzp+TnnNH/nYqvbXIPk6vn9inkn7Xq9a2NhdoePT/D8RPLH2fXHZ+jg/OArhZuoAwyAAAAAAAAAMzOoM0VTTVFVMzExymJ46sDMVTHM+Zpied2OxO87a3ZquinD5jVisNTzw+Knr06eDXjHm0Tbu53y7O7QTRg8xmMrxtXDq3av6Ouf8Nf3qwnGNJjs5ceUpHlW1OY4CYpirjUdk8vl2Izm+yWW5jTNXE4tfbTyecc0r0W7lFymKqKoqieUxPN61Vb3Tb2s42WuW8DmM3MflnCOpVVrXZjv0T3vBPzLIbKZ9le0WU28yynFUX7FyOcTxpnvTHZPgWzk20GEzSj+lOlUc9M8/7qfzvZ3GZTX/AFY1onmqjm/aW01Y1jvsR4J4Gnfhvmg1egBkAAAAAAAAAAAAAAAAAA1jvvwqxmEpqmKsTaiY5xNccH4Z9jKMvybFY65MRTh7NVydf8MaqYZpmeMxuZ4jGV4q91792quZ68xznxoztBtFTlE0RxONNWvuSfZzZqvOflJivixTp1a866vr7B/pVn9uD19g/wBKs/twpH66xP6Te/eSeusT+k3v3kox/MSPyPelP8tqv8j/AG/uu56+wf6VZ/bg9fYP9Ks/twpH66xP6Te/eSeusT+k3v3kn8xI/I95/Lar/I/2/uu56+wf6VZ/bh+1q5bu24rt1010zymJ1iVHPXeK7cTd/eSsR0SM6rx2x2Myy9dqruYDE9anWqZ0orjhz8MVNxkm2FOZYuMNNvizMT19jTZ7sZcyrBziYucaImNeTTn9qXQE1QgAAAAAAAAebty3aomu5XTRTHOZnSIZnmj7pM3LlvdLj5oqmmfVLURVHOPbxDyY7E/NcNXfmNeLEz5PVgcNOKxVuxE6caYjzd16+wf6VZ/bg9fYP9Ks/twpH66xP6Te/eSeusT+k3v3kq9/mJH5HvWN/Lar/I/2/uu56+wf6VZ/bg9fYP8ASrP7cKR+usT+k3v3knrrE/pN795J/MSPyPefy2q/yP8Ab+671rFYa5XFFvEW6qp7IqiZfsqz0Zr9+5vewNNV+5VFVq9rFVczE+0me/otJGqZZDnH8Vws3+JxeXTd+qF5/k05Ri4w818bkiebTt/R6Abtox+d+/Zs09a9dooieGtU6PaIul5duW9jMD6nXXRM4rjNM6TPB4MzxvzLCV4jTXivfleCnHYy3honTjTpqlb19g/0qz+3B6+wf6VZ/bhSP11if0m9+8k9dYn9JvfvJQH+Ykfke9YP8tqv8j/b+67nr7B/pVn9uD19g/0qz+3CkfrrE/pN795J66xP6Te/eSfzEj8j3n8tqv8AI/2/uu/ZxOHvVTFq/brmOMxTVEv11hXToh3r9zbbMKa79yqPWOulVUzHu6YWJlN8lzP+JYOMRxeLrr7kFzvK/wCF42rC8bjaacvNzvQDbNSPzv4ixZiJvXaKNeXWq01eo8fjQh0xL123hsmii5XRrXc9zMx2drWZvmH8PwdeJ014vV7dGyyfLpzHG0YWKuLxuv2app9fYP8ASrP7cHr7B/pVn9uFI/XWJ/Sb37yT11if0m9+8lBf5iR+R70+/ltV/kf7f3Xc9fYP9Ks/twevsH+lWf24Uj9dYn9JvfvJPXWJ/Sb37yT+Ykfke8/ltV/kf7f3XgsYixe19Su0V9Xn1atdH6RMIJ6HF27cuZ3FdyqrSLWnWqmf7ydOSc5PmP8AEcFRieLpxteTunRAs5y6ctxteFmrjcXTl741egG0awAAAAAAAAAAAAAAAAAAAAAAAAAAAAAAAAAAAAeL961Zo6925TRTy1qnR6lFXS1uXbe7yz1K6qJ9eUcaZ07JeHMcZ8zwlzETGvFjV7ctwc43F28PE6cadEnevsH+lWf24PX2D/SrP7cKR+usT+k3v3knrrE/pN795KAfzEj8j3rD/ltV/kf7f3Xc9fYP9Ks/twevsH+lWf24Uj9dYn9JvfvJPXWJ/Sb37yT+Ykfke8/ltV/kf7f3Xfs4nD3qpi1ft1zHOKaol+qtnRJvX7m8nExcvV10/g2vhVXM/n245f8AnNZH/wA4Jrkma/xPCRiOLxeWY8kGzzKpyvGzhuPxtIidebnegG4agAAAAAAAAAAAAAAAAAAAAAAAAAAAAAAAAAAAAAAAAAAAAAAAAAAGIhkA1jvsTMNXtHn2UZFhZxGa5hZwtvnrcriJnwRHa/O5dot08auYiPW+7duu5VFNEazPVDa6wId2t3+ZJhJqs5HgL2Orjh6rd/o7fm5zPzI9z7fXttmFUxh8RYwNE/m2bcTPy1ayjOM2yynDTxYr40+rl96U4LYvOMVHGm3xI/1Tp7udaOaqY5zEPzuYrD2/d37dPjq0U2zLbHanHzPrvP8AH3Insm/Vp80tVXjMZXOteMv1azrxuz97RXOEOzE/UszPtb+3wcX9Nbl+I7oldynGYSqdKcTamZ7Irh+sXLc8q4+VR2MViYnWMTe8E+qTq+rAZ/neDmPWubY2zp/cvTD5o4Q7ev1rE+b6r4N72n1MRHl+67RqqRkm9bbrLKqerndzEUxzpxFMXPnl3WzHSBxEV028+yeiqnlN7C1zExH+Wrn8sNxhNt8rvzxa5mifXzebS4zYTN7EcaiIrj1Ty+Up8iY77Lktjt4eye0vVoy/M7dF+f8A6e/7S5r3oiefml1cTExrE8+SU2MVYxFEV2a4qj1IliMNfw9fEvUTTPZMaPWo8xMcp0J8799X4PQDLIAADFfuJ8RPMPxrxmEoqmmrE2omOcTXDHr7BfpVn9uFOt4OJxMbc5tpiL0f75cjSK5/vTp28GonF4nX+sXv3kq4vbfxau1UfIc09qy8Pwd1XrVNz5xzxE83b7V3PX2D/SrP7cHr7B/pVn9uFI/XWJ/Sb37yT11if0m9+8l+P8xI/I979f5bVf5H+3913PX2D/SrP7cP3iqmY1iYmJ7YUb9c4nSf95vfvJXS2UmqrZvA6zMzOHo49/2sJJs9tH/F6rlPyfF4unXrzoztHszOTU25m5xuNr1aczZgJSioAAAAAAAAAAAAAAAAAAAAAAAAAAAAAAAAAAAAAAAAAAAAAAAAAAAAAAAAAAAA8110UUTVXVFNMc5meTMud3q1TRu5zmqmZiYwVzTSdPzX437vyVqq52RMv0sW/lbtNvtmIbv19g/0qz+3B6+wf6VZ/bhSL11iP0m9+3LPrrE/pN795KuZ4Q4ifuPesyODeqY9I/2/uu56+wf6VZ/bg9fYP9Ks/twpH66xP6Te/eSeusT+k3v3ksfzEj8j3n8tqv8AI/2/uu7RjMJXVFNGJtVTPKIrji/fWFOt1WIxM7xsmirEXZ1xdMTrXM/LxXDo9zCW7P55/FrVdzicXSdO1ENoshnJ71Frj8bjRrzaPQCQI8AAAAAAAAAAamsd9iPC5Le9tnhdjNmK8bX1a8Ve1owtmZ411+HwQ8+JxNvDWar12dKYfthcPdxV6mzajWqqdIazfXvIwexmXThsLNF/Nb9P9Da11i3H9+rwR2R2qwZ1mWOzbNLuPzHE14jEXqutXXcq11/7eBnPMyxmcZrezLMb9V7EYivrV11Tx/7RHefHw5qP2gz+/ml7n0txzR8V9bObO2Mpsc2t2ftT8I9RpOuurII5qkwAwAAAAAAAAAAAE8AA7H3bM5Tjs9z3DZVl9qbmIxNzqUR2Rx4zPgiH627VV2uKKI1meZ+V27Raom5XOkRzzLqtxWw93bDammrE2qvwZg5ivFVR+dPOKNfD9C1mGs28PYosWKKaLVuIppppjSIiOUQ0m7rZjB7JbMYfKsHTrNEa3bmnG5XPOZ87fx4V6bN5JTleEiift1ctU/BQO02e15tjJrj7unkpj498vQCRo4AAAAAAAAAAAAAA86NHvB2awe1WzGJyjGUcLtM+p16cbdfZVHnb4flesW71uq3cjWmeSYfpZvV2blN23OlUTrEqS7V5Ljtn8+xGU5ham3fw9fV8FUdkx4GvWY6R2wUbSZDOc5daj8J4GmZ0pjjeo59Xwz3laKomJmJiYmJ0mJ7JURtDk1eV4uaP7J5Yn1OgNm87ozbBRc1+vHJVHZP6SwMcuevFloNEiAGAAAAAAAAAAAgACJ4uj3b7Z5tsbnUYzL7nXs1zpfw1Uz1LtP2T3nOD0YfFXcPdi7anSqHnxWFs4qzVZvU60zzwuXsFtPl21eQW80y25E018LlE+6tVdtNUd9vYVB3S7a43YvaS3i7XWuYO7MU4ux/fo78d6Y5x8nbK2eSZjhM2yixmWAu03sPibcV26qeUxP2rv2bz6jNcP9bkuU88fFQ20uz1zKMRyctur7M/CfW+0BJUaAAAAAAAAAAAAAAAAAAR50l84/Be67F2qatLmOqpw9Hf0mdZ+aFV45+NNXTCzj1XNcsyOidYsUVX64jsqnhHzaoWnXWFJ7a4z5fNaqInkojT9V5bCYL5vlMVzz1zM+zmg4HAEQ1TQ4HADUI76TuijnE4DeNVl9dfVt5jh6qNJnh1qfbRPyRVHnRi2mxWZ1ZNtdl2a06/7riaLk6dsa+2j5NW0yfFThMfav680xr3dbU53g4xmXXrGmutM6d8cy6w/PD3KLtii5RMTTXTExMdur32OhYnWNYc3zyToyA+gAAAAABjwo96TfDdDj/jLX1kJDR70nu5Hj/jLP1kNVnfRmI8M7m0yLpTD+OnfCq/A4A551dJHA4AaiQOjDw3w4D4q96C1PiVW6MPdiwHxN70JWqXJsF0XV4p3QpLhB6Xp8Eb5AE3QZiY+dEPTA95mA8q+xLqIumB7ysB5X9jQbTcmUX+74w32y/TOH7/AIK6cDgCg9XRBwOHhA1EudD+P/1zj9P0H+elYyefhVz6H3v5x/kP81KxvYu7Ynoejvneofbjpq53RuZAS1EXmY/7oO6Zf9Xyb4y59EJzjnKDOmZ/Vsl+MufRCM7XdDXvZvhJtjunLPt3SgjgcAUVq6AOBwA1E49DSNb+eeK1/MneYlBPQy/L554rX8yd6eS9Nj+hrXt3yoHbPpu97N0MgJOi4AAAAAAAAAAAAAAAAAAAAAAAAAAAAAAAAAAADHainpddzqx5ZR9EpX7UUdLvud2PLKPolpNo+ib/AIZbvZrpjD+KFbOBwBz/AKuizgcANRKfRE7pmJ/Vtz6y2st28laeiJ3TcT+rbn1ltZbtXXsP0RHfKidu+mq+6ncyAmCHgAAAAAAAAAAAAAAAAAAAAAAAAAAAAAAAAAAAAAAAAAAAAAAAGsGrxpPX4Tw7zOvhhgetXx5xmOByrA14zMMVaw1i1GtVd2rSmIaLeXtvlOxmU+ucfc69+5ExYw1E+3uTH0R4VY94u3GebY5jN/McRVRh6atbOFtzMUW4+2fCjGfbUYbK44kfWudnZ3pRs/stis2njz9W129vqhJO8nfrduVXMDslYiijjTONv0+2nw0U8o8dXyIdznNcyzbGVYvM8dfxV2qeNV2uap8z4xUWZZ5jcwrmq9XOnZHNC5cryHAZZRFOHo5euZ5Zn2gDU6y3GkDGnhZDVkANQ5AGppDNE1UVRVRVNM08ppnlKQN3u93abZyujD4q9OZ4GnhNq/V7emP8Nf36wj4ezB5jisHc49iuaZeHHZbhMdb+TxNEVR7/ADW/3e7d7P7YYSK8txMU4imP6TC3fa3KPN2x4YdTzjmo/leOxmW4+3jcBiK8PftTrRcoq0mPvWC3L74MPnXqWTbSTRh8w4U2sRyt358OvKZ73JauQbZWsZMWMX9Wvqnqn9FR7RbFXsDE38JrXb6464/WEwDzExMc9e1lOdUDZAZBiv3E+Jliv3E+JieYjnUv3he/rNvLbvpS03a3G8L39Zt5bd9KWn7XOGO9Kud873TWX+h2vDG44HAHk1ewnlK7GyfvZwHk1HowpPPKV2NkvezgPJqPRhZPB395f7o+KsOEn7vD98/BsgFpKoAAAAAAAAAAAAAAAAAAAAAAAAAAAAAAAAAAAAAAAAAAAAAAAAAAAAAAAAAAAAYlzm9nubZ15Fc9GXSRzlze9nub515Fc9GXjx/ol3wzuerA+lW/FG+FOeBwBzjM8rpqnmg4HAGNX06DdR3R8m8spXJp9zHiU23Ud0fJvLKVyafcwtng+9Du+KNyneEb06z4fiyAsJXYAAAAAAAAAD5cxxVnBYK7i8TXTRasUTXXVVypiFSN7+12I2w2wv4+qqqMJbn1PC29eFNEdunfnmmDpX7V1Zds9Z2cwd7S/mE9a/1Z40247PPKuyqduc4mu7GAtz9Wnlq7+z2La2AyWKLU5hdjlnkp7u32yTGsAK61WXMagDDIAAAAAADEas6MasjHZxlmmJmdI4nFmeYmYjnk7NRvtmti9qM/micryXE3qKuV2aJpo/angkTZbo/5viOrcz3NcPhKOc2rEeqVad7WdIj523wWQ5jjNPkbU6ds8kNNjtocswWvy16NeyOWfch3t0bDI8jzjOL/AKllWW4rF1ROk+pW5qinwzMRwWa2X3PbE5N1a6sBOPu0/n4yrrxP/TGlPzO3wmEw2DsxawmGt2bdMaRTboimI80JfguD+9P1sVc4vqjllDcfwjWafq4S1M+ueSPJW7ZTcVtZmVNN3MbmGyy3Vziurr3P2aeHyyl7dRuyyjYm7cxVm9dxeOu0RRVfu0xEUx3qYjl8s8neCZ5bsvluAqi5bp1rjrnlQfM9qczzGmbd2vSieqOSP1YPMyJEjoAAAAAAAAAAAAAAAAADxVTrHVmOExxRJvA3HZdnWaYjMsqx9eBv4iqa67VVuK7Ws89I4TTr45S8PBj8swuPt8TEUaw92X5li8vufKYaviyqltRue22ybrV0ZfTmFqI1mvB1deZ/6Z0qnzOHxuExODxFVjF2Lti5RwqouUTTVHjiV5JjWOLXZ1kWUZvZ9SzTLcLi6O9etRVp4u8hWN2Aw9XLhbk0z2TywnGA4RMVb5MVair1xyT5cyk4sttVuL2TzGKq8trxOW3Z5Rbq69vz01a/NMI52o3F7W5dFVzLrmGzO1HKLdXUr0/y1cPklD8bshmuF1nicaO2OVNMDtplGK0ibnEnsq5PfzIvH355kmcZPf8AUc1y3E4WvXSIu25pifDEzD4OxHLlm5bni10zE+tJ7d+1dp41FUTHqnUDSTs1fno/TUAYZAAAAAAAAOfFMXRZ24qwObf7KZje/wB2xdXWwlVc/k7nbT4qvp8aHXvCYi7hcTbxFmuqi5aqiqiqmdJiYnVtcozG5l+MoxFHVz+uGpznLLeZYKvDV9fN6p6pXmiY78M6w5ndRtJb2q2JwWa0zHq1VHUv0x+bcp4Vf+eF0roDD36L9mm9ROsTGrnTEWbli9VZuRpVTOk+xkB+78gAAAAAAAAAAAAABiqYimZ1Y1arbfM6Mo2RzDM66urGGw9dWvh00j535XrkW7dVc80RM+T7tUTcuU0U88zEearG+/OPw3vMzTFU1xXbtXPUbVUdtNPD6XJ68HvEXa79+u9cmZru1TXVPhmdXhznjMROIxFd2eeZmXTGBw1OGwtuzTzUxEeQA8j1gABx4ac4BnXlYmFutxub/hndflWJmrW5asxYr46zE0e14+GYiJ87ronhx5IU6Hmb9fKczyWurjYuU37ceCrhV88R8qbHQWQYv53llm716aT7ORzltDg5weaXrXNGszHdPLG9kBuWnAAAAAAEe9J7uR4/4yz9ZCQke9J7uR4/4yz9ZDU550ZiPDVubTIulMP46d8KrgOeXSQACQOjD3YsB8Te9CVqlVejD3YsB8Te9CVqlybBdF1eKd0KS4Qel48Eb5AE4QZ5RF0wPeVgPK/sS9HiRF0vaK69jMF1aZn/AHqOUeBotpKZqym9ERryN7sxVFOcWJqnT6yuY9+oXv8AhXP2ZZ9Rvf8ACufsyob5vd/DPlLoP5xZ/HHnD8x+nqN7/hXP2ZY9Rvf8Kv8AZk+b3fwz5Sz84s/jjzhLPQ/9/OP8h/mpWN7FdOiDbuUbb4+aqKoj1lzmNPzoWKnmurYumqnKKImOuVFbb1U1ZzcmmdY0jc9AJYiZHOUGdMz+rZL8Zc+iE5xzlBnTM/q2S/GXPohGdruhr3s3wk2x3Tlj27pQQAol0AAAnLoZfl888Vr+ZO9PJBHQy/L554rX8yd6eS9Nj+hrXt3qB2z6cvez/wBYZAShFwAAAAAAAAAAAAAAAAAAAAAAAAAAAAAAAAAAADtRR0u+53Y8so+iUr9qKOl33O7HllH0S0e0fRN/wy3mzPTGH8UK2AOf3RQACU+iJ3TcT+rbn1ltZbtVp6IndNxP6tufWW1lu1dmw/REd8qJ276ar7qdzICYIeAAAAAAAAAAAAAAAAAAAAAAAAAAAAAAAAAAAAAAAAAAAAAAAA88OHFyO9rbjAbF5DOJvTTdxd7WnDYbXjXPf/yx2tztjnuB2b2exGb4+5FNmxTrprxqnspjvzKo23u0uP2r2kv5tj65mblWlu1r7W3R2REf+aoltTtDTllj5O1P9Wr3R2pbsps5Vmt/5S7H9Knn9c9n6vm2rzzMtos5vZnmmJqvX7s9s8KI7IpjlpHY1wKVu3q7tc13J1metetmzbs24t240pjmgAfk/QBjj32dGNWQ0meT98PgsZfnSzhr1f8AltzL7otV18lMaviu7RR9qqIfgPsxOUZph/6xl2Lt8NfbWao4eeHyV01Ue6pmPHwfVVi5Ry1UzHsYpv2q+SiqJ9rATrDHyvy0fpqyAwyFMzTMTEzExOsaTp4p8APrjSxNMTySnjo9b06sTctbM7SYrW9PtcFiq506/wDgq8Pent7ePOcImOxRiiqaKqaqJmJpnWJidNJ5xMd5ZXo67wo2myf8DZrdj8KYKn2tVU8cRbj87xxyn/utXZDaWb2mCxU/Wj7M9vqn1qh2z2XjD64/CU/Un7Udnrj1JU1Y1jvsdvgNI4rFVu9MV+4nxMsV+4nxMTzMwpdvC9/WbeW3fSlp+1uN4Xv6zby276UtP2ub8d6Vc8U73TWXeh2vDG4AeR7CeUrsbJe9nAeTUejCk88pXY2S97OA8mo9GFlcHf3l/uhWHCT93h++fg2QC0lUAAAAAAAAAAAAAAAAAAAAAAAAAAAAAAAAAAAAAAAAAAAAAAAAAAAAAAAAAAAAEc5c3vZ7m+deRXPRl0kc5c3vZ7m+deRXPRl48f6Ld8M7nqwPpVvxRvhTkBzhPO6bp5oAGGXQbqO6Pk3llK5NPuYU23Ud0fJvLKVyafcwtrg+9Du+KNyneEf06z4fiyAsJXYAAAAAAABq83K6aLc1VVREREzrLOkOZ3u5t+BN3eaY+J0row802+POqqNI+l+GJvU2LNd2rmpiZ8n7YazVfvUWqeeqYiParHvg2gr2k3gZhmHXmbNNz1KxGvKinhHy8ZcwVTMzM1TrM68e/I5yxWIrxF+u9Xz1TMul8HhqMNh6LFHNTEQAPO9IAAAAEzoURNVURTE1TM6REc5l9RTryMaxEayDudid0u1+0VNN+MLGAw1XGLuK1p60d+I5pP2X3BZJherdzrMMRjrkcZotf0dGvzzPywkOA2WzPGRFVFvSntnkRrMNrcqwUzTVc41XZTyq82rddyrqW6Kqqu9TGsut2Z3YbaZ3VFdjJ7ti3VPG7if6OPn4z5lntmtkNm8hoppyvJ8Lh5p5V024mv8Aani3cU6U6RGnBMcDwf26eXFXdfVHIhWP4Rb1WsYS1Eeurl9yDNluj7TE03NoM4mrhxtYSnT/AFT9yR9l922x+RdWrCZNYu3I/wDVxFPqtWv/AFa6eZ1wl2C2ey3B8tq1GvbPLPvQ7G7Q5pjeS9enTsjkj3Pzt24t0dWimKY8EPWj0NzERHJDS9erB44ZGQAAAAAAAAAAAAAAAAAAAAAAABjsNNeWsMjGgwcWQ0Y0fNjcHhsbh6rOMw1q/bqjSqi7RFUT8rh9p9zuxecTVcpwFeAuzyuYSepp5p1j5oSCPJicBhcVGl63FXfD2YXH4rCVcaxcmnulXfafcBnOHiq5kmZ2MXRxn1O9HqdfzaxPzI62k2M2oyGuqc1ybE2aKed2KOtRP/VTwXM04PF63Rcp0rpiY8SKY3YXL7/LYmaJ8496XYHb7M7HJfiK49fJPnCjM8J0nhPIW72n3a7H57rVi8ns2rs/+rh49Tq18PV0ifPEo52o6PtMzVc2fziY/u2sXGv+qPuQ7G7DZlY5bWlcern8kzwO32WX9Iv60T6+WPOEFdug6HbTYfaTZauYzbLrlNnXSm/bjrW6vPHKXPIniMLew9fEu0zE+tMsPirGJt/KWaoqp7YAHnegAAAAAZ1Y0TL0Q9oZw+fYzZ29X7TGUerWKZn8+n3Wnjp9FYOJ4KZ7tc3qyLbzK8zpq6tNnE0+qeGiZ0q+bVcuiYmiJieEwuPYXHfL5fNmrnon3Tyx8VJ7fYCMPmcXqY5Lka+2OSfg9gJwgwAAAAAAAAAAAAADzCL+lbnE5fu7jAW69K8xvxb8dMcZShyVy6XWceuts8HlNFUzRgbHXrjs61X/AGhG9q8X82ym7PXVGnmkuyOC+dZxapnmp+tPs/dEgCh3QIAAMeNmeTOjGsgDDKQOjRm8ZVvTwlquuKLWPoqw9Uz2zPGn/VEfKtRE6wpFkWNuZbnWEx9mdLmGvU3KZ8UxK6mUYq3jssw+MszrbxFqm5RPZpMawtvg/wAXx8Jcw8z9mdfZP/xTvCJgvk8ZbxMR9qNPbH7T7n1gLBV2AAAAAAI96T3cjx/xln6yEhI96T3cjx/xln6yGpzzozEeGrc2mRdKYfx074VXAc8ukgAEgdGHuxYD4m96ErVKq9GHuxYD4m96ErVLk2C6Lq8U7oUlwg9Lx4I3yAJwgzHLg8V26a40qjXxv0GJiJ5yOTmfl63s/wDCp+Q9b2f+FT8j9R8/JUfhjyZ409r8vW9n/hU/Iet7P/Cp+R+ox8lR+GPI1ntflRZoonWmiI156Q98dXofUU0xGkQxygD6COcoM6Zn9WyX4y59EJzjnKDOmZ/Vsl+MufRCM7XdDXvZvhJtjunLHt3SggBRLoAABOXQy/L554rX8yd6eSCOhl+XzzxWv5k708l6bH9DWvbvUDtn05e9n/rDICUIuAAAAAAAAAAAAAAAAAAAAAAAAAAAAAAAAAAAAdqKOl33O7HllH0SlftRR0u+53Y8so+iWj2j6Jv+GW82Z6Yw/ihWwBz+6KAASn0RO6bif1bc+strLdqtPRE7puJ/Vtz6y2st2rs2H6IjvlRO3fTVfdTuZATBDwAAAAAAAAAAAAAAAAAAAAAAAAAAAAAAAAAAAAAAAAAAAAABiao011hiNdXHb8NqI2X2CxWKtVxGKxEeo4aNePWq4a+aNZebF4qjDWK71zmpjWXowmGuYq/RYtx9aqdIQt0l9ta8+2nnJcFe1y/L6ppq6s8Lt3lVPhiOUIx7WbldVdyquqrWqqdap7ZnnPFhz7mWPuY7FV37k8sz5ep0blWXWsvwlFi3HJEec9oA1zYhPDmxGkxrLpd2mxea7Z5zGDwVPqdi3MTiMTVHtbUfbM956MNhbuJuxatRrVLzYrF2sLZqvXp0pjnaXJctx+bZhRgsswl3E4i5wpot0zMz4eHJMOwO4TFX6beJ2pxs4eJ4+tcNOtUeOrl80pZ3fbFZHshllOGyvDRN2Y/pcRcjW5cnvzP2RwdJwWrk2xGGsUxcxn16uzqj9VR53t5isRVNvA/Uo7f7p/Ry2zm7nY/JKY9Z5Hha66f/AFL9Hqlfy1a6eZ0dGFsW7cUW7FummOymmIfQJtZweHs08W3RER3ILexV+/VxrtczPrl+fqVuY424nxw1mc7L7P5pbmnH5Ng8Rr212aZq+Xm24+68PauRpXTE98Pi3duW51oqmJ9Uoj2z3EbPY+3VdyK/dy292Ue7tT5p4x5p8yFtvthNotkMRNOaYOZsTOlGKta1Wrnn7J8ErhVeN8+ZYLC5hg68LjcPbvWbkdWqi5TE01R4kVzXY7AYuJqtU8Sv1c3klmUba5jgqopu1fKUdcTz+yVIBLe/HdLcyOm5neztuu5l/ur2GjjNiO/HfpRIqTMsrxGXX5s340n3T3LjyrNsNmeHi9h51jrjrjvAGubMffsvm+MyDP8AC5tgLk0X8NciqNJ4VR20z4Jjh53wD9bV6u1ciuidJjmfles0XqJt3I1ieSV0Nhs9wu0mzOEzjCVa0Yi3rMa8aKu2mfFPBuftV76JO1U4XOb+y2Kuf0WLib2G608rkR7aI8ccfMsHGk6ceK/chzOMxwFF/r5p74c75/lVWWZhcsdXPHdL0xX7ifEyxX7ifE3M8zTRzqXbwvf1m3lt30paftbjeF7+s28tu+lLT9rm/HelXPFO901l3odrwxuAHkewnlK7GyXvZwHk1HowpPPKV2NkvezgPJqPRhZXB395f7oVhwk/d4fvn4NkAtJVAAAAAAAAAAAAAAAAAAAAAAAAAAAAAAAAAAAAAAAAAAAAAAAAAAAAAAAAAAAABHOXN72e5vnXkVz0ZdJHOXN72e5vnXkVz0ZePH+i3fDO56sD6Vb8Ub4U5Ac4Tzum6eaABhl0G6juj5N5ZSuTT7mFNt1HdHybyylcmn3MLa4PvQ7vijcp3hH9Os+H4sgLCV2AAAAAAAAx2om6XOPqsbAYfAxOnrzFU9umvV1n7ks9mqDOmXen1vktjT2vXuV+fSIR7am7NvKL1UdmnnOiQ7J2Yu51YpnqnXyjVBIChHQoAAAAEchnRjV+2W4PFZhmFrBYOzXfxF+qKbduiOMyslub3SZds7h7WZZ3aoxeaTpVpVGtFie9TH2tV0Xdh7eDymNq8xs64nFxphIqj3Fv+945+hMusarZ2S2Zt2rNOMxNOtU8sRPVH6qf2x2puXr1WCwtWlFPJVMdc9fsYpiYjhD12siwYjRXXexp5mJiYehnQAAAAAAAAAAAAAAAAAAAAAAAAAAAAAAAAAAAANODGnhZGNBjQ8zIaD5sdhbGLwteHxVi3etXI0qouU60zHemECb9N0MZdbu59svZmcPTE14jBxxmiI5zR4PAsI/O7RFdE01UxMVRpMTHBqM3ybDZnYm3dp5eqeuG3yfOsVld+Llirk646pUZEi9IzYmnZbaqMdgrfVy7MZmuiIjhbua6zT9qOlE5hgLuBxNdi7z0z/yXQGW5hax+FoxFrmqjy9QA8L3gAAAM0T1a4qjnGkwudu9x05jsRlWNqq61V7CW5qn/ABdWNfn1Uw7Vtej5em/uhyauqdaot1Uz5q6o+xYfB9dmMZdt9U06+U/urfhHs64Szc7KtPOP2dqAtlUIAAAAAAAAAAAAADxcqimiqqZiIpjWZlTbejm9Wd7wM0zGatabmJqpo1nlTTwj6PnWp3q5v+BNgM1zHXSq3h6oo8NUxpH0qcVTNUzVMzMzxmZ7Z7VZcIOM+6w0eKd0fFaPBzguW9ipjspjfPwAFYLVCImZ0iNZnsgdFumymc73i5Tl+kzRViaa7n+Wj206+PR6MLYm/fotU89UxHm82LxFOHw9d6rmpiZ8jefszc2Vz2xgK9f6TB2rsTPbVNOlX+qJc6nfphZN/uGVZ3bo0m3VVhrk6dkxrT9FSCG02gy+MBmFdmmOTkmO6Wp2azKcwyy3ernWrlie+ABo2/FrejjnH4W3V4HrV9a5g5qw9fH+7PD/AEzCqXOE39DrOIpxOaZHcr93FOItxPg4VfTHyJlsTjPkM0iieauJj288ITt5gvl8pm5EctExPs5p3p7AXUo8AAAAAAR70nu5Hj/jLP1kJCR70nu5Hj/jLP1kNTnnRmI8NW5tMi6Uw/jp3wquA55dJAAJA6MPdiwHxN70JWqVV6MPdiwHxN70JWqXJsF0XV4p3QpLhB6XjwRvkAThBgAAAAAAAAACOcoM6Zn9WyX4y59EJzjnKDOmZ/Vsl+MufRCM7XdDXvZvhJtjunLHt3SggBRLoAABOXQy/L554rX8yd6eSCOhl+XzzxWv5k708l6bH9DWvbvUDtn05e9n/rDICUIuAAAAAAAAAAAAAAAAAAAAAAAAAAAAAAAAAAAAdqKOl33O7HllH0SlftRR0u+53Y8so+iWj2j6Jv8AhlvNmemMP4oVsAc/uigAEp9ETum4n9W3PrLay3arT0RO6bif1bc+strLdq7Nh+iI75UTt301X3U7mQEwQ8AAAAAAAAAAAAAAAAAAAAAAAAAAAAAAAAAAAAAAAAAAAAAB55cVbulhtBOYbZWclt1zNnLretcRPCa6uPzQsbi7lFnC3L1c6U26JqqnvRopdtnmVzN9q8xzK7OtWIxNdccdeGvDzaQgm3uNmzgabFM/bn3R/wAhPuD7ARezCrEVRyUR75/bVrAFPLoAAbPY/IsdtJtFhsoy+jrXsRXpM6axRT21T4FudgNmMu2U2dsZXl9uIiinW5cmPbXa+2qZ76POilslTl+zlzaTF24jE5jOlmZjjTajl8vPxRCX4jhxXLsbklOEwsYq5H9SuPKOpSO2ue14zFzhLdX9OidO+evyIjTQ0l6E3QbQAGQAHnTwMsjGg/K9bou2pt3KYqoqjSqmY1idVZ+kXu+/2Yzf8M5ba0yzG3JmaYj8jcnjMeKecLOTro0+2uRYbaLZrFZRi6YmjEW5iKtNepV2THn0lotoMnt5ng6qJj68R9WfW3uz2c3MqxtN2J+pM6VR6lLh9WfZficpznFZZi6erewl2bdceKfufL2KFrt1UVTRVzw6Ft3KblEV0c0gD836Pt2czK/k+f4TNMLVNN3C3qblMxOmuk66eKeMLoZFj7GZ5Nhcww89a1irNNyifBMaqRdui0XRfzecz3Y2LFdU1XMvu1WJmeenuo+arTzLF2Axs04m5hZnkmNY74Vpwi4CKsPaxcRyxOk908ySGK/cT4mWK/cT4lrTzKkhS7eF7+s28tu+lLT9rcbwvf1m3lt30paftc3470q54p3umsu9DteGNwA8j2E8pXY2S97OA8mo9GFJ55Suxsl72cB5NR6MLK4O/vL/AHQrDhJ+7w/fPwbIBaSqAAAAAAAAAAAAAAAAAAAAAAAAAAAAAAAAAAAAAAAAAAAAAAAAAAAAAAAAAAAACOcub3s9zfOvIrnoy6SOcub3s9zfOvIrnoy8eP8ARbvhnc9WB9Kt+KN8KcgOcJ53TdPNAAwy6DdR3R8m8spXJp9zCm26juj5N5ZSuTT7mFtcH3od3xRuU7wj+nWfD8WQFhK7AAAAAACeQA89iA+mRXV+E8mo14epXJ08OsQn5X/pk/2xk/xNz0oRbbOdMmuezfCV7FdN2vbulCoCjF9gAAADY7IZXcznajAZXbiZnFYii3OkcomeM+aGud70acPTf3vZdNen9FTdriPD1Ko+1sMrsRfxtq1PNVVEe9rs2xFWGwF69Tz00zPlC0mWYW1gsDZwuHoii1ZopoooiOFMRGj9+XY9QOiqaIpiIjqc11TNUzM9YA+mAAAAAAAAAAAAAAAAAAAAAAAAAAAAAAAAAAAAAAAAAAAAHE7+8ioz3dpj7UUa3sLb9cWZ04xVTx+eNVS/CvBm1mMRlmIsVU6xctVUzGnOJiYUlzKiLWYYizEaRRdqpiO9pMwqnhBw1NN+zfpjlmJjy0/VbXBxiqqrF7D1TyRMTHt113PxAVyswAAAAWr6NczO6HLPHc+sqVUWs6NHchy3x3PrKk72A6Sr8M74V/widGUeON0u+AXCpkAAAAAAAAAAAAABD3S8zf1tshgspt1e2x1/rV0xP5tPHX5VdkmdKnN/X+8mcFRXrRl9mmjTXlVPtp+bRGaitrMZ85zW5MTyU/V8v3X7sfgvmuT2omOWr63nze4ARhKWO1MHRCyj1xtXj84ronq4OxFqiZ/vVz9MRT86INOPhWc6K2Ufg/dpRjK6OrczG9Ven/Lr1afmiPlS3YzCfOM2omY5Kdav098oftxjPm+T1Uxz1zFPxn3Q3W/vKPwxuuzSzTT1rli3F+jhrMTRPWnTzax51SPzuPYvJjLNGIwl2xcp61F2iaaomOcTzUs2ty65lG02Pyu5E64XEV244c4iqYj7G94QMHpctYmI540+PxR/g4xutu9hZnm0mPbyTuhrwFarQO12O4TOPwNvQyy/VX1bV+56hc72lUdWNfFPFx0P0wd6vD4u1iKJmKrVcVxMdkxOr2YHETh8TbvR/bMS8WYYanFYS7Yn+6JjzheWmYmInXmy1myOY0ZtszgMyonWMTh6K/PMay2UcYdGWrkXKKa45pjVzRcoqt1zRVzxOjID9HyAAAAI96T3cjx/xln6yEhI96T3cjx/xln6yGpzzozEeGrc2mRdKYfx074VXAc8ukgAEgdGHuxYD4m96ErVKq9GHuxYD4m96ErVLk2C6Lq8U7oUlwg9Lx4I3yAJwgwxrHfh5jWUXdKfNMyynZHBXctxt7C114nq1VWa5pmY0eHMMbTgsLXiKo1inqe3LsFVjcXRhqZ0mqdNUp9aO+daO+pn/tntZ/zDj/30n+2e1n/MOP8A30oV/MLC/k1ecJ1/LjF/nU+UrmdaO+daO+pn/tntZ/zDj/30n+2e1n/MOP8A30n8wsL+TV5wfy4xf51PlK5nWjvs6x30BdFbP88zXbLHWczzXE4q3Tg+tTTeudaInr08fk1T32aaJflGZ0ZlhYxFFOkT1ShmcZXXlmLqwtdUTMacset6AbRqyOcoM6Zn9WyX4y59EJzjnKDOmZ/Vsl+MufRCM7XdDXvZvhJtjunLHt3SggBRLoAABOXQy/L554rX8yd45II6GcRN7PJ8Fr+ZO2vHtXpsf0NZ9u+VA7Z9N3vZ/wCsPRq/LE3rWHtVXr12i3RTGtVVdWkRHhlHW2m+fZTJKqrGEuV5liI/Nw/Gnz1TwbvF5hhcHRxsRXFMeto8Hl+LxtfEw9uap9SStY77EzHfhWraPfxtTjetRluFwmBonhE6eqVTHn5OSzDeLtrjapm9tFjKYn82irqRHyIpidvMutzpbiavcl2G4P8ANLka3Jin26z7lwutT/egiYntUtq2q2lqqmqc+zDWeemJq+99OE252wwunrfaLHUacv6TX6Xjp4Q8LM8tmrzh7auDnFxHJep8pXKNYVZyHfVttl80xfxNjHURzi9b0qq88JC2Q3+ZNi5ps59l93A3KuE3bf8ASW9fpiG5we2WVYmYpmviz6+T3tJjti84wscaKOPH+mdfcmTWBrdns7yrO8HGJyrH2cVbnj1rdcTo2CT27lFynjUTrEorXRXbq4tcaTHVL0A/R8gAAAAAAAA8zPD7mJmdOGjGo96kzHfcztft1szs1RM5pmlqi52WaZ61yZ/ywjDanpBW6a5t5Dk9VcRPC7iaurHjiIajHZ/l2C++uxr2Ryy3OA2fzLH8ti1Mx2zyR5p1mY77HWp78KpZxvh26x2sUZlbwtM8osWop6rQ4vbba7E6ze2ix9WvP+mmPoRq9t/gKZ/p26qvck9ng7zGqNblymnzlcrr0/3oZ1jTXVSynaraWmqKoz3MNY//ACavvffg94W2uG/I7R42O/FVWur8aOELCzP1rNUe2H7V8HGMiNab1M+yVxdWNY76sWRb8tscFVTGNpwuOop7K6OrVP8A1QkHZLfxs9jpptZxhcRl1yeHX4V25nxxxiPG3eD2vyrEzEcfiz6+Ro8bsbnGFjX5Pjx/p5Uu6jX5Hm+W5xgoxOW4yzirVUa9a3VEvvjRJaLlNdPGpnWJ64Reuiqiri1RpMdrID7fIAAAB2oo6Xfc7seWUfRKV+1FHS77ndjyyj6JaPaPom/4ZbzZnpjD+KFbAHP7ooABKfRE7puJ/Vtz6y2st26q09ETjvMxP6tufWW1lefBdmxHJlFPfKidu+mq+6nc9Gsd94uV0UUzXVXFNMRrMzPBwW3G9rZLZ25VYpxU5hiqJ09Sw3ttJ8NXKElxeOw2Eo49+uKYRnCYLE4uv5OxRNU+pIBqrjtFv92hxM1UZRl+GwdHZVcjr1fJycbme8nbfH11Te2hxVFNX5lrSiI+RFMTt3ltueLbia+7kS7C7AZrdjjXZiiPXyz7lv8Ar0/3oOtT34UtubVbS11zVVn2YTM8/wDeKvvfthNtNrMNVE2docwpmP8A78z9LwxwhYbXlsz5w2E8HGL01i/T5SubqKpZHvi24y6qnr5jRjKI504i31ut5+bvtk+kBg7tdNraHKa8Prwm9hp69PnieLb4PbTKsRPFqqmifXHJ5tNjdiM3w0TVTTFcf6Z5fJN2sd9nVpdldp8i2jwnq+UZhZxNOms001R1qfHHY3EJRavW7tMV26tYnsRO7auWqpouUzEx2vQD9XwAAAAAAAAETDz26a/ITpEA9DVbR7QZNkWEnEZtmNjC0R/fr0mfFHajHavf5kmEqqtZLgL+Orjlcue0o1+nRrMdnGAwMf8AUXYieznnybPA5Pj8fP8A01qao7erzTGawrBne/HbLG1TGF9aYKieyi31p+WXOYzeNtviZn1TaPGxE/m0VRTEfJCM39vcuonS3TVV7kpw/B9mlyNblVNPt1XB1jvs6x31Mv8AbTaz/mLMP38vpwm8TbbDaepbSY2Ij82aomJeenhBwkzpNmrzh6auDnGxGsXqfeuIKvZHvv20wM0xia8LjaKecXLfVqnzw7zZTf8AZPiZptZ7lt/BVTzuWv6SiJ+lt8HtllOInizXxZ9fJ72mxexec4aJqi3xo/0zr7udMprDUbM7RZNtBhIxGUZhYxNExr7SvWY8cc4bXWNOcJNbu27lPGoqiYnsRa5auWqpprp0mOqXoB+j4AAAAAAAAAAAAAAc1vcx85bu5zfGUzMTRhao4eHh9qnUcvD2rV9JW/6jujzCInT1WaKPlqhVRUXCBdmcdao6op3yuLg5taYG7c65q3RAAgCxB9WR4GvMs7wmX2tevir1Nmnx1TEa/O+SecO06PmEjG728poqiJpt113Z4a+5onT59Huy+x8vi7Vr8VUR5y8GZ4j5vgrt6OqmZ8oWqyPA2MtyjD4HDW+paw9mm3RTHZERo+uI49r1HIdGUURRTFMc0Oaa6pqqmqecAfTAAAAAADz2cYNPG9DGgrV0sskjL9urOa2qOrRmVnWqY7a6NImPk0+VFSw/TDwcXNkstx2nGxi5txP+amZ/lV44xzhRm1uFixm1yKY5J5fPnX3sZipxGTW5qnWadafKeT3Ace8eZGNErI5px6G+PmL2cZbNU6TFu9TT4Y1ifpj5EG9vNK3REvTRvExVvX2t3BVRp4Yqpn70j2UuzbzizMdc6Ivtha+UyW9GnNET5SsqxX7ifEyxX7ifEveeZQMc6l28L39Zt5bd9KWn7W43he/rNvLbvpS0/a5vx3pVzxTvdNZd6Ha8MbgB5HsJ5Suxsl72cB5NR6MKTzyldjZL3s4Dyaj0YWVwd/eX+6FYcJP3eH75+DZALSVQAAAAawMc2NYOVjV61gafabaXItn8NN7NszsYWnsiuvjPijnKMdqt/wDlOHqrtZFlt7F1RyuXvaUT9rVY7OsBgfv7sRPZzz5NrgMlzDH+j2pmO3mjzlM2saMax31Xs633baY2qr1vXhcFRP5tu11pjzy53GbxNtsVM+q7SY6In82iqKYj5Eav7fZdROluiqr3JRY4PszuRrcqpp9uq4fWjvs6qZf7abWf8w5h+/l9WE3ibb4bSLe0mN0p7Kq4qiflh+FPCFhJnltVecPTVwc46I1pvUz5rh6ir+Sb8Ns8FVEYmrC42iOy5b6sz54d5srv+ybEzTazzLr+Crn/ANS1/SUR9rb4TbHKcROk18WfXGjS4zYvOcNE1Rb40f6Z193OmTWO+aw0+zO0eSZ/hov5TmVjFUz/AHK9ZjzNt2+NJrd2i7Tx7dUTHbCL3LVy3VxK6ZiY6pegH6PgAAAAYmYiOMwTwabb+9cw+xeZ3rNdVFyjCXJoqp4TTPVmYl+d258nbqrnqh92qJuXKaI65bnrU9+DrR31Mo202s098GYfvpZ/2z2s/wCYcf8AvpQGeELCxOnyNXnCw44OcXMa/LU+UrmdaO+daO+pn/tntZ/zDj/30n+2e1n/ADDj/wB9LH8wsL+TV5wz/LjF/nU+UrmdaNdNYZ1jvqkbA7XbT39usmsX8+xty3czCzTXTVemYqibkaxPg0lbSmPa8Z11hJsjzy3m1qq5RTNOk6cqK59kN3J7tNu5VFU1RryPYQN60QAAAAADE1RHOYJqiOcwivpU5rmWU7I4G7luMvYW5XiurVVZrmmZjRA87abWTPHaHMP38ojm+11jLMVOHrtzMx1wmGS7H4jNcJGJouRTGsxpOvUuZ1o751o76mf+2e1n/MOP/fSf7Z7Wf8w4/wDfS1X8wsL+TV5w2/8ALjF/nU+UrmdanXTWDWO/Cmf+2m1musbQ4/8AfyknoubRZ3mu3+Iw+ZZti8VajL66oou3OtGsXKOPyTL25dtrh8biaMPTamJqnTXWHgzPYfFYDCV4qq7ExTGumkrCAJsg4AAAAavM8Hi9dtWbdVy7cpoopjWZqnSIfM1REayREzyP1Edba74tkchrrsWcRXmOJo4TbwvGmJ8NXJGW0e/raTF1VU5XgsNgqOVNVUTXVoj2O2qyvBzNNVzjVdkcqR4DZTNsbEVUW+LT21cn7rI6x32OvT/ehUDMd4+22Nmqb20OLopq/Moq6sR8jW1bVbS1VzVOe5hMzxmfXNX3tBc4QcJE/Vs1T7YSK3wc42qNa71MeyV0utT34Z1Uzwe221uEmJw+0OPpmOX9NM/S6LI9822+X1Uxdx1rGURzi/ajWr/qh+tjb/AVT/Ut1U+9+V/g8zGiNbVdNXnC1WsCFdkt/wDl2Imm1n+V3MLM87tievT8nNKmzW0OS5/hIxOU5jZxVE8+pXrNPjjnCU4DOsDj4/6e5Ez2c0+SJ5hkmYZfP/UWpiO3njzbXWNebnN7Pc3zryK56Mui4fI53exMRu3zrhzwVz0ZejH+iXPDO55MD6Vb8Ub4U5Ac4TzunKeaABhl0G6juj5N5ZSuTT7mFNt1HdHybyylcmn3MLa4PvQ7vijcp3hH9Os+H4sgLCV2AAAAAAAAK/8ATJ/tjJ/ibnpQsAr/ANMn+2Mn+JuelCK7Z9DXO+N8JXsV03a9u6UKgKNX2AAAAJD6L3ddwfxN30ZR4kPov913B/E3fRluMg6Vw/ije0u0fRGI8E7lpwjkOhHOYAAAAAAAAAAAAAAAAAAAAAAAAAAAAAAAAAAAAAAAAAAAAADxd/J1eKVIs9/t3G+U3PSld69+TnxSpDnv9u43ym56Uq24RPu8P/5fBZvBt97iO6n4vlAVYtkAAAAWs6NHchy3x3PrKlU1rOjR3Ict8dz6ypO9gOkq/DO+Ff8ACJ0ZR4o3S74BcKmQAAAAAAAAAAAB+OLvU2MLcvXJ0pt0VVT4ofro4/ftm/4F3X5piaa+pcuWvUbcxziqrhH0vNi78YfD13quamJnyejB4erEYiizTz1TEearG2OZV5xtTmGZ11dacTia64n/AA68Pm0a3tBzjeu1XblVdXPM6umbFqm1bpt080REeQA/J+r9MLZuYjFWsLap61y9XTRRT36quS6WyOW28n2awOV2YmKMNh6aI4d6FWNw2T/hrenlliqjrW7Fc4m5Hgo4+l1VuY4RHiWrwf4Ti2buJmOfSI9nOqPhGxnGv2cLE80cafbzbirXSdFYelRlEZfvMqxlFGlGZWKb2sf3o9pV6MT51nuzVD3S+yf1xslgc3t0a1YLETRX/lrjn8sR8re7YYP5xlFcxHLRpP6+5H9jMZ82zi3GvJVrT583v0V4AUavwABZ3osZvOY7tbeDrq/pMuu1WtNfzdetH0ykvvaQrv0Qc49bbVY/Jq6tKcZY9UojXnXRPH5pn5FiIhfOyuM+c5TanriNPL9nPm1mC+a5xepjmmeNHt5d+r0AkaOAAAACPek93I8f8ZZ+shISPek93I8f8ZZ+shqc86MxHhq3NpkXSmH8dO+FVwHPLpIABIHRh7sWA+JvehK1SqvRh7sWA+JvehK1S5Ngui6vFO6FJcIPS8eCN8gCcIM8xwRD0wPebgfKvsS8iLpge8rAeV/Y0O03RF/u+MN9st0zh+/4K6AKBdEAAJc6H+n+3OP1/Qf56VjVcuh97+cf5D/NSsb2Lu2J6Ho753qH256bud0bmQEuREjnKDOmZ/Vsl+MufRCc45ygzpmf1bJfjLn0QjO13Q172b4SbY7pyx7d0oIAUS6AAATj0NPy+eeCLX8yRN6G8XJdjcNNN+uMTjq6f6PC259tPj70K+7sNu7uxmR5vRgrfXxuOiimxVMe1tadbWqflcnmuOxeZY+7jcdfrv379XWuV1zMzV93iT7DbVxl+T2sNhvvOXWezln3q7xWyM5lnd3FYnktcmkddXJHudHvC3g7R7XYmr17jKrOF1nqYWxM00R4+/Pjcr2fP4wQrE4u/irk3L1U1VT2p3hcHh8Jbi1YoimmOxiNe05sjz6vTp1gDAAM6nI2Gzee5vkGPpxuU4+7hb1M6zNFU9Wrxx2p83Tb6MFnNdvLNo4t4LG1cKL8Tpauz3v8M/MrmRrz1005cfn8DeZRtBjctuRNurWnrpnmaDOtnMDmluYu06VdVUc8fqvTRXTVTFVNUTExrrDOquu4Xevdyy/ZyDaTETXgq5inD4m5Os2fBVP936O1Ye3couURXRXFVNURNMxOsSujJ85w+aYf5W1Ok9cdcKPznJsTlWI+RvRydU9Uw9gNu1AAAABrDGsac4Y1ieWnFxG9/eHl2xmXdTrU38yvR/Q4amePgqq70PNisXZwlmq9enSmHowmEvYu9TZsU61TzOg2w2mybZnK6sdm+Mos26eVOvtq570R2q/7yN9We51XcwmRdbLMFxp69P5a5Hj/ADXB7X7RZttNm1eYZti679yZ9rEzPVtx3qY7IapUeebY4nGTNvDTNFHvlcWQbE4XBUxdxcRXc90fq9X7t2/equ3rldy5VOtVVU6zV49XnxghVVc1TrPOnVNMUxxaY0gNAY1fQaeEGA4gM6saNjs1n2cbP42MVlGYXsLc14xRVPVq8ccpTnus334PMa7WX7U0UYTEVcKMVT+Srn/F/dlXs7dY7+vPk3WVZ/jstribVWtPXE8zRZvs5gM0omLtOlXVVHPH6+1eexetXrNN21cprorjWmqmdYmHuZjvqubmd6eP2VxFvLs0uXMVlFU6TTMzVXY8NM97vwstk2Y4LNcts47AYii/h71EVUV0TrExK5Mkz7DZra41udKo54/51KUz3Z/FZRe4l2NaZ5qo5p/d9oDetEAAdqKOl33O7HllH0SlftRR0u+53Y8so+iWj2j6Jv8AhlvNmemMP4oVsAc/uigAEpdEbul4mddNMtufWW047w9tcl2Py31zmV6Ju1x/RYemda7k+CPtVm3S7XU7GZ1jM1pserXrmBqs2KezrzVRMdae9wlpNpc5zLPs2u5lmmKrxGIuzrM1TwpjvRHZCd5btRRlmTxYs8t2Zn2K8zLZS5mud1X706WYiO+e51G8fehtFtXeuWfVpwOAmfa4ezVp1v8ANPbLiNPn5zp2gh+Lx2Ixdybl+uapTfB4DDYK1FrD0RTAA8ur2ADAQcQZ1Y0fTlGY4/K8bTi8vxl7DX6J9rct1zEpu3Ub7qbtdvLNrYot1Twpx1EaUz/njs8ccEEET3ucNvleeY3LbkVWauTrieaWmzbIMFmluab9PL1THPC82Fv2cTh6b1i7Rct1xrTVTVrEx34l+kzERzVe3Hb0MXsrjLeV5rduX8ouTERrrM4ae/T/AIe/Cy+W4vDY/CW8VhL1F6zeoiqiuidaao78SujJM9w+a2OPb5Ko547J/RR+e5Dicov/ACdyNaZ5p6pj9X1AN40YAAABqxMxpzY1lo9utqMq2UySvMc0vU0U08LduJ9tdq71Md9+V69bs25uXJ0pjnl+lmzcvXIt241meaIbLNsfg8swFzGY/EW7Fi1GtddyrSIhCG87fnXXVXgNkrfVp40zjbtPHx0R9so73n7f51tnmNVeJuVWMFRP9FhKKtKaY8OnOXJxKqs920vX5mzgZ4tPb1z3di29n9hbNmmL2YRxqvw9Ud/bL684zPH5rjKsVmWMvYq7VOvXu1zVP/Z8oIBXcrrq41c6ysO3at26eLRGkeoAfOr9J5QBgIAZ1k0fTlGZY/K8ZTi8txl7C3qZ4V265pn5kzbrt+VdFdvL9rbcTTOlMY21T6cfahAbbLM8xuXVxVYr5OyeaWmzTIcDmVviX6OXqmOePavDleOweY4OjF4HE2r9i5GtNy3VExPnh9Gsd+FRd1e8LN9jMwj1OurEZfcn+mwtVWseOnvStDsZtHlm0+SW8zyu/Fy3XGlUfnUT2xMdkriyHaPDZrb0jkuRzx+iltoNmsVlFzWfrW55qv19bdDAkaNasgDIAAAAAAAAACOelH3JsV8db9JVtaTpR9ybFfHW/pVbU5t70nT4Y3yung96Lq8U7oAEGT0SJ0W4/wDm1hfiLk+LgjtInRc7rWG8nu/Q3Oz/AEpY8Ub2l2j6IxHhnctMA6Dc5gAAAAAAAAAOM307HYrbbZW3lWFxtvCV28TTe69yiaomIiqNNImP7yLZ6POc9bSNosHMd/1vV/7lhRo8w2cy7H3vlsRRrV3t7l+0mZZfZ+Qw1elPPzRKvf4vOdf8xYP+Hr/9zH4vOdf8xYP+Hr/9ywo8P0Myb8ufOXv+m2d/mx5Qr1+LznWvvhwf8PV/7nVbnd0mY7GbW/hjEZth8TT6jVbmii1NM8dO3VLY/fDbK5Xhr1N63RpVTOscsvPitrM2xVmqzdua01RpPJAxX7ifEyxX7ifEkU8yNwpdvC9/WbeW3fSlp+1uN4Xv6zby276UtP2ub8d6Vc8U73TWXeh2vDG4AeR7CeUrsbJe9nAeTUejCk88pXY2S97OA8mo9GFlcHf3l/uhWHCT93h++fg2QC0lUAAGsGsd95iY7dHO7xdsMq2PyScwzG9HWq1izYpn292rvRH095+N+/bsW5u3Z0ph+tixdv3KbVqNap5ohtc9zTAZPltzHZjirWHsWo1qquVaQgreZvxxWKqrwOylubFnjTOLuR7erw0x2eOUfbyNt872xzSrEY+9NGHpq1s4WiqYot+btnwuZ4qoz3bO9iJmzgp4tHb1z+i3Mg2HsYemL2O0qr7OqP1fTmeOxuY4qrE4/F3sTeqnWqu7XNUz8r5wQOu5VXPGqnWfWsKi3RRTFNMaR6iAHzq+55QBgDnIM6mj6cpzDH5XjacXl+MvYW9TPC5armmfm5pi3Zb9MRYqt4Ha216rbnSmMZZj20eGqnt8cIUG1y3O8bl9yKrFc6dnVPsafM8iwOZW5pxFEa9sckx7V3cmzLA5rgLeMy/FW8Rh7tOtNdurWJh9msd9T3dpt3nOxmaU3sFdm7ha6v6fCVzPUr8PgnwrR7AbV5TtdkVGZZXdideF2zM+3tVdsSt/INpMPmlPFn6tzs+MKY2h2YxOU18b7Vuear4S6DWB5mY4cme2UnRhkAGJ4y0e8j3iZt5Hc9GW8ho95HvDzbyO56MvNjPRrndO56MH6Rb743qZRygI5QObqp5ZdOU/ZgAfL6bndx3Qcj4f/uWH+spXOo40xw7FMd3PdByP9ZYf6ylc+17iPEtng99FveKNynuEb02z4fi9ALDV0AAAAAAh/pha/wCxmA8r+xXXtWK6YXvLy/yv+VXVSe20/wDd6u6Ny8dguhqe+reAIemp2pU6IenslYrh/wDttf1ltFaVOiF3SsV+ra/rLbf7M9L2O9G9rOhb/d8VlgF+ufQADWO+aw86xrwnm4DfZvHwmxmW+tsNVRezW/T/AEVnXhbj+/X4O9Ha8uMxtnB2ar16dKYerBYO/jL9NixTrVLa7ytvsk2MwHXx12LuJrp/ocLbmOvX90eFXLeNvJ2k2tv10X8ROFwWs9XC2KpinT/FPOZcxneZY/N8yu4/MsTcxGIvVa111zrx8XZHifJxmOCm882qxeYVTRbni2+zt7115Bshg8uoi5diK7vb1R3M/wDnnARKZ1TCI05gBhkAZ1B9eRZtmOT46nF5ZjL2Fu0zrFVuuY1nw998g+7dyu3VxqJ0n1PzuWrdymaa41j1rAbpt9ljHV0ZXtZ1bF+fa0YynhRX/mjs8fJIm9K5bu7ss4uWq6a6KsDcmmqmdYnWmeKnfiiOevidzsbvHzDLtkcfszmdy5icDicNXbw9UzrVYqmnhGvbT9CfZVtjcnD1YXGzrrExFXr061c5zsVRTiKcVgI00qiZp9vPH6OGAV9POsmOYAYZdBuo7o+TeWUrk0+5hTbdR3R8m8spXJp9zC2uD70O74o3Kd4R/TrPh+LICwldgAAAAAAACv8A0yf7Yyf4m56ULAK/9Mn+2Mn+JuelCK7Z9DXO+N8JXsV03a9u6UKgKNX2AAAAJD6L/ddwfxN30ZR4kPov913B/E3fRluMg6Vw/ije0u0fRGI8E7lp45BHIdCOcwAAAAAAAAAAAAAAAAAAAAAAAAAAAAAAAAAAAAAAAAAAAAAHm9+TnxSpDnv9u43ym56UrvXvyc+KVIc9/t3G+U3PSlW3CJ93h++r4LN4NvvcR3U/F8oCrFsgAAAC1nRo7kOW+O59ZUqmtZ0aO5DlvjufWVJ3sB0lX4Z3wr/hE6Mo8Ubpd8AuFTIAAAAAAAAAAADHgQj0xc46mXZZkdFfG9cqv3IieymNI188/Mm1VXpJ5v8AhXeti7dFetvA0U4emNeETEdafl1+ZEdtMX8hlVVMTy1Tp+vuhMNiMF84zeiqY5KImr4R75cCApFewAzoJu6HWUdfGZrnlymJiiKcPbq05T7qr5pp+RPUc3BdG7KJyndbgKq6dLuN1xFff9tOsfNpDveemi/dmsJ81yq1RPPMaz3zyud9psZ87za9cieTXSO6ORmXN72cpnPN3ebZdTbmuu5h5qtx366fbU/PEOleblPWtzT340bfEWab1mu3VzVRo02HvVWb1F2nnpmJ8lFxvd5mUzke3ua5X1erTYxNXqcacqKuNPzTDROccRYmzeqtVc9MzHk6Zw1+m/You081URMe0Afg9Do90ub/AID3iZVmHX6tEX4ouz/hqnqz9K4tM6xHhhRi3VVbuU10zpVTMTTPemJ1XK3Z5rGd7C5ZmXW1qvYenrT/AIojSfoWjwfYzWm7hpnm0qjdPwVRwj4LSqziojtpnfHxb8BZasAAAABHvSe7keP+Ms/WQkJHvSe7keP+Ms/WQ1OedGYjw1bm0yLpTD+OnfCq4Dnl0kAAkDow92LAfE3vQlapVXow92LAfE3vQlapcmwXRdXindCkuEHpePBG+QBOEGeURdMD3lYDyv7Euoi6YHvKwHlf2NDtN0Rf7vjDfbL9M4fxfBXQBQLogABLnQ+9/OP8h/mpWN7Fcuh97+cf5D/NSsb2Lu2J6Ho753qH246aud0bmQEuREjnKDOmZ/Vsl+MufRCc45ygzpmf1bJfjLn0QjO13Q172b4SbY7pyx7d0oIAUS6AAAAGdQB+uAwmLxuIjD4PDXsRdq4Rbs25rqnzRxfVFuqueLTGsviuuminjVTpD8h22T7p9ucxiKoyacNTV+diLsU6+OOMw2U7j9uYpmepgOHexM/c2lvIczuRrTYq07mpubRZTbni1YinXvRuOrz7dpttlNFVzEZFiLlqPz7Gl2PkpnVy12iu3XVbuUVUV0z1ZpqjSYnvTDx4jBYjDTpeomnvh7sNj8LiaeNZuRV3Tq8gR4Xm07Xq1AHyyx/54k89GTeHXiIp2Tzm/NVyiP8Acrtc8aqf7kz3+8gd+uX4rEYHHWsXhbtVu9Yriu3XTOk0zHJuclza7luLpvUTydcdsNLnuT2s0wdVmuOXnpnsleXWO+OY3UbT2drNi8JmtOkXpp6mIo19xcjhMfa6WZ4r8w9+i/apu0TrTVGse1zxiLFzD3arVyNKqZ0n2PQD935GsGsPPa+TO8xwuVZVfzHG3Yt2MNbmu5VPZEQ+K64opmqrmjnZopqrqimmOWeZze93bfBbF7N14quabmNuxNOFsTPu6u/Pg7ZVS2gzTHZ1nF/M8yv1X8TiKtaqpnl4u9ENpvN2qxe1+1d/NMRMxa16mHt6/krevCPG59SG0+fV5niZoon+nTPJ6/XK99ldnqMrw0V3I/q1Ry+r1QHIEW1S0Dtfvl+DxWPxdGEweHu4i/cnSi1bpmqZ80PqmiqqqKaY1l81V00U8aqdIh+AljYrcRn2Y0U388xVvLLc8fUqYiu74p7I+dIOV7iNisPaiMV69xdURxqrvzRr+xok+D2OzXE0xVxOLHrnT3Injdt8owtU0xXNc/6Y1jzVm+wWlv7lNgblERGXX6JpjqxNOKucPnc3tJ0fsru0VV5JmuIw1zspv0xco+yfnem/sLmtqnjU6Vd0vNh9v8pu1aV8anvj9Ffh1O3u73abZOarmZYL1TDRP9asa129PD20+dy30IricJfw1fyd6maauyUuwmMsYu38pYqiqntgAeZ6hIe4jeNf2RzeMBmFyu5lGJr0uRVOs2ap/Pjwd+EeD3YDH3sDiKb9mdJj397w5jl9jH4erD341ifd64Xlwl+zicNbv2LlNy1dpiqiumdYmJ5Tq/VBvRX25qva7I5lfmquiJqwNdU8ZiOM0fbHnThK+8ozO3mWEpxFvr547J63PWcZZdyzGVYa71c3rjql6AbNrDtRR0u+53Y8so+iUr9qKOl33O7HllH0S0e0fRN/wy3mzPTGH8UK2AOf3RQAAa8dAZidAB7wti/icRRZw9q5duVzpRbopmqqrxRHN9U0VVTEUxrL5qrppiZqnSI7XiYnvDsci3W7b5lTFVrJLmHoq/OxFUW9PHHP5m7jcVtxNnr65ZrE+59c1a+jo2lrIczuxxqLFUx3NRd2hym1Vxa8RTE96Mx2Wd7q9ussiquvJK79unnXh6oufNzcji8PfwuIqsYqzcs3aPdW7lE01R44l5MRgMVhp/rW5p74e3C5hhMVH9C5FXdOr8w7OBDyaPZAAwCW+jVvCryjMaNmc2vTOAxVemFrrnhYrn83X+7M/OiQpmaautTMxMTrExz78TDZ5XmV7L8VTftTyxz+uOxq83yuzmWEqw92OSeb1T2wvTFUTGsTGjOsOA6P+107VbD2/XNzrY/L9LOJ151cPa1+ePniXfL/AMFi7eLw9F+3zVRq52xuEu4PEV4e7GlVM6MgPU8wMMVVRTRNVUxERGssa6c5HK1m1+e4DZzIL+bZjdiizYp18NU9kR35lUveZthmW2W0NeYY2uaLVMzThsPE+1tU+Dw990vSJ26ubT7TVZZgrsxlmX1zTT1Z4XbnbVPfjsj5Uc9inNrtoasZfnDWav6dPvn9F07GbN04GxGMv0/1aub/AExPxnrDmCEap5pAMcuPY9UU1VVRTTEzVMxEREcZ15M8XWYiGJqiI1lgSFsNud2s2gopxF+1TlmFqj3eJievMeCiOPyzCSck3A7N4eimcwzDG4u5pximqLdHmiI1+dIsDspmuMpiqm3xY7Z5EZx22GUYOqaKrnGq7KeX9ldBaKrcfsF6n1YwWJir+966ua/S0ee9H7I79FVWV5ri8LXPuYuRFyiPNwn53vu7C5rRTrTET7Wvs8IGUV1aVcanvj9FeR223e6vazZiivEXMJGNwdH/AK+GiaurH+KnnHzw4nnyRfF4HEYSviX6Jpn1pZg8fhsbb+Uw9cVR6viAPI9g6jdXtrmGxuf0YqxXXXhLkxTicPrwrp8Edkx2OXHpwuLu4W7TdtTpVDzYvCWcXZqs3qdaZXZ2YzfBZ5k1jM8vv03sPfoiqiqPnifC2EaK0dGnbqvItoIyDH3tMvx9eluap4WbvKNO9FXJZamYmImJXvkOb0ZnhIux9qOSY7Jc+7QZNcyrGVWavszy0z2x+r0A3jSAAAAAAAAAAI56UfcmxXx1v6VW1pOlH3JsV8db+lVtTm3vSdPhjfK6uDzourxTugAQZPBInRc7rWG8nu/QjtInRc7rWG8nu/Q3Oz/SljxRvaXaPojEeGdy0wDoNzmAAAAAAAAAAAAAAAAMV+4nxMsV+4nxMTzEc6l28L39Zt5bd9KWn7W43he/rNvLbvpS0/a5vx3pVzxTvdNZd6Ha8MbgB5HsJ5Suxsl72cB5NR6MKTzyldjZL3s4Dyaj0YWVwd/eX+6FYcJP3eH75+DZALSVQGsMS/O9cptWqrlyqmmmmJmqZ5RHfYmYiOUjWZ0ajbraXL9ldnb+b5jciLduNKKO25V2U0+GVTNvtp8y2s2hu5nmF2Y63CzZifaWaOymI/8ANW/38bcV7X7VVW8Ldq/BmCmaMNRE8K55Tc8/Z4I8LhOccFMbWbQVY/ETh7M/0qffPb3di7dj9m6cvw8Ym9H9Wr/bHZ39rICGapxoAMMgeM8zOgDE8iDSBkY7ebJoxqAMMkcY4t9u72szTZDPqMwy+5PVmYi/YmfaXqO2Jjv96WhH74fE3cPdi7anSqOaXnxGFtYi1VZuxrTV1Ln7DbRYDafZ+zmuX3Yrt3YjrU9turtpnww3OvNVXcDtxXsntVThsVdq/BuOqii/Trwt1dlfmnn4/AtTbrortxXTVFVNUaxMTrExK9Nnc6ozTCRXP26eSY/52qB2kyO5lOMm3/ZVy0z6v1h7ASFH2IaPeR7w828juejLeQ0e8j3h5t5Hc9GXlxno1zwzuejB+kW/FG9TKOUBHKBzdVzy6cp+zAAw+m53c90HI/1lh/rKVz7XuI8SmG7nug5H+ssP9ZSufa9xHiWzwe+iXvFG5T3CN6bZ8PxegFhq6AAAAAAQ/wBML3l5f5X/ACq6rFdML3l5f5X/ACq6qT236Xr7o3Ly2D6Gp8U7wBD00EqdELulYr9W1/WW0VpU6IXdKxX6tr+stt/sx0vY70b2s6FxHdG9ZYBfrn0GJea66aaJqqmIpjjMz2MTI5nettdhNjdlLuY3Ziq/XHUw1qedyueX3yqVtBmmOzrOL+Z5jfm7iL9XWqqmeEa97wR3nWb/AHa65tTtxeos3JnAYCZs4amJ9rVP51Xnnl4vC4eeeik9rM8qx+Lm1bn+nRPnPXK89jsgpy7BxeuR/UrjWfVHVH6scWQRHVMwAAOPOG42e2U2jz3T8E5NisTTVyuU0TFH7c8H62cPdvVcW3TMz6o1fjexFmxTx7tUUx650acSLgdyO3eJoiqvD4PD69l7ETw/ZiWMw3J7d4a3M28LhMTp2WcRz/aiGz+j+a8XjfIVadzVfSTJ+NxfnFPmjsbbaLZjaLIZ0zfKMVhY5deu3rRP/XHBqezWWsvWLtmriXKZifXGja2cRavU8a3VFUeqdSQH5av20AGAAB0G6juj5N5ZSuTT7mFNt1HdHybyylcmn3MLa4PvQ7vijcp3hH9Os+H4sgLCV2AAAAAAAAK/9Mn+2Mn+JuelCwCv/TJ/tjJ/ibnpQiu2fQ1zvjfCV7FdN2vbulCoCjV9gAAACQ+i/wB13B/E3fRlHiQ+i/3XcH8Td9GW4yDpXD+KN7S7R9EYjwTuWnjkEch0I5zAAAAAAAAAAGNY77HahfpE7wdpNltq8LgcmxNu1ZuYX1SqKrVNU9brTHbE95r8zzKzl2Hm/e+zHY2GWZbfzHExh7GnGntTUKr+zTt58IWP4aj7j2aNvPhCx/DUfcjH09yvsq8ko+gGb9tPn+y1Aqv7NG3nwhY/hqPuPZo28+ELH8NR9x9Pcr7KvI+gGb9tPn+y1Aqv7NG3nwhY/hqPuPZo28+ELH8NR9x9Pcr7KvI+gGb9tPn+y1Aqv7NG3nwhY/hqPuPZo28+ELH8NR9x9Pcr7KvI+gGb9tPn+y1Aqv7NG3nwhY/hqPuPZo28+ELH8NR9x9Pcr7KvI+gGb9tPn+y1Aqv7NG3nwhY/hqPuPZo28+ELH8NR9x9Pcr7KvI+gGb9tPn+y1Aqv7NG3nwhY/hqPuPZo28+ELH8NR9x9Pcr7KvI+gGb9tPn+y1Aqv7NG3nwhY/hqPuPZo28+ELH8NR9x9Pcr7KvI+gGb9tPn+y1Aqv7NG3nwhY/hqPuPZo28+ELH8NR9x9Pcr7KvI+gGb9tPn+y1Aqv7NG3nwhY/hqPuPZo28+ELH8NR9x9Pcr7KvI+gGb9tPn+y1GprCq3s07ea6/hCxr5NR9yb9wW0Wa7T7CUZnm92i7iJv10damiKeEVaRwiIbPKtqMFmV/5CzE8bTXlhq822Wx+V4eL+Imni66ck9bugEkRsAAAAAAAAAB5vfk58UqQ57/buN8puelK7178nPilSHPf7dxvlNz0pVtwifd4fvq+CzeDb73Ed1PxfKAqxbIAAAAtZ0aO5DlvjufWVKprWdGjuQ5b47n1lSd7AdJV+Gd8K/wCEToyjxRul3wC4VMgAAAAAAAAAAAPjznGW8DlWJxl2qKaLFqquZnwRqpVnOMuZhnGKzC7rNeKvV3aomdeNUzOnm1iFn+knm/4K3W46imqIuY6Yw1Ea6TPWnj82qq/aqjhAxfGxNvDxP2Y1n2rb4OcFxcPexMx9qYiPZz7/AHACullj6skwdeZZvhcBaiZqxV+m1GkcutMR975dI00d90aso/Cm9HCXaqdbWBoqv1TPf00j55e/LMNOJxluzH90xDXZri4wmBu35/tiZ/RaHJsJRgcqw2EtURTRZtU0UxHZpD6ojgzHCNB0VRRFNMUx1Oa6qpqqmqesAfbCt/S5yj1ptthM2opmKMfh+rVMRzronT6JhEqy/Swyj1/u7ozCijWvLcRTXwjj1avaT88xPmVoUdthg/m+bVz1VfW/X3r32JxvznJ6Inno+r5c3u0AEUS87VjuiRnE4zYjE5Zcr1rwGI9rr/dq4xHm0lXFKPRPzf1jvCuZdXXMW8ww80xGvDrU8Ynx80o2RxnzbNres8lX1fPm96J7Z4P5zk9zSOWnSry5/dqsyAvRQoAAAAj3pPdyPH/GWfrISEj3pPdyPH/GWfrIanPOjMR4atzaZF0ph/HTvhVcBzy6SAASB0Ye7FgPib3oStUqr0Ye7FgPib3oStUuTYLourxTuhSXCD0vHgjfIAnCDPKIumB7ysB5X9iXURdMD3lYDyv7Gh2m6Iv93xhvtl+mcP4vgroAoF0QAAlzofe/nH+Q/wA1KxvYrl0Pvfzj/If5qVjexd2xPQ9HfO9Q+3HTVzujcyAlyIkc5QZ0zP6tkvxlz6ITnHOUGdMz+rZL8Zc+iEZ2u6GvezfCTbHdOWPbulBACiXQAAAdhHeSz0b93FGe4qNo85s64DD16Ya3VH5euJ5z/hiezvtjlmW3swxNOHs88+6O1rM1zSxlmFqxF6eSOaO2eqH4botz2YbR0W8zz2q5gcuq0qotaaXb0T2+CPnT9ststkezuBjDZRl1nD0xGnWpp9tV4ZnnLb26IopimmIiKY0iIj5HtduUbP4LLbcRRTrV1zPP+yic42hxuaXJm5VpT1Uxzfu8xHDSGdI7zI3zRPM0xVTpMax2uV273ebNbV2Kox+Aot39NKcTZiKLkeeOceCdY8DrB+GIwtnE0TRepiqPW/fD4m9hrkXLNU0zHYqPvW3cZxsVivVLkeusurq0tYqiOEf4ao/Nn5nGru51l+FzTLruBxlmm9YvUTTXRVGsVRKqW+bYjEbFbTTh6etXgMTrVhLtXejjNM+GPoVFtTsv/D/+ow8f055/V+y4dktq5zH/AKXFT/Vjmnt/dx4CDp8RyOwGdWNO1LnRL2inA7V4jIL13SzmFHXtRM8rlPZHjp9FY3tUq2JzOrJtr8uzOmvqRhsTRXVP+HXSqPk1XSw1yL2HouUzrFdMVQuHYPHTewFViqeWifdP/JUtwgYCLGY036Y5Lke+P20foAnSBscEGdLXa6qi1Y2SwdzSbul/GacJ6uvtKfPMa+aE2Y7EW8Lg7mIuVRTRbomqqZ5RGime3mdXtotrsfm96qZ9c36qqIn82nlTEf8ATEQhW22ZzhcD8hROlVfJ7OtN9hMqjF5h8vXGtNvl9vV+rUgKZ1XeHboPeGs3cRfow9q3Ndy5VFNFMc5meTNNM1TERzy+aqopiap5obbYbZnNdq89t5XldnrV18blyY9pap7aqvB4Fo92mwGSbHZZTawmHpu4uqn+mxVyNa65+yPA/DcrsXY2P2UtWqrcTj8RTFzFXNOPWmPc+KOTtI4QujZjZq1gLNN+9Gt2qPL1R61HbVbUXsxvTYs1aWaZ8/XPq7INPMxMS9CZIY8zwjgTM9V6GNB+OKw9rE2KrOItUXLdcaVU1RrEoF367oacFavZ/svY/oada8Tg6YmZo051UeDvx8neT/2PNdMXKZiqNYmNJhqs2yfDZlYm3ep5eqeuG1yjOcVleIi7Yq5OuOqe9Rjt0EldJDYejZjaSnNMvtdTLszqmYpp5WrvOqnwRPP5e8jXnKiMxy+7gcTXh7vPS6ByzMbWYYSjE2uaqPKewAeBsH1ZLj8TlWbYfMcHcmi/hrkXLdUTppMcf+2i4uwOe2NpNksHnFiadMTbiaqYn3NX50fLqpgnXogbQ60Zhs3fuT7X/eMNEzy7K4j5p+VOth8zmxjZw1c/Vr3oBt9lUX8DGLoj61v/ANZ5/KdPenUBcSmDtRR0u+53Y8so+iUr9qKOl33O7HllH0S0e0fRN/wy3mzPTGH8UK2AOf3RQAAEpB3B7AVbYZ9OLx1uYyrA1R6tP/Fq04UR82vg8b24DAXcdiKbFmNZl4cxzCzgMNViL06RT/zT2vO6HdZmm2FVONxNVWCyuJ/LTHtr3+SPtn51idi9itndl8HFnKsut26p93eqjrXK58NU8ZbnA4Wzg8NRh8Napt27dPVpppjSKY70Q+jtldmTbN4PLbcTxeNX1zPP7OxROd7TY3NLk8ari0dVMc3t7WOrGnLQmHoSPRHNHnTwNDthsbs/tLhKrObZdavTMaU3Or1a6Z78VRxh0A/G7h7V6jiXKdY9b9rN67Zriu1VNMx1wqzve3UZpsnFeYYDr47K4nWbkRM3LMf4u/HhR3HJeTF2beIsVWb1EV2640qpqjWJhWLpB7vv9lM4/CWW25/BeNrnqxp+Rr7afFPYqranZWMHTOLwkfU647PX3Lb2R2uqxlUYPGT9fqnt9U+tHACvljAAO/6OG0c5DvHw9i7c6uFzL/drsa8OtPGmf2oiPFMrU66xr31G8LeuYfFW8Raqmmu1VFVFUc4mJ1ifmXT2SzGjN9mcBmdv3OKw1F2I72tMTp862NgMdVXh7mFqn7PLHt/dUHCJgKbeJt4qmPtxpPfH7bmzAWIrhhHfSO2tq2a2IqsYS71cbmMzZtTE8aY09tV8mvnSHVwp5qrdJHaGc83k4ixbudbDZbHre3ETw60cap+Xh5kY2rzOcDltU0TpVVyQk+yOVRmGZ0xXGtFP1p9nN73ATrxn/wD3/uc/ACjON1yv7iwByDQ1fRlOCxeZZnZwOBsVX8RiK+rbt086p/7Qsnub3T5bszhreYZtboxmazGvWmNaLHgojv8Afqa3ow7C0ZZksbTZjZ1xuMp/3eKo/JWufyzz+RL8cVtbJ7M27NmnF4mnWurliJ6o/VTm2G1NzEXqsFhatKKeSZjrn9CmnqxpHCI4EPQn+ivWNCYZGR+ddEV0zTVTrTOsTExzRFvq3QYTNbF3ONmbEYfHxE13MPTwoxHf8VU9/lPb30wk8muzHK8NmFmbV+nWOqeuO578uzPFZdfi9h6tJ7Oqe9RjEWbtjEV2L1FVF23VNNdFUaTExziY77wnHpT7DW7duNrcts6a1dTHURHDvRX9k+aexB089VE5xlV3LcXVh6+rlie2HQGSZvazXB04i33THZIA1TbkVVUTTXTVMVUzExNPCYnXWJhbHcHtX/tTsHYu36+tjcH/AEGJ781Rynzwqb2JN6LW0M5TvA/BlyvTD5pb9T014RcjjT8sa/Ml2yGZzg8xpomfqV8k/D3obtrlUY3LKrkR9e3yx3dfuWeAXcosAAAAAAAAABHPSj7k2K+Ot/Sq2tJ0o+5Nivjrf0qtqc296Tp8Mb5XVwedF1eKd0ACDJ4JE6Lndaw3k936EdpE6Lndaw3k936G52f6UseKN7S7R9EYjwzuWmAdBucwAAAAAAAAAAAAAAABiv3E+Jliv3E+JieYjnUu3he/rNvLbvpS0/a3G8L39Zt5bd9KWn7XN+O9KueKd7prLvQ7XhjcAPI9hPKV2NkvezgPJqPRhSeeUrsbJe9nAeTUejCyuDv7y/3QrDhJ+7w/fPwbIBaSqHmPCi7pP7WTkmyEZRhLvVxea60TNM6TTaj3U+CZ4RHj8CUZnTXjyhUrf3tBVtBvKx1yiuarGDr9bWI7NKeEzHjq1nzwim1+ZfMsumKJ0qr+rHx9yWbG5XGPzSma41oo+tPw97jJ56gKP1XzoAMMj9sBg8VjsXbwmDsXb965VpbtW6Zqqq80Po2ZybMM/wA7sZXllmbuIvVRFMRyp78z3oWk3Tbusq2Ny2mqm3TfzK5T/T4maeMz3qe9CSZBs5fzW5rH1aI55/T1oxtFtNh8ntxH2rk80fGfUi3YHcPmmOooxG0eL/B9qePrexEVXNPDPuYnzSk3It0Gw2WUR/8ACKMXV21YqZua+aeHzO9Fs4HZnLMHTHFtxM9s8sqgzDafNcbVM13ZiOyOSHN/7A7FdXT/AGVyn+Do+5pc93PbD5lEzGVRhK5jhVhapt9XzRw+Z3w2F3K8Fdp4tdqmY7oa21mmOtVcai9VE98q6be7h82y+3XidnMV+ELVPH1vdiKbungnlM/IiXG4XEYPF14bF2Lli/anSu3cpmmqme9MTxheRw29zdxle2eXTXTTThcxt0z6liYp5/4atOcf+QhOd7EWa6Ju4Hkq/D1T3didZDt5ft1xazCeNTP93XHf2wqePs2hyrHZLnN7LMysVWcThq5pqpnlwjXWO/Ex2vjjSY1VZctVW6porjSYW1bu0XaIronWJ6wB+b9Dt1jx8FnOjNtZVtBsVGXYu7NeMyuItTNU8a6PzavpjzKxy7jo97Qzs/vIwk119XD46fW97vceU/L9qT7K5lOBzGiZn6tXJPt5kV2uyuMfllekfXo5Y9nPHthbLWB5iaZ0nVnReigiGj3ke8PNvI7noy3sc5aLeR7w828juejLzYz0a54Z3PTg/SLfijeplHKAjlA5uq55dOU/ZgAYfTc7ue6Dkf6yw/1lK59r3EeJTDdz3Qcj/WWH+spXPte4jxLZ4PfRL3ijcp7hG9Ns+H4vQCw1dAAAAAAIf6YXvLy/yv8AlV1WK6YXvLy/yv8AlV1Untv0vX3RuXlsH0NT4p3gCHpoJU6IXdKxX6tr+storSp0Qu6Viv1bX9Zbb/Zjpex3o3tZ0LiO6N6ywC/XPrzrx4uH6QO0U7O7usVXaudTE4uPW9nSeMTVzmPFGsu4lXzpg5tN7P8ALclor9rYtVXrlPfmZ0p+aKmg2lxs4PK7tymfrTGke1vtmMDGNza1aqj6uus+xDXbrzn/AM4nb4wUHq6H0jTQAYZO192zuT5lnua28tyrC3MTibs8KaeyI5zM9keF8+W4TEY7HWcFhLVV2/iLkUW6Kfzpla3c3sHg9jdnqKepTczK/TFWKv6c5/ux3ojvJJs7kFzNr8xzW6eefhHrRjabaK3lGHjTluVc0fGfU57djuWyfJbdvHbQUUZnj4iJimqNbNqe9ETznwz8yUbGHs4a1FGHtU2qI/Npp0j5n7i6cDlmFwNuLdijSI8/NR2PzLF4+7NzEVzMz5R3QxEcDTgyPc8Gj58VhrOKszaxNmi7bmNJprp60THiRTvS3JZXmlFzHbMxTl+M91NiOFm5Pi/NnxcPAl4a/H5XhMdbm3fo19fX5tjl+aYvL7sXcPXMT7p74UgzvLcdlGZ3cvzLDXMPiLNWlVuvnHemJ7Yl8i1W+/d9htsMjrxGHt00ZrhqdcPc093/AIKvBP0qs4qzdw+JuYe/RNu7armiuirnTMc1LbQ5FcyrE8WeWieafh3rx2a2gt5xhpq5q6eePjHqfmAjqSgAOg3Ud0fJvLKVyafcwptuo7o+TeWUrk0+5hbXB96Hd8UblO8I/p1nw/FkBYSuwAAAAAAABX/pk/2xk/xNz0oWAV/6ZP8AbGT/ABNz0oRXbPoa53xvhK9ium7Xt3ShUBRq+wAAABIfRf7ruD+Ju+jKPEh9F/uu4P4m76MtxkHSuH8Ub2l2j6IxHgnctPHII5DoRzmAAAAAAAAAAwrd0vOG3uC8ij06lkp5wrd0v/f9gvIo9KUR225Moq743pfsNy51R3TuRMApLVe+gAxqaABqaABqaABqaABqaABqaABqaABqaABqCzfRS47raPKbvpKyLOdFDuWUeVXfSlNthOXNZ8M/BBeEDomPFHxScEchcykwAAAAAAAAAHm9+TnxSpDnv9u43ym56UrvXvyc+KVIc9/t3G+U3PSlW3CJ93h++r4LN4NvvcR3U/F8oCrFsgAAAC1nRo7kOW+O59ZUqmtZ0aO5DlvjufWVJ3sB0lX4Z3wr/hE6Mo8Ubpd8AuFTIAAAAAAAAAADFU6ce8MIB6YucRczHK8joqifUqasRdp70z7Wn+ZCfa6/frm/4a3oZpfpqiq3ZuRYt+CKI0mP2tXIuf8AaLF/Oszu3OrXSO6OR0Rszg/mmU2bcxy6az3zygDRt+d9PfQ8yiLeV5nnddGk37sWLc9+KeM/PM/IgTl4lutx2UfgXdlleEqo6t2u16tdj/FV7aU32Fwc3sym7PNRGvtnmQTb7G/I5XFmJ5a509kcsuwAXKpQABp9ucrpzvZHMcqrjhisNXbjwTpwn5dJUvvUVW7tduuJproqmJieEwvNVGsTE9qoO+3KPwJvPzXC00zTbrvzftz4K/bzEeeao8ytuEHB627WJiOb6s+3lhZnBxjdL17Cz1xFUezkn4OVAVYtobbYTNK8m2xy3M6JmPW+JpqnjprGuk+bSWpPFw7de8/axdm1dpuU88TE+T8b9mm9ZqtVc0xMea82Gu03sPRdoqiqmumKqZ779NXJblM3/DW7TK8ZNWtymzFq5GvKqnhP0Os04ujsLfpv2KLtPNVET5uZsVYqw9+uzVz0zMeTID0PwAAEe9J7uR4/4yz9ZCQke9J7uR4/4yz9ZDU550ZiPDVubTIulMP46d8KrgOeXSQACQOjD3YsB8Te9CVqlVejD3YsB8Te9CVqlybBdF1eKd0KS4Qel48Eb5AE4QZ5RF0wPeVgPK/sS6iLpge8rAeV/Y0O03RF/u+MN9sv0zh/F8FdAFAuiAAEudD7384/yH+alY3sVy6H3v5x/kP81KxvYu7Ynoejvneofbjpq53RuZAS5ESOcoM6Zn9WyX4y59EJzjnKDOmZ/Vsl+MufRCM7XdDXvZvhJtjunLHt3SggBRLoAABsNksov57tJgsow35TGXot696OdVXmjWVytm8swuT5HhcrwdqLdjDWooopiOyI0V36JeVxjN4d/H109anAYXWNeyqudIn5In5VluC3tg8BTbwdWJmOWqdPZCmeEHH1XMfThYnkoiJ9s/s9AJ8r8AAAB55Ty5uO337L29qdhMVhqbcTi7FPq2Gq04xVHHTz8nZvNcRVRMTHOHmxeGoxNiuzcjWKo0ejCYm5hcRRftzpVTOqjFVNVNU01RMTTOkxMcYlh0O9nLIyfeLm+ApjSi3iqqqY/wANXto+nRz08HOmJsTYv12p6pmPJ0rhcRF/D0Xo5qoifMAed6RcvdljZzDYDKMbVOs3sHbqnX/LCmi3W4rX2J8j8kp+hYnB7XPzu7T20/FW3CPRE4SxX2VTudgEchbConC9IfN/wRuszGq3X1buJpjD0ceM9edJ/wBPWVOjmujtjsxk21GAowWdYT1zYt3Iu00deqmOtETET7WY78ubjc5u++Av/wDpu/8AvQPabZrHZriqbtuqIpiNOVPNltqMDk+FrtXKKpqqnXk0VTFrfYc3e/AUfxN3/wB57Dm734Cj+Ju/+9GvoBmH46felH8xsu/Kq936qopE6M+QU5zvHtYi9R1rOW0er1R2dblSmqdzu7z4Bj+Ju/8AvbvYzYzZ3ZWq9VkeXxhqr+nqk9eqrraf5plssq2IxWGxlu9fqiaaZ15Gtzfb3C4rA3LFiiqmqqNNZ06/a6CImNPARrHf4PQs7RVgAyyAAHmAHJ758gp2j3d5jgYt9a/Tam7h5049en20RHj0086oM8IngvNdp61quJ7aZhSna7DU4HanMsHTTFMYfF3bcRH+GqY+xV3CDhKaa7OIiOWdYn2c3xWpwcYuqab2GmeSNJj28k/BrwFaLSHWbj82nJd52V4rrRFu5d9RudmlNfCfncm/XL704fH2b8axNq7TXrHZpMS9mBvzYxVu7HPExLx4/D04jC3LM81UTHnC8lM60xPfZfJk2IjF5PhcVE6xds0V/LES+rR0bRVxqYmHM9dM01TEs9qKOl33O7HllH0SlftRR0u+53Y8so+iWm2j6Jv+GW62Z6Yw/ihWwBz+6KAAfpgrF3E4y1hbFE13L1cUUUU85qnkuJu22cw+zGx+Dym1THWt24m9XEaTXXPGqZ88q2dHrLIzTevllFdMVUYeasRV4OrEzH+rqrZ06a+JamwGApi1cxcxy80d3WqPhFzCqq/bwkTyRGs9/NDOh5mRY+itQBkAAedePJpdv8gw20uymLynFURMXrcxROnGmr82Y87eE8n5XrNF63NuuNYl+lm7XZuRconSYnWFHMywl3A5hfwWIomm7h7tVuuJ79M6S/B3vSTyyjLt6uOm3TFNGLoov8O2ZjjPyw4Lm52zHC/NcXcsz/bMw6TyvF/O8Fav/iiJAHhe9ieWq2PRyxc4vdDlVVU612qa7U/9NdUR82ip/Ys/0Vu5VYjn/vF2P9SdbBVzGZVU9tM74QDhDoicsoqnqr+EpLAXEphrdqswt5Vs7jsxu1dWnDWKrkz4oUrx2IuYvGXsVeq612/cm5XPfmZmZ+ldjPcswmb5Tfy3H2vVcNiaOpdt9aaetHbGsTE/O4+Nzm73tyGJ/wD5N3/3oZtRkOMzau3FmqIpp7e1M9lNosHk1Nyb1EzVVpzac0Kpi1vsObvfgKP4m7/7z2HN3vwFH8Td/wDeiX0AzD8dKY/zGy78qr3fqqlLd7uMmnaHbjLsp01pvX6fVf8AJHGfo086yPsObvut/YMaeU3f/e2Wy27rZDZzNqc0yjKfUMVTTNNNfq1yrSJ8FVUx8z04PYTF0X6K71dM0xOs9zy4zhCwleHros26oqmJiObnn2umwtijD4eizap6tFumKaYiOURwfp3ub0LVppiI0hUszMzrIA+gAAABr9oMvw+a5Ji8uxduLlnFWqrdVMx2TGimO0GX3cqzrF5Ze16+Fv1W51j+7M8fPwXdnTzKn9I7Bxg97eY9WNIvxbu6R4adJ9FXm3+EpqwtvERzxOnslYvB1jKqcXdw0zyTGvtj/wCuGAVMuEnk+vIsbcyzPMJmNqZ62FvU3I0njwnWfmfIP0t3JoriqOeH53aIuUTRVzTC8GVYmjF5dYxNuYqpu26a4mJ78PqchuLxv4Q3V5Peqr61dOHi3XOvOaeEuujhwdHYO98thqLv4oifOHMuMs/IYm5an+2ZjylkB6nnAAAAAAAARz0o+5Nivjrf0qtrSdKPuTYr4639KranNvek6fDG+V1cHnRdXindAAgyeCROi53WsN5Pd+hHaROi53WsN5Pd+hudn+lLHije0u0fRGI8M7lpgHQbnMAAAAAAAAAAAAAAAAYr9xPiZYr9xPiYnmI51Lt4Xv6zby276UtP2txvC9/WbeW3fSlp+1zfjvSrnine6ay70O14Y3ADyPYTyldjZL3s4Dyaj0YUnnlK7GyXvZwHk1Howsrg7+8v90Kw4Sfu8P3z8GyAWkqhpNv80nJdjcyzWJ0qw2Grro8NWk6fPoplcqm5XVXVVM1V1daZmeM8dZWj6T+NnC7pcZaidJxV23a4d7rdafmplVpUm3+JmvGW7PVTGvn/APFv8HWFppwV2/1zVp7Ij9wBXyxwJb3drk05/t1luVzE9S/fj1TT+5E6z8z98PYqv3abVPPVMRHtfhib9NizVdr5qYmZ9nKnnoz7FW8i2ZpzzG2v/iGY09aOtTxtW54xEePmlN+eHs02bFFqimKaaKYpppiOERppEP1dDZbgbWBwtFi3HJEec9rm7Msfdx+LrxF2dZqnyjqj2AD3vCAAxoRHDiyMaCJek/sVRm+zk7R4G1EY7Lqetd6scbtqOevi5/KrfpovJi7NGIw9dm5TFVNymaaqZjhMaaaKZbfZRVkO2eZZT1dIwuJqpt6/3OdP+mYVTt5ldNq7RjKI+1yT39S2+D3Na7tqvBXJ+zyx3dnm1ACullsdmj9MLerw+It37czFdqqmqmY78Tq8D7pq4tUTD5qpiqmYldPYnMYzfZTAZjE9b1xh6K5n/FpGvzts4Do04315ulwFFU9acPVXanzVf93fRzdF5bf+cYO1d7Yjc5ozLD/N8bdtfhqmPezDR7yPeHm3kdz0ZbyGj3ke8PNvI7noy/TGejXPDO5+WD9It+KN6mUcoCOUDm6rnl05T9mABh9Nzu57oOR/rLD/AFlK59r3EeJTDdz3Qcj/AFlh/rKVz7XuI8S2eD30S94o3Ke4RvTbPh+L0AsNXQAAAAACH+mF7y8v8r/lV1WK6YXvLy/yv+VXVSe2/S9fdG5eWwfQ1PineAIemglTohd0rFfq2v6y2itKnRC7pWK/Vtf1ltv9mOl7Heje1nQuI7o3rLAL9c+sKn9I7Fzi97mZUzOsYeKLMceyKet/Mth2Kgb7u6xnnf8AXMdv+ClAtv65jL6Ijrq+Ep/wd0ROZ3Kp6qfjDlQFQLnAATJ0S9lqMdmuK2lxdrrUYT+iw3Wj8/T20+aNPnWEhxPR8yynLN1eV0RTFNV+36vX46uP2u2pX9s3gacHltqmI5ZjWfa522mx9WNzS7XM8kTMR3Q9AN80QAAADyrh0rdlqMr2os5/hbcU2Myjq3opjSKbtMfbGvyLHz2o+6S+WU5hurxtzSOvhJpv0z/d6s8fm1R3ajAUYvK7kTHLTGsd8JFsrmFeCzW1VE8lX1Z7p/RVgBQroQAB0G6juj5N5ZSuTT7mFNt1HdHybyylcmn3MLa4PvQ7vijcp3hH9Os+H4sgLCV2AAAAAAAAK/8ATJ/tjJ/ibnpQsAr/ANMn+2Mn+JuelCK7Z9DXO+N8JXsV03a9u6UKgKNX2AAAAJD6L/ddwfxN30ZR4kPov913B/E3fRluMg6Vw/ije0u0fRGI8E7lp45BHIdCOcwAAAAAAAAAGO2Fb+l97/sF5DHpSsgrf0vpidvcDpP/ANDHpVIhtt0PV3xvS/YXpqjunciYBSS9+UADlAA5QAOUADlAA5QAOUADlAA5QAOUWc6KPcso8qu+lKscctVm+ih3LaNf0q76UptsJ0rPhn4IJwgdEx4o+KT45ALmUoAAAAAAAAAA83vyc+KVIc9/t3G+U3PSld69+TnxSpDnv9u43ym56Uq24RPu8P31fBZvBt97iO6n4vlAVYtkAAAAWs6NHchy3x3PrKlU1rOjR3Ict8dz6ypO9gOkq/DO+Ff8InRlHijdLvgFwqZAAAAAAAAAAYarbTM6Mn2Xx2ZXJ0ow2HruVeaNW0Rl0qs4/B27WrA0VaXMxvU2fD1Y9tV80TDXZriowuBu3p6omfa9+VYScXjrViP7piPZ1+5WfEXa8RirmIuz1q7tc11zPbVOus/LLx2g52qrmqqZnrdK00xTTFMc0AD5fTabFZZVnO12W5XRT15xOJopmO/Gus/NEroYO1TZw9FqiPa0URTEacoiNFaeinlHr/eROPrpibeXWJr105V1cI+bVZqOGmi39gcH8nga78xy1T7o/fVTHCFjflcwow8TyUR75/bR6AT1AAAGJV+6YeTepZxleeUUcL9urD3au9NPGn6avkWA5zojzpNZR+FN1mLv0063MvrpxNPginhV/pmUf2nwnzrKrtEc8Rxo9nKkGy2M+aZvZua8kzpPt5FWgFBuhgAFgOh7nE3cizLJblftsLdi7bp1/Nqjj88JpVY6Meb/AIM3o4fD11zFrH0VWZjXnVzpWn7V37GYz5xlVETPLTPF/T3SobbbB/Ns4rmOauIq/X3wyAlqJAACPek93I8f8ZZ+shISPek93I8f8ZZ+shqc86MxHhq3NpkXSmH8dO+FVwHPLpIABIHRh7sWA+JvehK1SqvRh7sWA+JvehK1S5Ngui6vFO6FJcIPS8eCN8gCcIM8oi6YHvKwHlf2JdRF0wPeVgPK/saHaboi/wB3xhvtl+mcP4vgroAoF0QAAlzofe/nH+Q/zUrG9iuXQ+9/OP8AIf5qVjexd2xPQ9HfO9Q+3HTVzujcyAlyIkc5QZ0zP6tkvxlz6ITnHOUGdMz+rZL8Zc+iEZ2u6GvezfCTbHdOWPbulBACiXQAACb+hpRTGMzyvT23Usxr4PbSnrtQR0Mvy+eeK1/MnenkvTY7oa17d8qB206cvezdDICUIuAAAAEgCqHSSiPZczHhprTb+XquE11l3nST7ruY/wCW36Lg5c8550nf8U73R2QdFYfwU7oAGpbgW63FdybI/JKVRVutxXcmyPySlYPB96bc8PxhXPCP6DZ8XwdhHII5C21PsTEycoZGNBgZGdB40770RxYnmx1scz0awxqxwZZehjicRhkY4nEGRjicQYucKJ8SmG8fuhZ5+s8R9ZUudX7mY8CmO8bjvBzzT4SxH1tSvOEL0Wz4vgsbg49NveH4tMAqZcITykJ5S+qftQxVzSudu6qqr2FymqqdZnB2vQhu45tJu294eU+R2/Rhu+86RwXo1vwxucw4v0ivxTvZ7UUdLvud2PLKPolK/aijpd9zux5ZR9EtZtH0Tf8ADLa7NdMYfxQrYA5/dFAAJR6JFFNe869Mxxoy+5Mft24+1ZiOatPRE7puJ/Vtz6y2st2rs2H6IjvlRW3c651X3UsgJghwAAAAACtnS709kDCTy1wX80ooSt0vO6Dg/Io9KpFKgtp+l7/f8HQmyfQtju+MgDQJEdiz/RV7lNjyi79MKwLQdFXuU2fKLv0wm+wfSk+Gd8IHwhdFU+ON0pKAXKpV57eBPi5PQxoMDIzoPPZ4CI8JEzManNj1sep6HlmeXYzqyyMcTiMMjHE4gyMcQGJ004qudKTutX/Jbf8AMtHwVd6Us/8Azav+S2v5kJ276KjxR8U42A6X/wDGfgjkBTK7wAFo+i1VNW6HB9aZ4Xr0R4ouSkbsRx0WO5Fg/j7/ANZKSI5y6GyLovD+GN0Ob8/6VxHjq3yANs1IAAAAAAACOelH3JsV8db+lVtaTpR9ybFfHW/pVbU5t70nT4Y3yurg86Lq8U7oAEGTwSJ0XO61hvJ7v0I7SJ0XO61hvJ7v0Nzs/wBKWPFG9pdo+iMR4Z3LTAOg3OYAAAAAAAAAAAAAAAAxX7ifEyxX7ifExPMRzqXbwvf1m3lt30paftbjeF7+s28tu+lLT9rm/HelXPFO901l3odrwxuAHkewnlK7GyXvZwHk1HowpPPKV2NkvezgPJqPRhZXB395f7oVhwk/d4fvn4NkAtJVCJemBVMbvMHETMRVmNGvh/o7k/Yrd+ash0wu57gv1lR6FxXCOSltuZ/7t/4wu7YCP+0f+UgCGJwdqSuirYou70qLtXGbGGrqp8c8PtRrHJKHRN7plfklX2N5s5ETm1jX8UNDtPMxk+I0/DKzQDoBzuAAAAAAxPGFXOlJhqbG9i/cpiI9cYe3cnwzpNP8q0SsnSx7qVPkVv0q0L26picq5eqqE12BqmM45OumfgjIBS68QAFlOiNcqq3b3aJ5U42vTzxCVOKKeiJ3O7/ltf2JY7XQGznRNjwudNpI/wC8YjxSxDR7yPeHm3kdz0Zb2OctFvI94ebeR3PRlssZ6Nc8M7mswfpFvxRvUyjlARygc3Vc8unKfswAMPpud3PdByP9ZYf6ylc+17iPEphu57oOR/rLD/WUrn2vcR4ls8Hvol7xRuU9wjem2fD8XoBYaugAAAAAEP8ATC95eX+V/wAquqxXTC95eX+V/wAquqk9t+l6+6Ny8tg+hqfFO8AQ9NBKnRC7pWK/Vtf1ltFaVOiF3SsV+ra/rLbf7MdL2O9G9rOhcR3RvWWAX659Y7FQN93dXzzymPRpW/7FQN93dXzzymPRpQDhA9At+L4LC4OekLvh+MOVAVEuQJ5BPKWaeeGKuaVzN28abB5VER/9JRp8je9rSbtveJlXklv0YbvvOkcF6Lb8MbnMWM9JueKd7IRyHqecAAABie1zO+C3Td3ZZ3bq10qwVzXT/K6eOcub3s9zfOvIrnoy8eYeiXY/0zuerA+l2p/1RvU5Ac4Tzum6eaABhl0G6juj5N5ZSuTT7mFNt1HdHybyylcmn3MLa4PvQ7vijcp3hH9Os+H4sgLCV2AAAAAAAAK/9Mn+2Mn+JuelCwCv/TJ/tjJ/ibnpQiu2fQ1zvjfCV7FdN2vbulCoCjV9gAAACQ+i/wB13B/E3fRlHiQ+i/3XcH8Td9GW4yDpXD+KN7S7R9EYjwTuWnjkEch0I5zAAAAAAAAAAeZ11c1tfsHsztPjqMZnOWxiL1ujqU1deqnSOfZPhdOPyvWLd6jiXKYmPW/Wzeu2K+Paqmme2J0cF7DmwPwNH72r7z2HNgfgaP3tX3u9Hi/g+X/k0+T2/wAYzH8+rzlwXsObA/A0fvavvPYc2B+Bo/e1fe70P4Pl/wCTT5H8YzH8+rzlwXsObA/A0fvavvPYc2B+Bo/e1fe70P4Pl/5NPkfxjMfz6vOXBew5sD8DR+9q+89hzYH4Gj97V97vQ/g+X/k0+R/GMx/Pq85cF7DmwPwNH72r7z2HNgfgaP3tX3u9D+D5f+TT5H8YzH8+rzlwXsObA/A0fvavvPYc2B+Bo/e1fe70P4Pl/wCTT5H8YzH8+rzlwXsObA/A0fvavvPYc2B+Bo/e1fe70P4Pl/5NPkfxjMfz6vOXBew5sD8DR+9q+89hzYH4Gj97V97vQ/g+X/k0+R/GMx/Pq85cF7DmwPwNH72r7z2HNgfgaP3tX3u9D+D5f+TT5H8YzH8+rzlwXsObA/A0fvavvPYc2B+Bo/e1fe70P4Pl/wCTT5H8YzH8+rzlwU7ndgezJY/e1fe6bZLZ/LNmspjLcpw0WMPTVNfUiZnjM6zzbcfrYy7CWK+PatxTPqjR+F/MMXfo4l25NUeuZkAe15AAAAAAAAAAHm9+TnxSpDnv9u43ym56UrvXvyc+KVIc9/t3G+U3PSlW3CJ93h++r4LN4NvvcR3U/F8oCrFsgAAAC1nRo7kOW+O59ZUqmtZ0aO5DlvjufWVJ3sB0lX4Z3wr/AIROjKPFG6XfALhUyAAAAAAAAAA89nJXPpeZx652wwWUU1z1MFYmuqInh1q54fNT86xlyqKaKpmeUaqcb1c2qzveLm2Y6zNNeJqptz36Kfax80a+dB9u8Z8ll0WY56590c/wTrg/wXy2aTemOSiPfPJHxc8AptdgAQSsX0RMn9bbG4rNq6fbY6/1aJ049WiNPp1S7rwRhuz252F2e2Fy3Kq9oMJFyxYiLmk/nTxn52+9lLYONf8A9RYX5V85NicDhMvtWfladYiNeWOeedz5neGx+MzG9f8AkqtJmdPqzzRyR7nZjjPZT2D/AOYsL+0eynsH/wAxYX9ptP4pgfzqfOGr/hWP/Jq//MuzHGeynsH/AMxYX9o9lPYP/mLC/tH8UwP51PnB/Csf+TV/+Zdl28nxbQYG1mWSYrL79HWt4mzVbqjvxMTDmvZT2D/5iwv7TE709g9PfDhf2v8As+K8xwFdM0zdp5fXD6oyzMKaoqizVrH+mVT8ywtzBZliMFejS5h7tVuv/NTOkvxdRvkv5Vid4uY47JcTbxGDxVcXqarc6xEzT7b54mfO5eOSgMbaptYiuimdYiZjXt5XROAvVXsJbuVRpMxE6T1cgA8j2Ps2ex1eWZ5g8wt1dWvDX6LkTHgnWfm1XUyvE0YzLcPirUxNN61TXE+ONVH+1a/o7ZxGb7rcBVXX1ruFibFzWeOtPL5tFj8H2M4t+7hp641j2c6s+EbB8azZxURzTMT7ebc7sBaqpQABHvSe7keP+Ms/WQkJHvSe7keP+Ms/WQ1OedGYjw1bm0yLpTD+OnfCq4Dnl0kAAkDow92LAfE3vQlapVXow92LAfE3vQlapcmwXRdXindCkuEHpePBG+QBOEGeURdMD3lYDyv7Euoi6YHvKwHlf2NDtN0Rf7vjDfbL9M4fxfBXQBQLogABLnQ+9/OP8h/mpWN7Fcuh97+cf5D/ADUrG9i7tieh6O+d6h9uOmrndG5kBLkRI5ygzpmf1bJfjLn0QnOOcoM6Zn9WyX4y59EIztd0Ne9m+Em2O6cse3dKCAFEugAAE5dDL8vnnitfzJ3p5II6GX5fPPFa/mTvTyXpsf0Na9u9QO2fTl72f+sMgJQi4AAAAACqPST7ruY/5bfouDl3nST7ruY/5bfouDlzznnSd/xTvdHZB0Vh/BTugAaluBbrcV3Jsj8kpVFW63FdybI/JKVg8H3ptzw/GFc8I/oNnxfB2EcgjkLbU+AAawxExPKXi5ct27c13K6aaaY1mZnhEIf3q77MFlk3ct2XppxmKj2tWJq/JW58H96fma/MM0wuX2vlMRVpDYZbleLzG98lhqNZ90d8pWzrNsuynBzicxxtnDWqY1mu5XFMfOjXarfrszgKqrWV2r+ZXI5VUU9WiJ8dXZ4lftpc+znP8bVis2zC9iblU6x1656tPginlDXTwhW+Y7eYq5M04SiKae2eWVnZbwe4a3pVjK+NV2RyR586V833+bVX5mMBgMBhaZ/vRVcn6YaLEb39vbtfW/C9NvwUWaYj59XCiK3tos1vTrVfncldnZrKLUaU4en2xrvdv7Le3vw5P7mj7j2W9vfhyf3NH3OIH4/xrMfzqvOX7fwHKv8AHp8odv7Le3vw5P7mj7j2W9vfhyf3NH3OID+NZj+dV5yfwHKv8enyh2/st7e/Dk/uaPuPZb29+HJ/c0fc4gP41mP51XnJ/Acq/wAenyh2872tvdNPw5OnxNH3OOzLF38dj7+NxVfql7EXarl2f71UzMzPyy/EefEZhisTEReuTVEds6vVhstweFmarFuKZnsjQAeN7QnlITyl9U/ah81fZlc7dt7w8p8jt+jDd95pN23vDynyO36MN33nSGC9Gt+GNzmPGekXPFO9ntRR0u+53Y8so+iUr9qKOl33O7HllH0S1u0fRN/wy2mzXTGH8UK2AOf3RQACU+iJ3TcT+rbn1ltZbtVp6IndNxP6tufWW1lu1dmw/REd8qJ276ar7qdzICYIeAAAAAArX0vO6Dg/Io9KpFKVul53QcH5FHpVIpUFtP0vf7/hDoTZPoWx3fGQBoEiFoOir3KbPlF36YVfWg6Kvcps+UXfphN9g+lJ8M74QPhB6Kp8cbpSUAuVSoABqPMzHb2I93q718l2SirB4afX+Z9lm3V7W3P+Oezxc3jxmOw+DtTdv1xER/zkevBYHE427FnD0TVVLv8AEXrOHtTcv3aLdFPOqurSIcDtZvi2NyWuqzRi6swvUx7jCx1o/a9z86vm3G3e0m1d+uczx9cYeqfa4a1M0W4jwxHuvPq5vxR26q6zLb25M8TBUaR2z+iysr4PKIp4+Or19VP6/ombO+kFmlyqqnKMlsWafza8RXNU/sxp9LnMZvr27xFfWjFYS14LeH0+mZR4Ile2mze9OtV6Y7uRMLGyuTWY0ixE9/K7f2W9vfhyf3NH3Hst7e/Dk/uaPucQPL/Gsx/Oq83q/gGVf49PlDt/Zb29+HJ/c0fcey3t78OT+5o+5xAfxrMfzqvOT+A5V/j0+UO39lvb34cn9zR9x7Le3vw5P7mj7nEB/Gsx/Oq85P4DlX+PT5Q7f2W9vef4cn9zR9zmNps7zLaDNasyzW/6viZpima+rFOscdOEeNrx+N/MsXiKOJeuTVHrl++HyrA4av5SzaimrtiNAB4WwAAWi6LHciwfx9/6yUkRzlG/RY7kWD+Pv/WSkiOcuhsi6Lw/hjdDm/P+lcR46t8gDbNSAAAAAAAAjnpR9ybFfHW/pVbWk6UfcmxXx1v6VW1Obe9J0+GN8rq4POi6vFO6ABBk8EidFzutYbye79CO0idFzutYbye79Dc7P9KWPFG9pdo+iMR4Z3LTAOg3OYAAAAAAAAAAAAAAAAxX7ifEyxX7ifExPMRzqXbwvf1m3lt30paftbjeF7+s28tu+lLT9rm/HelXPFO901l3odrwxuAHkewnlK7GyXvZwHk1HowpPPKV2NkvezgPJqPRhZXB395f7oVhwk/d4fvn4NkAtJVCJOmF3PcF+sqPQuK4RyWP6YXc9wX6yo9C4rhHJS23PS0+GF3bAdD/APlPwAEMTgjklDom90yvySr7EXxySh0Te6ZX5JV9je7N9L2PFDQbU9DYjwys0Av9zwAAAAAA8qydLHupU+RW/SrWbVk6WPdSp8it+lWhu3PRX/lCabBdMR4ZRkApVeQACyXRE7nd/wAtr+xLHaifoidzu/5bX9iWO10Bs30TY8MOdNpOmMR4pI5y0W8j3h5t5Hc9GW9jnLRbyPeHm3kdz0ZbLGejXPDO5rMH6Rb8Ub1Mo5QEcoHN1XPLpyn7MADD6bndz3Qcj/WWH+spXPte4jxKYbue6Dkf6yw/1lK59r3EeJbPB76Je8UblPcI3ptnw/F6AWGroAAAAABD/TC95eX+V/yq6rFdML3l5f5X/KrqpPbfpevujcvLYPoanxTvAEPTQSp0Qu6Viv1bX9ZbRWlTohd0rFfq2v6y23+zHS9jvRvazoXEd0b1lgF+ufWOxUDfd3V888pj0aVv+xUDfd3V888pj0aUA4QPQLfi+CwuDnpC74fjDlQFRLkCeUhPKX1T9qHzV9mVzt23vEyryS36MN33mk3be8TKvJLfow3fedIYL0a34Y3OY8Z6Rc8U72Y5BHIep5wAAACOcub3s9zfOvIrnoy6SOcub3s9zfOvIrnoy8eP9Fu+Gdz1YH0q34o3wpyA5wnndN080ADDLoN1HdHybyylcmn3MKbbqO6Pk3llK5NPuYW1wfeh3fFG5TvCP6dZ8PxZAWErsAAAAAAAAV/6ZP8AbGT/ABNz0oWAV/6ZP9sZP8Tc9KEV2z6Gud8b4SvYrpu17d0oVAUavsAAAASH0X+67g/ibvoyjxIfRf7ruD+Ju+jLcZB0rh/FG9pdo+iMR4J3LTxyCOQ6Ec5gAAAAAAAAAAAAAAAAAAAAAAAAAAAAAAAAAAAAAAAAAAAAAPN78nPilSHPf7dxvlNz0pXevfk58UqQ57/buN8puelKtuET7vD99XwWbwbfe4jup+L5QFWLZAAAAFrOjR3Ict8dz6ypVNazo0dyHLfHc+sqTvYDpKvwzvhX/CJ0ZR4o3S74BcKmQAAAAAAAAAHPbz83/AeweaZlFUU12cNV6nP+KY0j55hTeZ1qmZ1meOuvbKxfS8zj1psXhMot16VZhfia479FHGf9XVVz7VP7e4v5XMKbMT9iPfK5uD3BfJZdXiJjlrn3R++oAgawAADh3jzAzqHDvHDvAwHDvHDvABw7xw7wARy4gM6kADAdqcOh1m/Vu5nkldfPq37cT8k6fSg92fR/zeMn3pZddqqim3iapw9yZ5aVRpHzt9s3jJwuaWrmvJM6T3TyI/tRg/neUXqOuI1jvjlW3GInWInvnDRfurnlkBkEe9J7uR4/4yz9ZCQke9J7uR4/4yz9ZDU550ZiPDVubTIulMP46d8KrgOeXSQACQOjD3YsB8Te9CVqlVejD3YsB8Te9CVqlybBdF1eKd0KS4Qel48Eb5AE4QZ5RF0wPeVgPK/sS6iLpge8rAeV/Y0O03RF/u+MN9sv0zh/F8FdAFAuiAAEudD7384/yH+alY3sVy6H3v5x/kP81KxvYu7Ynoejvneofbjpq53RuZAS5ESOcoM6Zn9WyX4y59EJzjnKDOmZ/Vsl+MufRCM7XdDXvZvhJtjunLHt3SggBRLoAABOXQy/L554rX8yd6eSCOhl+XzzxWv5k708l6bH9DWvbvUDtn05e9n/AKwyAlCLgAAAAAKo9JPuu5j/AJbfouDl3nST7ruY/wCW36Lg5c8550nf8U73R2QdFYfwU7oAGpbgW63FdybI/JKVRVutxXcmyPySlYPB96bc8PxhXPCP6DZ8XwdhHII5C21Pj8MdisPg8LcxOJu0WrVqmaq66p0imO+/WqqKY1meEK5dJLeLVnGYV7NZRf8A9wwtf+83KKtPVq4/N1j82Pp8zT51m9nK8LN65z9UdstxkeT3s2xcWLfN1z2Q+LfdvVxW0uIrynJLtzD5VTPVrr10qxHj/wAPgRjy5c5BRWYZliMfem7fnWfdHcv3Lcrw2XWIsYenSI859cgDw6tiBIaMagURVXVpTEzPeiNXv1G9/wAKv9mX38lXPNTL4+VtxOk1Q8D36je/4Nf7MnqN7/g1/syz8jc/DPkfLW/xR5vA9+o3v+DX+zJ6je/4Nf7MnyNz8M+R8tb/ABR5vA9zYu/8K5+zLxx46xppzfNVuqNNY52aa6auadQB8PsJ5SE8pfVP2ofNX2ZXO3be8PKfI7fow3feaTdt7w8p8jt+jDd950hgvRrfhjc5jxnpFzxTvZ7UUdLvud2PLKPolK/aijpd9zux5ZR9EtbtH0Tf8Mtps10xh/FCtgDn90UAAlPoid03E/q259ZbWW7VaeiJ3TcT+rbn1ltZbtXZsP0RHfKidu+mq+6ncyAmCHgAAAAAK19Lzug4PyKPSqRSlbped0HB+RR6VSKVBbT9L3+/4Q6E2T6Fsd3xkAaBIhaDoq9ymz5Rd+mFX1oOir3KbPlF36YTfYPpSfDO+ED4QeiqfHG6UlALlUqasVV00xrNURB4O+h/pJ7xKslwk7N5Pe6uPv0z64uUTxsUTHKP8UtfmWY2cvw1V+9PJHvnse/LMuv5jiqcPZjWZ90drX799704aq9s/sve/pY1pxGMp4xR36aPD4UEXbld67N27XVXXXOtVdUzMzPjeZmZq60z1pmdZmZ4+GfCKLzjOcTmd/5S7PJ1R1Qv3Jckw2VYf5O1HLPPPXIA1Grc6coEcuDE6+ZnQ1ZGIk1jvx8rMW6p5Yhia6YnSZZGOtT3/nZ1p7/zs/JV/hlj5SjtA1p7/wA7HWp7/wA58lX+GT5SjtZGImO/85E6sTRVEazDPHiZ0iWQHw+gAFouix3IsH8ff+slJEc5Rv0WO5Fg/j7/ANZKSI5y6GyLovD+GN0Ob8/6VxHjq3yANs1IAAAAAAACOelH3JsV8db+lVtaTpR9ybFfHW/pVbU5t70nT4Y3yurg86Lq8U7oAEGTwSJ0XO61hvJ7v0I7SJ0XO61hvJ7v0Nzs/wBKWPFG9pdo+iMR4Z3LTAOg3OYAAAAAAAAAAAAAAAAxX7ifEyxX7ifExPMRzqXbwvf1m3lt30paftbjeF7+s28tu+lLT9rm/HelXPFO901l3odrwxuAHkewnlK7GyXvZwHk1HowpPPKV2NkvezgPJqPRhZXB395f7oVhwk/d4fvn4NkAtJVCJOmF3PcF+sqPQuK4RyWP6YXc9wX6yo9C4rhHJS23PS0+GF3bAdD/wDlPwAEMTgjklDom90yvySr7EXxySh0Te6ZX5JV9je7N9L2PFDQbU9DYjwys0Av9zwAAAAAA8qydLHupU+RW/SrWbVk6WPdSp8it+lWhu3PRX/lCabBdMR4ZRkApVeQACyXRE7nd/y2v7EsdqJ+iJ3O7/ltf2JY7XQGzfRNjww502k6YxHikjnLRbyPeHm3kdz0Zb2OctFvI94ebeR3PRlssZ6Nc8M7mswfpFvxRvUyjlARygc3Vc8unKfswAMPpud3PdByP9ZYf6ylc+17iPEphu57oOR/rLD/AFlK59r3EeJbPB76Je8UblPcI3ptnw/F6AWGroAAAAABD/TC95eX+V/yq6rFdML3l5f5X/KrqpPbfpevujcvLYPoanxTvAEPTQSp0Qu6Viv1bX9ZbRWlTohd0rFfq2v6y23+zHS9jvRvazoXEd0b1lgF+ufWOxUDfd3V888pj0aVv+xUDfd3V888pj0aUA4QPQLfi+CwuDnpC74fjDlQFRLkCeUhPKX1T9qHzV9mVzt23vEyryS36MN33mk3be8TKvJLfow3fedIYL0a34Y3OY8Z6Rc8U72Y5BHIep5wAAACOcub3s9zfOvIrnoy6SOcub3s9zfOvIrnoy8eP9Fu+Gdz1YH0q34o3wpyA5wnndN080ADDLoN1HdHybyylcmn3MKbbqO6Pk3llK5NPuYW1wfeh3fFG5TvCP6dZ8PxZAWErsAAAAAAAAV/6ZP9sZP8Tc9KFgFf+mT/AGxk/wATc9KEV2z6Gud8b4SvYrpu17d0oVAUavsAAAASH0X+67g/ibvoyjxIfRe7ruD+Ju+jLcZB0rh/FG9pdo+iMR4J3LTwA6Ec5gAAAAAAAAAAAAAAAAAAAAAAAAAAAAAAAAAAAAAAAAAAAAAPF78nV4pUiz3+3cb5Tc9KV3L0x6jXPZ1ZUjzzSc7xkxxj1zc0/alWvCJP9PD/APl8Fm8G33uI7qfi+UBVq2QAAABazo0dyHLfHc+sqVTWs6NHchy3x3PrKk72A6Sr8M74V/widGUeKN0u+AXCpkAAAAAAAANWI5avzxNym1Yru1TEU0UzMzLEzpGpETM6K0dK3OPX+8inL6a9beXYeKJjXlVV7afm6qMW020zOrOtrcxzWapq9dYmuuiZ/u9b2sfs6NXHJzxm+K+d4+7e7Zn9nSOS4SMJl1mxpy00xr3zz+8AattQNJ77GnjZ0GQGDlAA5QANQBnRjUCORpMT2mhqAMMna/TA4i5hMdZxVqZi5YuRcpmO/ExL8x90VzTVFUdT5roiqmaZ5pXY2VzCjNNnMFmFqqK6MRYpriqJ56w2Pajbou5z+E92NnC1V9a7l12qxVH92NdY+aUkzo6KyzExisFavR1xE+1zRmeFnCY27Yn+2Zj2dXuZAe94hHvSe7keP+Ms/WQkJHvSe7keP+Ms/WQ1OedGYjw1bm0yLpTD+OnfCq4Dnl0kAAkDow92LAfE3vQlapVXow92LAfE3vQlapcmwXRdXindCkuEHpePBG+QBOEGeURdMD3lYDyv7Euoi6YHvKwHlf2NDtN0Rf7vjDfbL9M4fxfBXQBQLogABLnQ+9/OP8h/mpWN7Fcuh97+cf5D/NSsb2Lu2J6Ho753qH246aud0bmQEuREjnKDOmZ/Vsl+MufRCc45ygzpmf1bJfjLn0QjO13Q172b4SbY7pyx7d0oIAUS6AAATl0Mvy+eeK1/MnenkgjoZfl888Vr+ZO9PJemx/Q1r271A7Z9OXvZ/wCsMgJQi4AAAAACqPST7ruY/wCW36Lg5d50k+67mP8Alt+i4OXPOedJ3/FO90dkHRWH8FO6ABqW4FutxXcmyPySlUVbrcV3Jsj8kpWDwfem3PD8YVzwj+g2fF8HYGsPM6akzTETPyra1U+jrpG7YzsxshOEwdemPzLW3a0njRTp7avzRwjwyq5MzMzMzM1TOuvb4XZ7+do6tpN42Mu0V9bDYOqcPh414dWnnPnq1nxOMjvqL2pzWrH5hVxZ+pRyR8ZX5sjlFOX5bTxo+vXpM+3mjy94AjCVAc/M7vcZsBe20zyb2LpqoyrCVR64qj/1J/uRPh7e89mCwV7G36bFmNapePH4+zgcPViL86U0/wDOTva7dvu+z/bLE64Cz6jhKJ0uYu7HtKfBHbVPiTnsbuU2Tym1RXmNqrNMRHGasRPtPNTySBlGXYPK8BbwWAw1uxYtxpRbojSIh9cLjyfZHA4KmKrtPHudczzR3QpLOdscwx9cxaq4lvqiOf2y1uD2eyTCWot4fKcJRTEaREWYh+34IyvT+zsN+6h9wk8YazHNRHlCLzfvTOs1z5vi/BOWfoGG/dx9zP4Jyz9Aw/7uPufYM/IWvwx5Hy138U+b4/wTln6Bh/3cfcx+Cct/QMN+7j7n2h8ha/DHkfLXfxT5vgu5VlkWav8A4fhvcz/6UKZbSxFO0WOimIiIxNyIiI5e2nSF2MT+Rq/yypPtR75cw8qu+lKueEC3RTasTTERyz8Fk8HFdVd7EcadeSPi+EBVy2AnlITyl9U/ah81fZlc7dt7w8p8jt+jDd95pN23vDynyO36MN33nSGC9Gt+GNzmPGekXPFO9ntRR0u+53Y8so+iUr9qKOl33O7HllH0S1u0fRN/wy2mzXTGH8UK2AOf3RQACU+iJ3TcT+rbn1ltZbtVp6IndNxP6tufWW1lu1dmw/REd8qJ276ar7qdzICYIeAAAAAArX0vO6Dg/Io9KpFKVul53QcH5FHpVIpUFtP0vf7/AIQ6E2T6Fsd3xkAaBIhaDoq9ymz5Rd+mFX1oOir3KbPlF36YTfYPpSfDO+ED4QeiqfHG6UlALlUq57eTtLh9ldkcVm9/SarVOlqjXTr1z7mPlU/zvMMVmubYjMcddm7iMTcm5cqme2ePDwdiVulptNVjNosNs5Yuf0WBo9VvxE8JrqjhE+KOPnRApnbXNqsVjvm9M/Uo39a69hcnjCYH51XH17m7q/UAQlOwG83d7L4/a7aazlWBpmImetfu6cLVHbPj7z97GHrv3abVuNZnkh+GIxNvD2qr12dKaeWZfhsjs5nW02aU4HJ8JVfufnVcqLcf4p7E47Dbhcpwdqi/tHiq8biI4+pWvaW6ftnzpG2H2VyjZXJreX5Vh4oiKY69yY9vcnv1T328W9kuxuFwtFNeKjj3PdCmM822xuMrm3hJ+Tt++e9o8p2M2Xy23FGDyPBW4jlpZifpfb+BMn7cqwn7ilsRL6cJh6Y0pojyhDqsViK51qrmZ75a78CZP8FYP9xSfgTJ/grB/uKWxH182sfgjyh8/L3vxz5y134Eyf4Kwf7ik/AmT/BWD/c0tiHzax+CPKD5e9+OfOWunJMnmP7Lwn7in7lWOkDYs4bevmlmxaotW6Zo0poiIjjRE8ltqlTekV3Xc2/zUehSg+3lq3Rl1E00xE8bs9Up3wfXLleZ1xVVMxxZ6/XDiQFQrmAAWi6LHciwfx9/6yUkRzlG/RY7kWD+Pv8A1kpIjnLobIui8P4Y3Q5vz/pXEeOrfIA2zUgAAAAAAAI56UfcmxXx1v6VW1pOlF3JsV8db9JVtTm33SdPhjfK6uDzourxTugAQZPBInRc7rWG8nu/QjuUidFvut4bye59Dc7P9KWPFG9pdo+iMR4Z3LTAOg3OYAAAAAAAAABrHfGo2q2gyjZzLqcdnGMowtiquLcV1xOnWnXhw8TQeyvsD2bRYf8AZr+55L2Ow1mri3LkRPrl6rOBxV6njWrczHbETLthxPsr7A/8xYf9mv7j2V9gP+Y8P+zX9z8v4rgfzqfOH6/wrH/k1f8A5n9HbGrifZY2B/5iw/7Ff3Nhszt3srtBmPrDJ83tYrEdXrep001ROnf4w+7eY4O5VFNF2mZn1w+K8uxtumaq7VURHXpLpmK/cT4mWK/cT4nsnmeOOdS7eF7+s28tu+lLT9rcbwvf1m3lt30paftc3470q54p3umsu9DteGNwA8j2E8pXY2S97OA8mo9GFJ55Suxsl72cB5NR6MLK4O/vL/dCsOEn7vD98/BsgFpKoRJ0wu57gv1lR6FxXCOSx/TC7nuC/WVHoXFcI5KW256Wnwwu7YDof/yn4ACGJwRySh0Te6ZX5JV9iL45JQ6JvdMr8kq+xvdm+l7HihoNqehsR4ZWaAX+54AAAAAAeVZOlj3UqfIrfpVrNqydLHupU+RW/SrQ3bnor/yhNNgumI8MoyAUqvIABZLoidzu/wCW1/YljtRP0RO53f8ALa/sSx2ugNm+ibHhhzptJ0xiPFJHOWi3ke8PNvI7noy3sc5aLeR7w828juejLZYz0a54Z3NZg/SLfijeplHKAjlA5uq55dOU/ZgAYfTc7ue6Dkf6yw/1lK59r3EeJTDdz3Qcj/WWH+spXPte4jxLZ4PfRL3ijcp7hG9Ns+H4vQCw1dAAAAAAIf6YXvLy/wAr/lV1WK6YXvLy/wAr/lV1Untv0vX3RuXlsH0NT4p3gCHpoJU6IXdKxX6tr+storSp0Qu6Viv1bX9Zbb/Zjpex3o3tZ0LiO6N6ywC/XPrHYqBvu7q+eeUx6NK3/YqBvu7q+eeUx6NKAcIHoFvxfBYXBz0hd8PxhyoColyBPKQnlL6p+1D5q+zK527b3iZV5Jb9GG77zSbtveJlXklv0YbvvOkMF6Nb8MbnMeM9IueKd7McgjkPU84AAABHOXN72e5vnXkVz0ZdJHOXN72e5vnXkVz0ZePH+i3fDO56sD6Vb8Ub4U5Ac4Tzum6eaABhl0G6juj5N5ZSuTT7mFNt1HdHybyylcmn3MLa4PvQ7vijcp3hH9Os+H4sgLCV2AAAAAAAAK/9Mn+2Mn+KufTCfvCgTplW5jMMmu/4LlOnnhFtso1ya57N8JVsVP8A3y17d0oSAUYvwAAAAdt0eMdRgd7eVV3a4pou112ZmeHGqiqI+fRxL6Mnxt7Ls1w+PsTpcw12m5RPhiYl7cvxEYfF2r34ZifJ4cyw04rBXbEf3UzHnC8MTGnNlqtk84w2e7PYTNsJVFVjFWqa44+5ntjx68GziXRdu7Tcoprp5YlzTcoqt1zRVyTD0A/R8gAAAAAAAAAAAAAAAAAAAAAAAAAAAAAAAAAAAAAAAAAAcyPGD4No8VRg8ixeKrqiKbNiuuZ8VMqUYu56ri7t7/iV1VfLMys50m9o6cm3fXMDbuRGJzOfUaI7Yp51T8ir8c1S7f4yi7irWHp/tjWfbot7g7wddvCXcTVH2piI9mv6gCvVkAAAAC1nRo7kOW+O59ZUqmtZ0a4mN0GWTMaazd08P9JUnewHSVfhnfCv+ETo2jxxul3wC4VMgAAAAAAAPMzw4OR35Zv+Bd1+bYqmvq3K7M2rcxPGKq56safK6/tQn0xM39TynK8loqnW9eqv3IieUUxpGvnq18zTZ/i4wmWXruvLppHfPJDcbPYOcXmlm1prGsTPdHLKAjtBz7q6NiABhlstk8hzLaPOKcsymzF3EV0zXFMzpERHhdb7DO3sxrGX2NPj4dZ0Pcn9UzLM88rpnS1TTYtzPZM8Z0+ZPuiydntkcJjsBTiMRM61c2nYrDaTbPGYDMasNhojSnTXWNeVVb2GdvPg6z+/g9hnbz4Os/v4WrG8+gWV9tXm0P8AMHNuyny/dVT2GdvPg6z+/g9hnbz4Os/v4WrD6BZX21ebP8wc27KfL91VPYa28+D7P7+H41bodvoqmIybXjprF+n71sRidgssn+6rzZjhCzaP7afL91TPYi2++BP/AO6n7z2ItvvgT/8Auo+9bMY+gOW/iq82f5hZr+Gnyn9VTPYi2+1/sWf39H3tbtVsBtXs9lVWYZrls4fDU1U01XOvTMRM8OxcSY4aOZ3vZP8Ahvd3muX00xVcrw9VVvhyqp4xPyw82L2FwVvD11WqquNETMeyHowW3+YXMTbpvU08WZiJ5OqZ71PA5yKnmnRcMTqAPllMXRAzb1DabMMmrr4YqzF2inX86nn82iw6nm57N5yTePlWN60xRN+LVzjzpq4fTouFRV1qYnnErm2ExnyuWzannon3TzKR2+wXyOaRejmuRE+2OSfg9AJsg4j3pPdyPH/GWfrISEj3pPdyPH/GWfrIanPOjMR4atzaZF0ph/HTvhVcBzy6SAASB0Ye7FgPib3oStUqr0Ye7FgPib3oStUuTYLourxTuhSXCD0vHgjfIAnCDPKIumB7ysB5X9iXURdMD3lYDyv7Gh2m6Iv93xhvtl+mcP4vgroAoF0QAAlzofe/nH+Q/wA1KxvYrl0Pvfzj/If5qVjexd2xPQ9HfO9Q+3HTVzujcyAlyIkc5QZ0zP6tkvxlz6ITnHOUGdMz+rZL8Zc+iEZ2u6GvezfCTbHdOWPbulBACiXQAACcuhl+XzzxWv5k708kEdDPhezzxWv5k7xC9dj+hrXt3yoHbPpy97N0MgJOi4AAAABPIFUOkn3Xcx/y2/RcI7vpJd13Mf8ALb9FwjnnPOk7/ine6OyDorD+CndAA1LcC3W4ruTZH5JSqKt1uK7k2R+SUrB4PvTbnh+MK54R/QbPi+DrnP7z83nItgc0zSKupXYw1Xqcz/fnhT/qmHQ9qL+lhjpwu7H1vE6eu8XbtzHfiNav5YWTm+I+b4C9djnimVYZRhoxOYWbM801Rr3aqz1zNdU1VTrNUzMzPOZlgHO81TM6ulIpiI0AHyy/bL8NdxuPs4OxT1rt+um3RHbMzOi4m7jZzC7L7I4PKsNbiJtW4m7VEcblfbM+dW/o5ZbGZb1MBFdOtGFiu9PgmI4fPK19OkRp3lrbAYCmLNzF1RyzOkd3WqLhEzCqrEW8HTP1YjWe/qGI870LGmNVbAAAAAAPzxH5Gv8AyypPtR75cw8qu+lK7GImIs1/5ZUn2lqpq2kx9VPGKsVc08PtpVtwhz/Ssd8/BZnBt99iO6n4vhAVYtoJ5SE8pfVP2ofNX2ZXO3be8PKfI7fow3feaTdt7w8p8jt+jDd950hgvRrfhjc5jxnpFzxTvZ7UUdLvud2PLKPolK/aijpd9zux5ZR9EtbtH0Tf8Mtps10xh/FCtgDn90UAAlPoh903E/q259ZbWW7VaeiJ3TMT+rbn1ltZaOS7Nh+iKe+VE7d9NV91O5kBMEPAAAAAAVr6XndBwfkUelUilK3S77oGE8ij0pRSoLafpe/3uhNk5/7Lh+74gDQJELQdFXuU2fKLv0wq+tB0Ve5TZ8ou/TCb7B9KT4Z3wgfCD0VT443Skp+eKuU2cNcu1TERRTNUzL3yc3vax1WXbt85xVFWlyjB3OpPhmmdFvYm7FmxXcnqiZ8lNYe1N69RajnmYjzVN20zS5ne1mYZrcqmqMViKq6deynXSmPk0awHOF+7Vdu1V1c8zMum7Fmm1aot080READ8X7ErR9G/ZOjZ7Yi1jL9rTG5lTF67VMcaKZ9zT8it2x2A/Ce1eXZfprGIxVFMx4OtEz80SulhLNNnDW7VEaU26IpiPBEaLH2AwFNd65iqo+zpEe3nVnwiZjXRat4OmeSrln2cz9NJI5dr0LU0VJoAMsgAAAMVclTOkV3Xs2/zUehStnUqX0iaqat7+baTE6V0ROk8vaUoLt/P/baPFG6U94POlK/DO+HFAKdXSAAtF0WO5Fg/j7/1kpIjnKN+ix3IsH8ff+slJEc5dDZF0Xh/DG6HN+f9K4jx1b5AG2akAAAAAAABHfSeoqubpsbNPKi5bqq8XWVZW736YSrGbqs5s0x7b1vNVPjjiqJHJUG39uYzCirtp+K5eDu5E5dcp7Kt8QAIEsEd50asRFje9l1Mz+WpuURr/kmfscG3G77NPwNtvleZTX1KLGKom5Peo10q+bVscqvRYx1m5PNFUb2tzixN/L79qOeaZj3Lpaj87dcV2aao4xVES9w6KidYc1zyMgMgAAAAAAB5wRJ0vLtNO77CWZ91cx9Mxr4KatfpVv4QmzpiZtTdzTK8moq/IUVX7ka9tXCPmiflQpzUhtnfpu5vXEf2xEL22Gw82clomf7pmfgcO8cO8CJJgR4oSh0SbUV7yrtcxr6ngq58XtqY+1F88kzdDnBTc2izfMJidLOHptcv71Wv8qRbL0TXnFiI7fgjW1tfyeS357Y098QsIxX7ifEyxX7ifEvmeZz9Cl28L39Zt5bd9KWn7W43he/rNvLbvpS0/a5vx3pVzxTvdNZd6Ha8MbgB5HsJ5Suxsl72cB5NR6MKTzyldjZL3s4Dyaj0YWVwd/eX+6FYcJP3eH75+DZALSVQiTphdz3BfrKj0LiuELH9MLueYL9ZUfV3FcO1S23PS0+GF3bAdEf+U/AAQxOCEn9E3umV+SVfYi+OaUOibMRvNqiZ01wlenh5N7s30tY8UNBtR0NiPCs2Av8Ac8AAAAAAPKsnSy7qVPkVv0q1m+xWPpXV01709KZ40YO3FXy1IZt1P/adf9UJpsF0zHhlGYCll5AALJdETud3/La/sSwifoidzu/5bX9iWHQGznRNjww502l6YxHikjnLRbyPeHm3kdz0Zb2OctFvI94ebeR3PRlssZ6Nc8M7mswfpFvxRvUyjlARygc3Vc8unKfswAMPpud3PdByP9ZYf6ylc+37iPEphu57oOR/rLD/AFtK6FHuY8S2eD30W94o3Ke4R/TbPh+LICw1dAAAAAAIf6YXvMy/yv7FdViumD7zMv8AK/sV1UntvH/d6u6Ny8dguhqe+d4Ah6aiVOiF3SsV+ra/rLaK0qdELulYr9W1/WW2/wBmOl7Heje1nQuI7o3rLAL9c+sdioG+7ur555THo0rf9ioG+7ur555THo0oBwgegW/F8FhcHPSF3w/GHKgKiXIE8pCeUvqn7UPmr7MrnbtveJlXklv0YbvvNHu294uVR/8AiUejDeRzdIYL0a34Y3OY8Z6Tc8U72YAep5wAAAGO1zm9jub515Fc9GXR9rnd7Mabts68iuejLx4/0S74Z3PVgfSrfijfCnADnCed03TzQAMMug3Ud0fJvLKVyafcwptuo7o+TeWUrk0+5hbXB96Hd8UblO8I/p1nw/FkBYSuwAAAAAAAGJQh0yrEzgMlxMRM6Xa6JnvcIlN+nFGPSsy6rGbsqsVRTrVg8RRXr3qZnSWg2mszdyi9THZr5crf7LXvkc5w9U9c6efIrIAoJ0OAAAAcoNeAM6saJe6Mu8CnKMbGzOa3urhMVXrhblc8Ldc/m+CJ5/8A+rE01RNOsTGk8lGKZ0qidZiYnWJjnHe8SY9zu+e7ldq3k+1NVd7DU6U2sZEdau3HZFcdseHn39Vk7J7VW7NuMHjJ0iPsz8JVftfslcvXJxuCp1mftRG+Fh9YHwZJm2XZvgqMVl2MsYqzcjWK7VcVR8z7oWfRXTXTFVM6wqyuiqiqaao0lkY1H2+GQBkAAAAAAAAAAAAAAAAAAAAAAAAAAAAAAAAAACWDVhk1h588MT4+DDL1Ew+PO8xwmVZddx2Ov0WLFiiaq6650iIhqdtdstn9lcFVfzbH27dentLNM9a5c8EU8/Orfve3k5ptpipsUxVhcrt162sNFXGv/FXPbPg+RG882kwmW2piKuNc6oj49iS5BszjM1uxMU8W311T8O18G93bDEbZbW3MfV1qcLa9phbUzwpojtnwzz+Zy0xxZFI4rFXcTeqvXZ1mqdZXxhMJawlimzajSmmNIAHmekAAAAW53C4ecNumyWzOv5CauPhqmftVJw9E3b9FqnjNdUUxoupslgPwZsvgMviP6thrdufHFMQsXg9szOJvXeqKYjzn9lacI96Iw1iz1zVM+UafFswFrqkAAAAAAAAeap049kqr9JfN4zTeri7dFetvAUUYamYnWNY9tV5+tVMeZZ/N8VbwOWYjF3qootWLVVyuqeyIjXVSnO8bczLOcXmN38pir9V2rt41TMz8ivuEDF8TCW8PE/anX2R/9WJwd4Lj4y5iZj7Mae2f2j3vmAVIuICH0ZPhK8fmuGwNqmaq8RdptxFPhnR90UTXVFMdb4uVxRTNU80LQ9GrKIyvddg7lVPVu42qb9esaTpPKJ80O/7dXyZFgqMuyfC4G3HtbFmm3Gkd6Ih9rozL8NGGwluzH9sRDmfMMVOKxdy/P90zIA9ryAAAAAADxdopuWqqKo1iqmYnXwvYxMaxoRyKX7yMqqyXbvNctmnqxZxVfUjTTSmfbR81UQ0qVulrk04LbrDZpRTpbzDD6TMR+fRwnXxxMfIilz3nWFnC5jes9kz5TzOjshxfzzLbN7XlmmPOOcAahuGbdddFymuirq101damY7J11hczd1m1Od7E5ZmcT/WMPRNXgnTSfnUy7VkeiVnE4zYS/ldyrWvLsRMUxPPq1e2j6dE92CxfyePrsTP2498f8lXvCFgvlMBRfiPsT7p/fRLIC31NiPek93I8f8ZZ+shISPek93I8f8ZZ+shqc86MxHhq3NpkXSmH8dO+FVwHPLpIABIHRh7sWA+JvehK1SqvRh7sWA+JvehK1S5Ngui6vFO6FJcIPS8eCN8gCcIM8oi6YHvKwHlf2JdRF0wPeVgPK/saHaboi/3fGG+2X6Zw/i+CugCgXRAACXOh97+cf5D/ADUrG9iuXQ+9/OP8h/mpWN7F3bE9D0d871D7cdNXO6NzICXIiRzlBnTM/q2S/GXPohOcc5QZ0zP6tkvxlz6IRna7oa97N8JNsd05Y9u6UEAKJdAAAJj6HWLpt7R5vg6quN/D266Y7/VmYn0oWGVC3HZ9Ts9vKy/GXqurYvVet78/4atNPkqiJ8Wq3UVRVTE01RMTGscVz7DYqi7lnyXXRM+/lUft9hKrObTd6q4ifLkfoAmqEgAAAEzEMTMaSTo1+1GZ4fJ8gxmZYmuKbWGs1V1zPgjV8XK4t0TXVzQ+qKaq64op55VY3/YyjGb2c2qomJi3XTbiY7dKY+9xr6c5xtzMc1xOOve7xN6q7VEzy1nl8mj5nOeYX4xGLuXY/umZdLZbh5w+DtWZ56aYjyAHie4W73FdybI/JKVRFwNy1irD7rMjtV6xVGCtzOvhjVYXB9E/PLs/6firjhHmPmdmP9XwdQhzpjVVf7LZXRE8KsXNU+amfvTJPFEHTCsdbYrL8TEfk8dFOve1oqn7E72oiZye/p2fGFf7LVRTnOHmebX4K6gKCdDgAJT6JFVEbx78V6darB1RR4+tE/QstE9qo+4LN6Mm3pZbiL09W1ermxXPZHXjSJnzrbxMTHZxXNsJepryyaI56ap19qkdv7FVGbfKTzVUx7noBNkHAAAAA5sR4wa3azH28s2ax+Y3J0pw2HruT/00zP2KVXK6q7tVdU6zVMzMz2zMrJ9KnaSnKthacntV6YnNa+rpHZbp0mqfPOkeeValR7fY2m7jKMPT/ZHL7Vw8HeBqtYO5iao+3Okd0fuAK/WKE8pCeUvqn7UPmr7MrnbtveHlPkdv0YbvvNJu294eU+R2/Rhu+86QwXo1vwxucx4z0i54p3s9qKOl33O7HllH0SlftRR0u+53Y8so+iWt2j6Jv+GW02a6Yw/ihWwBz+6KAASN0WcXRht61m3VOk4nDXLceHlVp/pWiiY7/YpXsVm1eRbWZfm1Gv8AuuIprq07addJj9nWFzcvxNrF4KzicPVTXavUU10VR2xPat3YHF014Kux10zr7JUzwh4SqjH28RpyVxp7YfTACfq/AAAANY77Gsd9iY778sVftYfD137tUUW7dE1V1T2Q+ZqiI1kiJmdIVq6V+LoxG8yLFPPDYWimrh2z7b7UYt3vEzqdoNtcyzXWepiL8zb48qI5fNDR9kOes5xNOJzC9djmmqdHSGR4WcLltmzVzxTGvthkBqm2Fn+ir3KbPlFz6VYFpei9Yqt7pcHcnX+mu3a41/zzH2JxsFEzmlXhnfCBcIUxGVU+ON0pElw3SLrqo3RZrVR20U0/LVEO5jm4zf8A2fXG6POaYjXqWOv+zOv2LSzeJnL78R+GrdKp8nmIzGxM/ip3wqSA51dKwAA6ncnNuN6+Rzc06sYrjw/wzH0rgUzEx4FJNl8dOV7SYDMNf6tiKLlU+CJ1n5tV08txFvFYGzibMxNu7RFVMx3pWxwe3qZw1211xOvnGioOEezVGLs3Z5pp08p/d9ICxFcAAAAAAPFVWkTMzppGqm+9PH05nvFzjG0z1orxddMeKnSn+VaLe7tFRszsFjsymqmL0W/U7Ed+uqdKfpU+qqqqu1V1zMzM6zVPOeOsyrLhAxtM/JYWJ5Y5Z3LR4OcFVE3sXMcn2Y3z8ABWC1QAFouix3IsH8ff+slJEc5Rv0WO5Fg/j7/1kpIjnLobIui8P4Y3Q5vz/pXEeOrfIA2zUgAAAAAAAPiz7CRjsmxWDqjWL9mqjjHfiYUozTDVYPMb+DuRpVYu1W51jvTovFw04qp9I7I5yXediq6KOrZzCPXFuY7Zn3Xzq82/wc14a3iYj7M6T7VjcHWNijF3MNM/ajWPZ/8AXBgKmXAHKdQZidGJjk0Wv3AbT07S7vsLVcuRVi8FTGHxETPGZpjSJ88afO7meapm4zbSrY7a+mvEVVTl2M0t4qmOyOyvxxr8mq12Fv2sRh6L9m5Fdu7TFVNVM6xMd9eey2cU4/A001T/AFKY0n1+tQW1mTVZbmFU0x/Tr5afjHsfuAlCLgAAAAAGsPyxV+1h8Ncv3blNFu3TNVVUzwiIjm9zohvpQbd0ZflM7LZbeicXi6f96qpnjbt97wTV9DXZrmNrL8JXiLnVzeueqGxynLr2Y4ujD2o555fVHXKG96e0NW023GPzfWZt3LnVsxryojhT80fO5/wA57xGIrv3artfPVMz5ujcLh7eGsUWbcclMRHkAPweg46rIdEfK6sJsLiczrpmKsfiZ6s6c6KI0j55qVysWq71+izRTNVddXVppiNZmVyt3mT/AIA2My7KIiNcNYpiuY7apjWqflmU+2Bwc3MdVfnmoj3z+2qvOEPGxbwFGHieWufdH76N6xX7ifEyxX7ifEt2eZTkKXbwvf1m3lt30paftbjeF7+s28tu+lLT9rm/HelXPFO901l3odrwxuAHkewnlK7GyXvZwHk1HowpPPKV2NkvezgPJqPRhZXB395f7oVhwk/d4fvn4NkAtJVCLOlphqr+7Oi7pOmHxtu5PyVU/wAytC3e/PLZzTdVnGHpp61dFj1WmPDRMVfYqH2+JT231macxpudVVO6VzcHd+mrLa7fXTVviGQEEWAx33a9H7NKcq3q5ZduVaW79VViZnlHW4Rr53Fv0wd65hsXbxFmqablquK6aonlMTq9uAxM4bFW70f2zEvFmGGjFYS7Yn+6JjzheWKonTSYZc5uy2isbUbH4PNbNdPWuW4pu06+5rj3UOidE4e9RftU3aJ1iY1c1X7Ndi7VarjSYnSWQH7PzAAAAea5iI1mYiFRd+uaU5tvUzbEUVRVRbvRYonXh7SIpn54mfOstvV2ks7K7E43NLlVPqsU9TD0TPu7lXCmPl4+KJU9v3K712u7cqmqq5VNVUzOszMzrKtdv8dTFFvCUzy887oWbwdZfVN27jKo5NOLG+XkBVq2QNeOhEdkPqIYmVneiphqrG623cmI/psVcrifBrp9iTdXK7mMunK92eUYSuJiuMPFdXjq9t9rqaXQ+T2Zs5fZonqpjc5szm9F7Mb9yOaap3na0e8j3h5t5Hc9GW8mOLVbZ2ZxGyeZWYjWa8Jcp007erL1YqJnD1xHZO548LOl+iZ7Y3qVxygKqZpmaJ50zpJyhzdVH1pdPUT9WAB8vpstjMRThNr8rxdVUU02cbZuTr2RFdMrq2aom1TOscoUYpnSetHZxXF3UZ7RtFsBluZxXFVyuzFF7wV0+1q+eFm8H2Kpiq7hp550qjdKq+EfCVTFjExHJGtM74+LpQFnqtAAAANY75rDzMasecEOdMbEUU7M5Xhpn293E1TEeKnj9KvfalLpW57RmW3dvLbNcVW8ttdWrTjHXq4z8nCEWqJ2txNOIze7NPNGkeS/djcLVh8mtRVHLVrPnP6ACMpSJU6IXdKxX6tr+storSp0Qu6Viv1bX9Zbb/Zjpex3o3tZ0LiO6N6ywC/XPrE8lQN93dXzzyn+Wlb+eSom/ezVY3t53TVE8b9Mx4YmimUB4QIn5hbn/V8JWDwdTH8Rux/p+MORAVCuUJ5AzHJLExrC4m6DFU43dvk+Ipn3eEonTvcHS9qIuiVn9GN2PvZHcrj1bLrszTTM8ZoqnWJ806wlyrn3nQ2S4qnE5dau09nvjkc3Z5hK8JmN6zV1VT5Tyx7noBtWrAAAAee1x+/nF0YXdPnNVVfV9Uw1Vumde2rhH0uxjSUL9L7P7eHyLBbPWrkeqYu56rdpjsop5a/9Uw02f4qnDZZeuT2THnyNxs/hKsVmli1T2xPsjlV+Ac+OjoAAdBuo7o+TeWUrk0+5hTbdR3R8m8spXJp9zC2uD70O74o3Kd4R/TrPh+LICwldgAAAAAAAPPFptvspjO9jsxyuqnX1zh6qY8enD59G7JjWJjvvyvWqbtuq3VzTGj9LVyq1cpuU88TrHsUYv267N+uzcjSu3V1a/G8O66Q+zk7PbxcVVapmnDY+fXFmdOETPuo80uFc6Y/CV4TFV2K+emdHSuXYyjGYS3iKOaqIkAeN7QAAACGGRnUffkOd5tkmJ9cZTmOJwdyZ4zZrmNfHHKfPqkLZffrtXl8U28zs4bMrcc5qp9TuftRw/wBKLhssHnGOwU/0LkxHZ1eTV47Jcvx0f9RaiZ7evzWY2W35bI5jNNrMPXGWXJ4T6tR1qNfBVT2eGYhIOS51lOb4aMRlmY4bFW5/Ps3IqiPkUm8b9sBjMXgcTGIwWKvYe9RxpuWa5oqjzxpKX4Hb7F2/q4m3FUerklDMdwd4S59bC3Jpnsnlj9V5NYJmIVU2V3x7a5P1aLmMt5jZp4dTFW9ZiPBVGk/LMpH2X3/5JiYpt57luJwNyedy1/S24+ir5pS/BbZZVidIqr4k+v8AVDcdsVm+F1mmjjx/p5fdzpkGh2a2w2az63E5XnOEv1aazbi5HXp8dM8YbymYqjhx8SS2r9q9TxrdUTHqnVFrtm7Zq4tymYn1xo9ax3x5007WYl+z8mQBkAAAAAAAAAAAAAAAAAAAAAAGPF85rr3mNWGRiPG83rlu1TNVddNMRzmZ0gmYiNZZjWXvWBx+1G8vYzIpmjF5zZuXY52cPPqtceOKeXnRvtP0g6taqNn8mnTsu4yrT/TT97S43aHLMHE/K3Y17I5ZbvA7OZpjZj5G1OnbPJHvTvVVFMazMRHflodpdstmchpqnM85wliunnRNzWufFTHFWHafeXtnns1Ris5vWbVU6+pYb+ipj9nSZ88y5S5XVXVNVddVVU9szMyiOO4QKI5MLa19c/omOA4ObtXLi7unqp5ffKwe1O/7JcNFVvI8txGNrjlcvf0dE+LnM/MjjajfFtrm/Wps46jL7NXDqYSjqzp4ap1q+TRwIh2N2pzTF8lVzix2RyJpgdkcowmkxa409tXL+z9cZicTir9eIxWIuX7lfGquuuaqp8Os835A0FVdVc61TrKR026aY0pjSAB8PsAAAAAZ05GNXV7k8nqzveXlWEmnW3Rfi9d73Vo9tPy6aedb23woiO8g/oh7OVUYXG7S4i3MTen1vhpmOcRpNcx59I80pw7V1bE4GcNlkXKo5a519nV/z1qM25zCMVms26Z5Lcae3nn9PY9AJihoAAAAAAADgekfm/4K3V4+Ka+rcxmmGt8efWnj/p6yqabumLnEVYrKsit1x7SmrEXafDM9Wn5orQj2KV22xfy+aTRE8lERHt55XhsHgvkMpi5MctczPs5o3ACGpseJ3nRwyeM23p4Kq5T1reCpnEVT3piPa/O4PsTz0PMo6mBzPPK6NJuV02LU9+I4z8+iQ7L4T51mtqjTkidZ7oRvavGfNcovVa8sxpHt5E3xwnTRnzMi+nPoAyAAAAAAAAIp6WWU+vd39GY0UzNzLr9NUzEfm1T1Z+mJ8yta6G8DKqc62NzLLKv/AKjD10xw10nTh86mNy3Vau127lPVroq6tUT2T3lQ7fYT5PHUX4jkrj3x/wAhcfB5jPlMDcw8zy0Tr7J/fV5AQFYbHfSp0Tc39Zbf3strr0ox+HmIjX86mdYj5JlFfKG63fZpVku22V5lTV1YsYmmavBTPtZ+aZltsmxU4XMLN7XmmPLrajPMHGMy69Z05ZpnTviNY966GsM6w/KzXRcs0XKZ4V0xVEvboWJ1jVzhPJOj0j3pPdyPH/GWfrISEj3pPdyPH/GWfrIarPOjMR4atza5F0ph/HTvhVcBzy6RAASB0Ye7FgPib3oStUqr0Ye7FgPib3oStUuTYLourxTuhSXCD0vHgjfIAnCDPKIumB7ysB5X9iXURdMD3lYDyv7Gh2m6Iv8Ad8Yb7ZfpnD+L4K6AKBdEAAJc6H3v5x/kP81KxvYrl0Pvfzj/ACH+alY3sXdsT0PR3zvUPtx01c7o3MgJciJHOUGdMz+rZL8Zc+iE5xzlBnTM/q2S/GXPohGdruhr3s3wk2x3Tlj27pQQAol0AAAxr7aNOzTzadq0PR325o2m2Ypy7GXo/CeX0xRdiZ9tcp09rXHf4fOq9E8dGx2VzrMtns+s5rll/wBSv2Z1jvVR20zHbE9qQ7PZ1VleLi5P2J5JhHNpcjozbBzbjkrp5aZ9fYu0auF3UbyMn2ywdNuK6cLmNFMeq4Wurjr36Z7Y8Luea8sJjLOLtRds1a0yoTF4S/hLs2r9PFqhkY4acx6HnZHmGJqiImaqojtNdOU5ZZq00QN0qduKLumyGW3oqimqK8dXRPLTlb+/5G93372sJkuHvZNs7eoxGZVe0uX6Z1ow0ePtqV2xV67fv3L9+5XduXKpqqrrnWaplXG2G0tuLdWBw061T9qY3LK2M2WuVXacfio0pjlpieue3ufn2MxyBVmq3ABgfrgbFeLxtnC2vd37lNunx1VaQuxkOFpwOS4XCUUzFNmzTRET2aREKs9HrIvw5vPwUV25mzgpnE3Z7OEe1j5ZifMtjC2OD/CTThruImPtTER7FQcIuNprxVrDU/2xMz7f/jLg+kfl34R3UZj1adbmGim/T4Ipq4z+zq7yHyZ1grWY5VicDfp1t4izVbqjvxMTE/SnGPw/zjC3LP4omPNAsBifm2Kt34/tmJ8lIR9m0eXX8nz3F5ZiYmLuEvVWqtY01mJ018U6Pjc53Lc265oq54nR0xauU3LcXKZ5JjUAfm/R6s3K7V2i7bq6tVFXWpqjhMTrrC2+5ra2ztbsZhsXVcpnGWY9SxdHbFcdunenmqNPJ0e6/bLMNjM/px+E1rsXNKcTh5nhdp+yY7Ep2XzuMsxf9T7urkn1dkontZkM5rg4+S+8o+z6+2Fxxotitp8p2oyi3mOVYmm5RVHtqddK6J71Udkt58q7rN63eoiu3VExPXCibtq5Zrmi5TpMdTID9X5gxT/5qMMEaPjzrMMJleW3sdjb1FmxYomuuuqdIiI4vOdZlgsoy+5jsxxNuxh7VM1VV3JiIhWnflvMv7YYqcty3r2MotVcImNKsRMcqqu9Hej7eWiz3PbGV2JqqnWueaOuf2b/ACHIcRm2IimmNKOurqj93Pb1dqr+2G2OIzW51qbEf0eFtzPuLcTw88858cw5rXVkUTicVcxN6q9dnWqZ1dAYXC2sLYps2o0ppjSAB53oCeUhPKX1T9qHzV9mVzt23vDynyO36MN33mk3be8PKfI7fow3fedIYL0a34Y3OY8Z6Rc8U72e1FHS77ndjyyj6JSv2oo6Xfc7seWUfRLW7R9E3/DLabNdMYfxQrYA5/dFAAHasJ0XNubeOyiNlcxvxGKwlMzhJqn8paj82PDT9HiV7fvluMxWXZhZxuDvV2sRZriu3conjTMcf+3hbvIs2uZZjKb1P2eaY7YaLaDJrebYKbFX2uemeyV49RGO5rerl21FijLs1rt4TNaYiOpM6UX/AA0zPb4El6xMcJjzL1wOPw+OsxesVaxP/OVQWPwGIwN+bN+nSY/5yPYxGnfNHseNkefCasBw8aIelDtxbyvJJ2ay+/E43HUf080TxtW+3XvTLb75d6WW7K4O5gMvuW8Vm1dMxTbpnWmz4a/u5qzZvj8XmmZXcfj79V/E3qutcrqnWZmfshAdrdpbdm1Vg8PVrXPPMdXq71g7HbL3MRepxuJp0t0zrET1z290PnAVHquUAYDTWVxN0WX1ZTu3yfBV09WujCU1V06aaVVe2n55lVndlkle0W3mWZTFPWovX4m94Lccavmhce1TFFFNFMaRTERHgWfwfYOf6uJnwxvn4Kq4R8bEzZwsdX1p3R8X6NXtpgIzTZTMcuq5YnDV2+XfpltXmuOtTMac+ErJu24uW5onrhWNqubdcVxzwoxct127tVuumaa6J0qjvT3mHW78sjnZ7eVmOFpo6tnEV+uLPhpr4z8lXWhyTnLG4arDYmuzVz0zMOl8BiqMVhbd+nmqiJAHkexjXjosr0YNsLecbJRkWKvR68yyIopiZ43Lf5s+HhzVq7Wz2SzzH7OZ/YzbLbvqd+zOv+GuO2mY7YlINns3nLMbTdn7M8k9yO7SZLTmuCmzH245aZ9f7rsRMSOS3X7dZTtnlNN/C3abWKppj1xhaqvbW5+2PC6vxyvTD4q1ibUXbVUTTPWoHE4a9hrs2rtMxVHU9DBD0PxZGNeDEcWNWHrWGK6qaaZqqmIiOcy8Xblu1bm5cqimmnjM1TwhA+/re3bxNm9s9sxf1oq1oxONonhMdtNE+HvtXm2b4bLcPN29PL1R1zLbZRlGKzTERZsR3z1RDm+kjtxTtNtJTlWAu9bL8uqmIqpnhdudsx4OyJ8aNZ48Dw85n55FDZjj7uPxNWIu88+50DluXWcvwtGHs81Mec9oA8LYAALRdFjuRYP4+/8AWSkiOco36LHciwfx9/6yUkRzl0NkXReH8Mboc35/0riPHVvkAbZqQAAAAAAAHnt5Is6U+zP4X2KpzfD29cRldXXq05zbn3Xyc0qPwxuGtYvCXMNftxXbu0zTVTMaxMTweDMsDRjcJcw9X90PbluOrwGMt4ij+2f/ALHko72ajpt7eyt/ZLbPE5dXTM4eqr1XC1/36Jnl5uTme1z1isNcw16qzcjSqmdHSGExVvFWKL9qdaao1AHnekjwylzo/wC9OMkqt7O7Q3qqsvmqIw2Jrn8hP92f8Ph7O3hyiM7dYbHLM0xGXYiL9ieWPfHY1ma5Thszw82L8ck809cT2wvPYvWr1qm5ZuUV0VxrTVTVrEx4Je1UN1m9LPNkKqMLcqnHZbrETh7lXtrcf4Jnl4p4fSsBsLvF2W2pt0RgcwotYmY9thr8xRcpnvRE8/MufKNp8DmNERxuLX2T8O1SOc7LY/LK5maeNb/FHx7HX6jxTXFUcJiWY4pHr1wjT0PM8uEsxx5yasas6x32NY77WZ/nmT5JhKsVmuY2MLaojncuRT83ahfedv0qvW68BsjaqpiYmmrHXqdJ/wCin7Z+RqczzvBZdb416uNeyOWZ9jcZXkeOzKuKbFE6dczyRHtdtvr3l4LZDL6sHgblrEZtepn1O1E6xajtqr+5WLNcdisxzG9jcbervX79c13LlU85n7njG38Ri8TcxOKvV3bt2rrV111azXPfl+WsclOZ7n9/Nb3Gnkojmj4rr2e2dw+UWdKfrXJ55ZAR1JAOTNq3Xdu02qKZqrrmIiIjWZmeUPqKZmdIfM1REazzJA6N2zM5/vCs4q7Rrg8s/wB4uzMcKq4n2sftcfMtPHCNIcTuL2QjZLYqxavUaY7FR6ri50/OnlT/ANMcPldtPPgvbZbKv4fl9NNcfXq5Z/Rz/tXm38SzKquifqU8kd0dftl6Yr9xPiZYr9xPiSOeZG451Lt4Xv6zby276UtP2txvC9/WbeW3fSlp+1zfjvSrnine6ay70O14Y3ADyPYTyldjZL3s4Dyaj0YUnnlK7GyXvZwHk1Howsrg7+8v90Kw4Sfu8P3z8GyAWkqh+OMtUX8NcsXKOtRcommqJ5TExpKl22eU3Mi2qx+VXdYnCX6qI14a09k/JxXWjlxV86W+zE4bN8LtPh6P6PExFjEzH9+NZpmfHH0INtzl838DF+mOWifdKdbA5lGHzGcPVOkXI98c3xQyBKndF2agDAkDcHt9Vshn04PHV1TleNmIu6z+Sr5dePB31pMJiLOKw1GIsXaLtq5GtNdM6xMeNRrn5kg7od6eabIXKcDi4rxuV68bU1e3teGiZ+jl3tE/2V2pjBUxhcVP9Pqns/ZXm12yU42qcXhI/qafWjt9cetarWO+ax33ObGbabO7UYSL+VZlauVTHtrNcxTco8FVM8XQxPBa9nEWr1EV2qoqj1KgvWbtmubd2maao7XoedeGuprw11frq/NnWO+/HH4vDYLCXMVir1uzZtUzVXcrnSKYjtmWh21232c2WwU3c1zG1Tc/MsUVda5XPeimOPnV33ubz802yuzgrEVYLK6J9rYpq9td701z2+LlHzo7nW0uDyy3McbjXOqmPj2JHkezONzW5ExTxbfXVPw7Xnftt5XtjtF6nhKqoyvBzNOHp5eqTymuY8OnyeNwfJkUljcdexmIqv3p1mpe2AwFnA4ajD2Y0ppgAeN7TTWdW32Bym7nu2OXZVbpmfXF+nraRrpTE61fM1CbeiNsvVcxmK2pxNv2luJsYaZ/Oqn3U/RHnlushwFWOzC3ZiOTXWe6OdpNocxpy/Lrt6Z5dNI755k74WzRYw1Fm3T1aaKYppiI5RHB+wOgYiIiIhzpM6zrLD88Rbi5h67dUaxVTMTHf4P1J5ExrGhHJOsKT7X4GrLNqswwFyJiqxiq6ZiY5e2n72tSb0psinLN4X4Roo0sZlb6+sRw69PCr7EZOd83wlWEx92zPVM+XU6RyXGU4vL7V+OuI8+sAaxtSEs9FzbWjJs6ubO5hdijCZhV1sPXXPC3d5af9X0xCJmaKqqK4rpqmmqmdYqjnHHWJ8DZZXmNzL8XTiLfPHvjsazN8stZlg68Nc6/dPVK9ETExzZQvuL3tYfH4ezkW0uI9SxlHtbGKrq0pvR2RV3qvpTNTVTVRE0zExPavjLM0w+Y2Iu2Kte2OuO9z7meV4nLcRNjEU6dk9Ux2w9awxrBOjGmva2TXPQ8z4yWAmXN7z9qcJsjsliM0v10zciOph7czxuVzyiH17a7UZPsvlFeYZtiqLVFMe1o11ruT3ojnKrG9PbbMdtc+nF4marOFtaxhsNE+1txPbPfqntlFtpNoLWW2JoonW7MckdnrlKtmNnLuaYiK640tUzyz2+qHPZrjL+YZjfx2JrqrvYi5NyuqZ14zL8O0FIV3Kq6pqq55X1RRTRTFFMaRAA+H0JU6IXdKxX6tr+storSp0Qu6Viv1bX9Zbb/AGY6Xsd6N7WdC4jujessAv1z6xKsfSuy6rCby4xcUaW8bhaK4nvzTMxP2LOTxRB0ucirxuyWFzqzR1qsvu6VzEfmV8Pp0lFtsMHOJymvi89OlXlz+5KdjcZGFzi3xp5KtafPm96uoaijdF+QAMMui3V7U3tkdssPmlvWqxr1MTbj8+iZ4+ePsW8yfH4XNMss4/B36Lti/RFduuidYmJUhSLuN3m4nY/Fxl2ZTcv5Rdq1mInWrDz36e/Hfj7ec62R2ipwFfzbET/Tqnn7J/RANs9mqswo+d4aP6lMcsdsfrC0vCDWHwZFmuX5zl9vG5birWJw9ynWmu3VEw+2PGt+iumumKqZ1iVNV0VUVTTVGkw9DHYed9vhk1h5jlza7aLO8syHLbmOzTF28NYt0zM1Vz80R2y+Llym3TNVc6RHW+7dFdyqKaI1mex72izTB5Lk1/Msfeps2MPRNdVVU97jp41Qd420uK2r2uxWcYjWKbk9WzRPKi3E8Kfk+10W+reTi9tMd60wkV4fKbNetu3M8b0xyrq+yP8AyOAlTu1u0UZhc+QsT/Tp6+2e3uXTsbs1Vl1ucTiI/q1Rzfhj9WQEITsAB0G6juj5N5ZSuTT7mFNt1HdHybyylcmn3MLa4PvQ7vijcp3hH9Os+H4sgLCV2AAAAAAAAAAjnpH7JTtJsPVicNb6+Oy3W7Z051U/nU/Iq3MTEzExp315q6IrpmmqnWJjSY76sHSL2Gq2a2nqzTBWtMtzCqaqNOVm520+LthWe3OSzVpj7Uc3JV+vwWfsDnlNEzl16eflp+MfFHAdnAmeGqsNFragDDIAAAAABoAzqBxA1NGbdddFcV0V1U1U8qomYmPE6zZjeZtpkU004bOb1+1Rw9SxX9LT8/H5JhyQ9OHxuJw1XGs1zTPql5MTgMLiqeLftxVHrhOey/SC9tTb2gyadO27hK9eP+Wr7JSPstvL2Nz6IjC5zZtXZ5WsRPqdc+aefmVFO35+X/miVYHbjMrH1bulcevn80Rx+wWWX/rWdaJ9XLHlK89q7bu0da3XTXTPbE6vWsd9TLZrbHafIao/Bed4qzRTytTX1qP2atYTRuN3uYrP88/Ae0fre3fu0/7tet0zTFdUfm1azPGefzJvlW2eCxtymzXE0Vz283mg2b7E4/AWqr1ExXRHLyc/kmYYiY77ETzTDVCtXoBlkAAAAAAAAAAAAAAAA1jvmsd9+GNxNnC4S5icRcpt2rVM1VVVTpERHfVy3ib7NocbmmIw+z123g8FRXNNq9FvW5XH97jrHzNNm+eYTK6IqvzyzzRHW3OT5FjM2uTRh45I55nmhYvG43B4KzVdxeKtWKKeM1XK4iI+Vwu1G+XYvJ+tRaxtWYXaY9xhKevE/wDVwp+dWbOs6zXOL03c0zLE4uqeXq12aoifBE8I82j4ePf11QLG8IGIr5MLbin1zyysHAcHNinlxd2avVHJHmmDanf9nWJiq3kmV4fB0Twi7fn1SvTxRpEfOjraPa/abPqp/CudYu/RVwm1Fzq2/wBmnSGkEQxue5jjJ/rXZn1c0eUJngdn8swUf0bMRPbMaz5yT9M6yA1U1a8stxEacgcgYidGdABgAAAAAAAAH27M5Tis7z3C5VgqJqvYq5FFMaa6eHzRxfEsL0XdhJy3L52pzOzMYrF0aYWiqONu3/e8dX0Q3mQ5TXmWNpsxH1Y5Znshodoc3oyrAVXpn608lMds/t1pP2QyaxkGzeDyjC0z6lhbUUROnup7ZnwzPHztpM8eT0L8tW6bdEUUckRGjnq5cquVzXVOszOsgD9HwAAAAAAMTMREz3mNWt2tzOjKNmMfmdz3OFw1dyde3SOT87tyLdFVc80Rq+rdE11xRTzzOirO/nN/wzvSzS/TV1rdi5GHt96IojSfn1ce/TFXq8Rirt+5VNVd2ua6pntmZ1n6X5uc8diJxGJrvT/dMz5ul8vw0YbCW7Ef2xEeQA8b2sduq3G4bKIybdhlliqiKbt636tc8M1cfo0VZ2Qy6vN9qMvyy3HHE4mijza8V0sHZow+EtYe1T1aLVEUUx3oiNIWVwf4PW5dxMxzRoq/hHxuluzhYnn1mfZyRvl+4C0lUgAAAAAAAAAPNURMTHZPNT/fRlP4E3l5rg4iabdd71a34aauP0zK4E81fOmDk3qGe5bnVumdMTbqsXKvDTxj5tUK25wny2WRdiOWifdPJPwTbYLGfIZr8lPNXGntjl/VDQCmF4Bz5/KD6idJ1YmNY0XA3NZvOebtsrx9VfWuTZii7P8Aip9rPzw6jihroe5v6vs9mOTV1zNWEvxdoieymv8A7xVPnTL2ug8ixXzrLbN3XlmI8453OOf4OcHmd6z1RVOndPLD0j3pPdyPH/GWfrISEj3pPdyPH/GWfrIZzzozEeGrc+ci6Uw/jp3wquA55dIgAJA6MPdiwHxN70JWqVV6MPdiwHxN70JWqXJsF0XV4p3QpLhB6XjwRvkAThBnlEXTA95WA8r+xLqIumB7ysB5X9jQ7TdEX+74w32y/TOH8XwV0AUC6IAAS50Pvfzj/If5qVjexXLofe/nH+Q/zUrG9i7tieh6O+d6h9uOmrndG5kBLkRI5ygzpmf1bJfjLn0QnOOcoM6Zn9WyX4y59EIztd0Ne9m+Em2O6cse3dKCAFEugAADmAzqaacz3hcRfw2JoxGHvXLN63OtFyiqYqpnvxMJQ2H347Q5Vbow2cWaMzsU6R6pPtLsR4+VXyedFg9+BzXGYGrjYeuY3eTW5hlGCzCji4m3FXr649qzWT79Ni8VbpnF14vBVzzi5YmrTz06tnVvi2BpomZznXTsixXr9CqQlFvb3M6adKqaZ9iJ3ODzK6qtaa6o9sfosfn+/vZbDW5jLcLjMdX+bpb9Tp/1aT8yLtvt7m1W0tFWHt3actwlUcbWGqmKqo8NfP5NHAjV4/avNMZTNFVfFp7I5G2y7ZDKcDVFdNvjVR11cvu5iNe3nrr/AN2I5siOzVMpPERAA+WQOzV2m5DYq7tjtXbpu25jLcJMV4q5pwmNdYo8dX0PZgsHcxd+mzajWZePHY21gsPXiLs6U08//O1MPRc2UqybZCrOMXbmnFZpMV0xMaTTbj3MefjPnSpw7z88NZosWKLVqmKaKKYppiI4RERpD9YdA5bgaMDhKMPR/bHn63OeZY65j8XXibnPVPl6vJ548zjq9D3vCrx0stlJwmd2dqcLRPqOO0tYnSOFNyI9rPnjh5kOLp7Y5Hg9o9m8Vk+Nt62sTRNOvbTPZMeHlKoG2mQY/ZnaPE5PmFvq3LFftatOFyn82qPHCnttcmqw2K+d24+pXz+qf3XPsLndOKwnzO5P16Ob10/s1YaiCJ+AM6saNnsrtBnGzmY043J8bcw12OfVn2tfgqjlMJs2E394C/bosbT4OrCXuU4mxTNdufDMc4+dAA3OV5/j8tn+hX9XsnmaPNtnMvzONb9H1vxRySudke12zWbW6a8vzvBX+tGsRTejWPBMS2nr7B9XX11a07/XhRyfF4eP/kv19cX5jq+r3NNNPdSmNvhDrin+pYjX1Shd3g3p42tvEaR64/SVyM52w2Yyu3NWOzzA2dOyq/EVT4oR7tjv5yLB0V2sgwt3ML3Zcqj1O1E+OeM+aFdY8Xy8R4Mbt5jrtPFsUxR6+dsMFwe4CzVxr9c1+rmh0G3m2m0G1uL9VzfGTVapnW3h7fC1b8MU9vjnj4XPaMiFX8TdxFybl2qZqnrlOcNhbOFtxasUxTTHVAA/B6AAAnlITyl9U/ah81fZlc7dt7w8p8jt+jDd95pN23vDynyO36MN33nSGC9Gt+GNzmPGekXPFO9ntRR0u+53Y8so+iUr9qKOl33O7HllH0S1u0fRN/wy2mzXTGH8UK2AOf3RQADHOGYBnjMaM0VTRXFVM1RMcYmJ46/YkXYPfLtRkFunDY2ac1wtOmlN+rS7EeCvt8+qOR7cFmOKwVfHw9c0y8OOyvCY+3xMTRFUe+O6Vk8i38bI4miPwhZxuBr/ADoqtden5aNfnhuvZi2BmnX8M9munqNf3KpCU2tvMzop0qimfYiV3g9yuurWmqqn2/sspnW/fY/C2pnA28ZjbnKIos9SNfHVojXbrfTtRnluvDZd1Mqw1XCfUZ1u1R4ap5R4oifCjUa/HbXZpi6Zomvix6uRscBsZlGDqivicaY/Fy+7mZuV13K5ruV1V1VTrNU1TMz49WNOII1NUzOspVTTFMaQAPlkCeDoN2ey2M2v2pw+VYaKqbevXxF3Thbt68Z+yHow+GuYi7TatxrVVzPPicVbw1mq9dnSmnnSx0SdlarWHxW1OKtzE3tbGE60fmxPt6vPMRHmTfrOvJ8mR5dhcpymxl2CtRbsYa3Tbt0x2RHB9seBf+TZdTl+Cow8c8c/e50znM6syx1eJq655I9XUyA2rWIf6WGytWZbNWdocNa1vZbM+raR7q1PP5Oaukc5XkzDDWsZhLmGv0RXbu0zTVTMaxMTCpG+PY3EbG7WXcL1JnA4ifVMHd7Jp/u+OOXi4qq25yaqi7GPtxyTyVd/VK2dgc7prtTl92eWOWnu64cmHhY584VzosxkA1ZfVk+ZY/Kcwox2W4u7hsRbnWmu3VpMfZPiTPu/39TTaowm1mDmao4RjMNT89VP3fIg4bbLM8x2W1a4evSOuOqfY02a5DgM0p0xFHL1THJMe1cjZ3bbZfOrcVZfnWEuzVGvU9U0rp8dM8YbyMVhqo1pv258VUKN6Rx4Rx56PptZjmFqjqWsfibdPepvVRH0ppY4Qq4p0u2dZ9UoPf4N6Zq/o39I9cfouhmOeZPgbU3MbmeEsURzm5diIcNtZvp2PymmqjCX68zvRypw0a0/t8vkVgu113K+tXVNc9tUzrPzvPF5sXt9jK6dLFuKfXPK9OD4OsJRVriLs1eqOR3O8reltFtbNeGm56xy+rh62sVe7jvVz2+Ll4HD9us9/XXvghGMx2Ixl2bt+rjSnmCy/DYK1FrD0RTT6viAPI9gAAAC0XRY7kWD+Pv/AFkpIjnKN+ix3IsH8ff+slJEc5dDZF0Xh/DG6HN+f9K4jx1b5AG2akAAAAAAABg0ZDQcNvy2Jo2y2VqpsUxTmOE1rwtenPv0TPelVLGWL2ExNzDYi1Vbu2qurXRMaTTK8lMTpxQ50i92X4Vs3NpcisR69t064mxRHG/EfnR/ij54QHbDZ2cVR88w8fXiOWO2P1hYOxe0sYOv5liav6czyT2T+kq9BVE0zMVRMTE6TE9jCo+Ly6SuSJieWGQHyyxppyZpmYqiqnWmY7Y7AfUVTE6wxNMVRpLqNnN4u2eSRTRg88xNVqnlbvz6rTp/1azHm0dZgd/e2FqiKcRhctvadvqVVMz5+tp8yKxtMPnuZYeNLd6Y9rT4jZ7KsRVxrtimZ7tNyW7/AEgNp5p0s5Xl1E9+qKqvthoM83w7dZlE0/hK3hKZjjGFsxTr551n53Bj9b20ea3o4td+rTvfnZ2ZyezPGpw9OvdrvfTmWYY3McTOIzDGX8VenjNd65NdXyzq+bxA09dyquqaqp1luqLdFuni0RpBxY4RHJkfOr6mNQJYjxmgdniTF0Y9gZzLMadqs0sf7pha9MJbrj8pcj87xR9PicvuV3eYzbPOacRft12sqw1f9Pe5def7lPh789i02WYLDZdgbODwdim1YsUxRbt0RpFMRw0WFsfs5VfuRjcRT9Snmjtnt7oVxtrtNTYt1YHDVfXn7U9kdnfL6dODPbyZFsaKhGK/cT4mWK/cT4ieYjnUu3he/rNvLbvpS0/a3G8L39Zt5bd9KWn7XN+O9KueKd7prLvQ7XhjcAPI9hPKV2NkvezgPJqPRhSeeUrsbJe9nAeTUejCyuDv7y/3QrDhJ+7w/fPwbIBaSqGI5NNt1kGG2m2VxmT4qn2uJt6U1acaKudNUeKdJbofldtUXbdVuuNYnnfdq5Xari5ROkxywpDtLlWMyTO8TlWPtzbxGGuTRXHf07Y8ExxfGsl0j93lW0eWfh7KbPWzLB0f0lumOOItxx0/zR2d/krbXTNNU01RNNUTpMTziVD5/k1zLMXNExrRP2Z7Y/V0Fs5nlrNcHTXr9ePtR2T+kgDQJCHIGdTR7wt69hr9N7D3a7Vyj3Nduqaao88cnWZJvP24yuimiznt67bp/MxFNNzXzzEz87kB6sPj8Vhp1s3Jp7pePE5fhMVGl+3FXfCSfZx256nVi5gNdNOt63nXX5WkzvedtzmlNVF7Pr9q3V+bYim3p54jX53Ij13c9zO7Txa79Ux3vHayDK7VXGow9MT3PWIu3r96q9fu1Xblfuq66pqqnzzxl48OjI1dVdVU6zLbU0xTGkRoAPl9AQzRTVXXFFFM1VTOkREazMvqKZnmYmYjnbDZXJsZn+f4bKMFbmu9ibkUx3qY14zK4WxuSYbZ3ZrCZPg6dLeGtxTrpxqntqnwzOsuD6Ou7z/ZrKPwzmlrTM8ZTwomOOHo/u+Oec/IlLtXNsfkU4DDfL3o/qV+6OxR+2mfxmOKixZn+nR7565ZATRCgAEfdInZadpNgrteHo62My+fV7Gkcav71Pnj6IVWmJ1mJjjHCfAvNXTTVRNMxrE8476sPSM2GubNbS1ZrgbX/wANzCuaqerHCzc7afFPOPkVrt1ktVemPtRzclXwn4LO2Azumiqcvuzpry0/GPijcYq104MzPtdVX6LX1AHyyRMxOsTOvDjrpyd/u83ubS7M00YS9XGZYGnSItX6piuiO9TXz806x4nAD24PMMTgrnymHrmmXhx2W4XHW/k8TRFUbu5ZvZ3fjsdmFFNONqxOXXZjSYvW9Y1/zU6x8rprG8XYe7biuNqMsp17K8RTTPyTKnwl1jb/ADCinS5RTV7kMv8AB3l1dWtu5VT5Stnm+9bYTAUdavPrF/wYbW7P+nVwG2m/6ibdVjZrLKpnlF/F8o8MURz88wgsefGbcZnfp4lGlEern83pwWwOVYerjXNa59fN5Q2O0+fZvtBmVWOzfHXcVeq5dafa0x3qY5Uw1vFkRG5eru1zXXOsz1ppas27NEUW6YiI6oAH5P0AAEqdELulYr9W1/WW0VpU6IXdKxX6tr+stt/sx0vY70b2s6FxHdG9ZYBfrn1ji1+02V4fOshxeV4ujrWsVaqt1Rp345tiPi5RTXRNFUckvqiuqiqK6eeFI9qMoxORZ/isqxdE03cLcmjjHuo7JfCsL0othpzLLo2oyyzM4rCUdXFUUx+Ut/3tO/H2q9afIoPP8qry3G1Wpj6s8sT2w6F2dzi3mmBpu6/WjkqjskAaJvzlyJ5Azqw3Wxm1mf7LYz1xk2PuWImda7U+2t3J8NPKfHz8KXdlOkDZqopt7Q5RXRVy9WwkxNM+GaauMfOggbnLtoMwwHJYufV7J5YaPM9nMtzGeNft/W7Y5JWmwW+jYK9R1pzO5aq7Yrw9cT9HFjHb6dgrFuermV29Vp7m3h651+bRVob/AOn2ZcXTi0+SO/y7yzja8erzj9E5bV9IGepVa2dyidZjSL+Mq00n/JTz+WER7XbTZ3tNjpxWdY+7iatfaUTwoo8FNPY1Ij+Y5/mGYcl+59XsjkhJMs2ey3LZ42Ht/W7Z5Z8yfAA0+rdcoAwyAA6DdR3R8m8spXJp9zCm26juj5N5ZSuTT7mFtcH3od3xRuU7wj+nWfD8WQFhK7AAAAAAAAAAYifA1O1+Q4LaPIb+U5ha69m/Rpy40z2TE9kw24/O7aou0TRXGsS+7dyu1XFdE6THLCmm8jZLMdjtormWY6marczNWHvRyu0dkxPZPfhoNeK4+8PZHK9r8iry/MrURVprZvUx7e1V2TEqt7x9jM32OzicJmNqa7NU/wBBiKY9pdjv+CfApfaXZm9l12btqNbU+71Su/Zbam1mdqLN+dL0R/8Ar1x+jnA7SPGiGiZ6gDDIAAAAAAAAAAADHKX6Ya7cw+JoxFm5VbuW6oroqpnSaZjwvA+ormJ1h81UxVGkrXbjNuLW2Gy9MYm5TGY4SKaMTRrxnhwriO9LuqeEeJTTdztPjNktqbGbYSZqppnS/a7LtHbC3mzWb4LPckw+a5fdi5YxNHWpn7J8MLt2Uz2MxwsW7k/1KOSfXHaona7Z+csxXyluP6VfLHqnsbEBLURAAAAAAAAAAAAAAGNY05k83Eb79t7Wx2y1VdqumcwxUTRhbfentqnwQ8uLxdvCWKr92dKaXowmFu4u/TYtRrVVOkI/6UG32sTsllV+e/jrlE/6In55Qb2veMv3sVirmJv3Krl27VNVddU6zMy8KEznNLuZ4uq/XPJ1R2Q6FyPKLWVYKnD0Ry9c9sgDU6txp1ADDIAAAAAAAAAAAEAa8Ulbk91mN2pxNvNM2t14fKKZiqNYmKsT4Ke9Hfl78vy7EY+/FmxTrM+7veDMcyw+X2Jv4irSI85nsh76Pu7q5tLmlGcZrZqjKsNc1imqP6xXHZ/l7Z+RZm3RRbt027dMU0UxpERHCI5aPnyvA4bL8DbweDs0WbFqmKaLdMaREQ+rwaryyPJrOV4b5KnlqnnlQefZ3ezbFTdr5KY+zHZH6vQDdtIAAAAAAAA8xpCM+lPm/wCDt2teCoq0rzG9TaiI59WJ61X0RHnSZ4+1XXpd5x662rwGTUTrRgbM3Ko/x1z91MfKjm1WL+a5Tdq65jSPb+2qR7J4P51m9qmY5KZ40+zm9+iIQNVDug+UDUDlSX0Vsn/CO8uMbXTrby+xVd4xw608I8/FZ2nlxQ/0QsnjDbJY3OK6dK8biPU6ZmPzaY++ZTDErx2PwfzbKaJmOWvWf09yg9s8b85zi5pPJRpT5c/v1ZASpFQAAAAAAAAAHnhPBHfSdyeM03XYjE0U63cvrpv0zp2ROlXzTKRJji+DaTAUZnkGLwF2nrU37FVExMc9YeHMsN85wdyzPXEvbluKnC4y1fj+2qJUmnhzH7ZjhrmCzDEYO9Ht8Pdqt1f9M6T9D8dXOtdE01TTPPDpaiuK6YmADV8PvlSL0YM3nLd6FjDVVaW8xtVWao7Jqj21P0THnWj17VJNmsxryraHBZnRVMVYTEUXOHbETrPzarqYC/RisHZxFuqKqLtEVRPZMStvYDF8fB3MPM8tM6+yf/kqb4Q8F8njbeIjmrjT2x+0w+lHvSe7keP+Ms/WQkGO8j3pOzHsR4/v+qWvrISvPOjMR4atyJZF0ph/HTvhVgDVzy6R5QNTUOVIHRh7sWA+JvehK1SqvRh7sOAn/wC1e9CVqJ1XJsHH/a6vFO6FJcIPS8eCN8vQCboM8oi6YHvKwHlf2Jdjw8ZRF0wfeZgPK/saHaboi/3fGG+2W6Zw/f8ABXQDVQWjojlA1NQ5UudD7384/wAh/npWN7Fcuh/r/tzj9P0H+elYzj967dieiKO+d6h9uemrndG56AS5EWEG9Mv+rZL8Zc+iE4x50G9MrX1tk3xlz6IRna7oa9HdvhJtjum7M9+6UEgaqKdAcoGpqaHK+ixgcZey69jbViu5h8PVTTerpjWKJnv96Hzpp6I2Dw2Pw+f4TGWKL1i9Rbprorp1iqJ63DR8G+Lc5jsmu3M22at1YrAzOteGp43LPi78fOkn0bxNeW0Y6xHGiddY640nTXuRaNp8NbzS5l+InizGnFnqnWInSeyUShXE0VTTVE0zTziewidZ0hHJpmOdKImJ5YAHyyAAB4jsZ0AHW7s932ebZ42mcLZqsYKmY9UxdyJ6sR/h78vThcHexd2LVinWqXlxeNsYOzN6/VxaY7Ws2D2ZzPavPreW5Xamaqp1uXZj2tqntqn7Fsd3+y+XbJbN2cqy+3GlEa3bkx7a5X21TPfeN32x+T7I5RTgsrs6TMRN27VHt7s9+ZdB281zbNbN0ZXb+Uuct2eeeyOyFIbT7T3M2u/J2+S1HNHb65eoASxEgAHni4Xfdu/w22mReqWaYtZphYmcNd0063+Cr/DP0u8HmxeEtYuxVZuxrTPI9ODxd7B36b9mrSqmdYUezfA4vLMxu4HMMPXYxNiqaa6K40mJj7HzRyWx3t7t8q20wHqkx61zK1H9FiaY5+Cvvx9HYrRtrsrnWyuaVYLN8JXa46W7scaLkd+mfs5qSz7ZvE5ZXxo+tbnmmPj2L02e2owua2+JM8W7HPE/DtaUDjM6QjWiUagDDIRoDOoASasQBq2Wy2QZttDmdGAynB3MReqnjpE6UR35q5RD9LVm5drii3Gsz1Q/O7et2aJuXZ0iOuXw4PD3sXibeGw9qu7du1dW3bojWap8zOPw1/B469g8TR1L2HuVW7lMz7mqmdJWd3PbrMv2RwsY/HxTi81rp9tcmPa2fBRH281dt43dBzz9ZYj6ypv802fu5bgrd6/P1655uxHMp2ktZpmFyxh4+pRGuvbOvV6mmARzRKAnlITyni+qY+tD5q+zK527b3h5T5Hb9GG77zR7tveJlMf/AIdv0YbyO10fgvRrfdG5zHi/SLnfO814op6XXc7seWUfRKVY5Ip6XXc6sa/plH0S1u0fRN/wy2ezXTGHn/VCtoGqgHRfKBqahyvowGBxeMpvThbFd2MNam7d6ka9SiJiJq+eHzpR6Jdu3e3j4u3coproqy25FVMxrHu7fY3++fczd9VvZzsna1irWq7gY+mj7kks7OYjE5bGNw/1uWYmO7rhFb20+Gwua1YDE/VjSNKu/qnsQePeJtXbGIqsX7Vdu5ROlVFdMxVTPhjsePnR2aJpnSUoiqJjWAB8PoAAAZ0Y1DUb/YHY3O9rsyjDZVhZm3FX9LiK4mLdrxz2z4H7YfDXcRci3ajWqep+GJxVnDWpu3qtKY62u2byfMM9zizluV4aq/iL9URFMRwiO2Z70eFazdDsRg9itnKcLapprxl7SvF39Pd196O9EcoN1uwGU7F5X6nh6IvYy5H9Piq49tXPbEd6PA6781cWzGzNOW0/L341uz7vV3qV2q2qrzSr5CxOlqP93rn1MTTxmWY5cnoTLRCtABlljTVze8vZHAbYbO3cuxlPVuaa2L0R7a1X2TDpR+N/D279qq1cjWmed+ti/csXabtqdKo5pUs212czPZXPLmWZnYmi5T7iuI9rdp/vUz3vA0/YuLvH2MyjbHKZwmY2Yi5TE+o36Y0rtz4JVk3lbA57sbj6qMZZm7hJq0tYu3E9SrwT/dnxqZ2h2Xv5dXN21HGtz19neu7ZrazD5lRFq9PFvR7+5ywxppzZjXj4ER4qZa8gA+WQ494GdTSOsY4shqAS/XL8Licbi7eGwdm5fvXZ6tFu3GszL6pomqdKYfNVdNFM1VTpD8n0ZjgcZgLlFvG2K7Ndy3TcpprjSerPKdPCnbcxubjAXbOdbVWqLl+nSu1gudNE9k1d+Y73KHCdKGminetept0xTTGEtRpEeNIsVs7fwmW/PMR9WZmIiPjKMYTaaxjc0+ZYb61MRMzV5ckfqjwDVG0p5QNTUOVaLosdyLB/H3/rJSP4UcdFjuQYPv8Aq976yUjuhci6Lw/hjc5vz/pbEeOrfLIDbNSAAAAAAAAAAxPeY6usaTGvf8L0AhvfnuiozWq7nuzNmm3jeNV7DU8Kb3bM096qfnV9xeHv4TFXMPiLNdq7aq6tyiqNJifFK8nY4jelu0yPbHDzerojCZhTTpRirdPGfBVH50eNANotjqcXM4jBxpX1x1T3dkrB2a21rwURhsbPGt9U9cd/bCpw6fb7YLaLZHE1U5jg6q8Pr7XE2YmbdUePnT53Mdmqq8RhL2HuTbvUzTMdq3MLjLGKtxds1RVTPXAHm58h59Ho1AGGQAADSWQDsfXkmV5lm+PoweWYO9ir9zhFNumZnxzpyfdu3VcqimiNZfncuUW6ZqrmIiO18iQdzm6/M9rb9GOxtNzCZTTOs3JjSq/Heo73jd3uo3IWsNVazLazS9ejSqjBUT7Sn/NPb4uSaMPYtYaxTZsW6bduiNKaKI0iPMsXZ/YuuuYv4+NI6qeue9Wm0W3NFNM4fLp1q66uqO7t73y5BlWCybK7OXZdh6bGGs0xTRRTGmmj7tPA9C0KKKaKYpojSIVTXVVXVNVU6zPOAPtgYr9xPiZYr9xPiYnmI51Lt4Xv6zby276UtP2tzvC9/WbeW3PSlptY1c3470q53zvdNZf6Ha8MbgDV5Xs5SeUrsbJe9nAeTUejCk/ZK7GyXvZy/wAmo9GFk8Hn3l/uj4qw4Sfu8P31fBsgFpKoAAeNNadJ4xPBCXSA3UTiZvbSbM4bW/OtWLwluNPVe/VTHf78dqcGJjWNJ8XFrc0yrD5lh5s347p64nthssqzXE5ZiIv4ee+OqY7JUXrpmmqaaommYnSYmNJie8wsvvg3Q5dtLVXmeTdTBZnprVHV0t3vHHZPhV52nyLNtn8yrwOb4K5h7tP9+OFXhirlKlM52exeWV/XjWjqqjm9vYvPJNpMHmtuOJOlfXTPP7O2GuDTUjlwaHRIdQBgAAAjkMgHY2eyuz+b7RZjTgcnwVzEXJnSerExTR4ap7H6WbNy9XFFuNZl+V6/asUTcu1aUx1y1tuiq5cpot0zVXVOkU0xrMz3tE+bgN1NWBrtbR7SWI9ccKsLhauPqXeqq8Pg7G/3P7pMu2Y6mZZrFONzOIiaZmPaWZ/wx2z4eaTNIiNI4dnBaezWyHzeqMVjI1q6qezvVJtTtn85pnCYKdKOurt7vURGnCI5Exz1ehYeiuNABlkAB57e1rNrcjwG0WRYjKsxsxcsYijqzExxp8MT2S2o+Llui5RNFcaxPO+7dyu3XFdE6TCnW8/Y3Mtjc/rwOLoquYa5OuHxHV9rdj7/AAOaldLa7Z3K9pcmu5ZmuGi7Zuxzn3VE9+J7JVn3r7sM52PxdeIs0VY3LNZmjEUU8bcd6uOzxqd2j2UvYG5N7DRrbn3fsujZja+zj6Iw+Kni3e3qq/f1OFDmIVonUT1AD5ZAAAGYhjUCOM6c5SZui3R5ntJetZjnVFzBZb7rSY6ty/HejXlHhe7AZbiMdei1Yp1n3e14MxzTC5fZm7iKtI9890I8/B+N/BX4SnDVxhPVPU4vTHtZq70PmT90o8rwOTbtsqy/L8PbsWbGJimiimOEe1+lAMzHgerO8r/huK+bzVrOkTPfLyZBm05phPnPF0jWYiPVABq07d8olTohd0rFfq2v6y2iuJ7+iVOiHP8A8ysV+ra/rLbf7Mx/3ex3o3tZ0LiO74rLAL8c+gAPzuW6LlubddEVUVRpMTHCVbN/+7K9s/jrue5NYmrK71U13bdMTrhpn+X6Flu1+OLw9rFYeuxiLdNduuJiqmY1iYaXOsms5ph/k6+SY5p7G5yPO8RlOJi7bnWJ546pUcEzb49zGJwdd3N9lLU38PM9a5go93b/AMnfjwIauU127lVu5RVRXTwmmqNJhSOZ5RisuvfJX6dPX1T3L4ynOMJmdn5WxVr2x1x3wwMTr3mWt0bUAfIAABOsdnM08LOjEydmr6MtwOMx9dynCWK7s2rdVy5NMe5op5zPeb7dzsLnu2OYU2svw/Uw8Vf0uLuRPUo8/bPgTzjdicn2N3RZxhsDbiu9XgblV7EV+7uz1e+kuUbNYrG26r9UcW3ETOvb6oRbOtqMLgLlNi3PGuTMRp2euVYANUamNJSmNZgDU1GeV0O6juj5N5ZSuRT7mFN90/HeRk3llK49PKFs8H3od3xRuU7wjenWvD8XoBYSuwAAAAAAAAAAAHmOektdtNkeW5/ldzLs1wlGIsXImJpqp5eGJ7JbMfFy1RcomiuNYnnh9UV126oronSY5pVm3qbm83yC5cx2RU15hl/P1On8rajxfnePmi+umqmuaK6ZpmnhMTGkwvNMdaJiY18zi94G7DZjaqmq9ewkYTFzE6YnDx1atfDHarrOdhaLkzdwE6T+Geb2SsjJNv67URax8caPxRz+2OtUwSZtluR2qyma72V+p5ph+cRbnq3Yj/LPCUe5rluY5Zem1mGCxGFrjsvW5pifFrCvMZlONwdXFv25hZOBzjAY6njWLsTv8nygNfo2YAAAAAAAAAAAAlPo17ezkGdfgDMr8xl2Nrj1OqqeFm5Pbr2RPLwcPCizgRMxMTrpMaTHfjRsMtzC7gMTTiLU8se+Oxrc1y2zmGFqw12OSfdPavTTVExExMTqyiro3bfRtDkkZHmV7XMsDRpTVVPG/bjlPjjlKU+1fuXY+zjsNTiLU6xPunsc8Zjl9/AYqvDXo0mn3x1T7XoB7niAAAAAAAAAAA7XmqqKY1qmGNeTlHw7Q5pg8lybEZnj70WrGHtzXXVV3oVE3l7VYza/am/mmJmabes04e1M8LdHZHjdx0mNvZzrN52cyy//ALhgq/6eqieF25HZw7IRQp/bLPvnd75pZn6lM8vrn9ly7EbPfM7Hzy/T9euOT1R+shzBBlgxAAwAAAAAAAAARAaMagTOkatts9svtBnd2mnK8nxWI63KuLcxT+1PB+1rD3b1XFt0zM+qH5XsRasUzVdqiI9bUvpyrAY3M8dRhMvwt3EX7s6U27VMzVM+blCXtiNwePxFdF/aXHU4a1HGcNh561U/9U8vMmXY3ZHINmMHGHyfL7dj+9cmNa6/HVPGUwyrYjG4mYrxH9On18/khWb7d4HCxNGG/qVf7fPr9iLt0e5K1h/U812siLt2NKreBj3NP+ee3xck1Ye1RZs02rVumiimNKaaY0iI8T9RaeWZThcutfJ4enTtnrnvVNmmbYvMrvymIr17I6o7nljSYexsmtAAAAAAAAAAeZ104c1dd6G7TbzaLb3Ms3t4GzVav3pizM349xTEU0+LhESsYNTm+T2M0tU2r8zpE68jbZPnF/Kr03rERrMacsaqqewzt58HWf4iD2GdvPg6z/EQtWI99Asr7avNJP5g5t2U+X7qqewzt58HWf4iD2GdvPg2z/EQtWH0Cyvtq82P5gZt2U+X7ue3YZHVs5sLl2UXKYi7Ys/0vV5deeNXzzLf06vQmVizRYtU2qOaI0Qu/erv3arlc8tU6z7QB+r8gAAAAAAAAAGGJ8T0ArrvV3SbUZht9mGPybB2bmExdyLtMzdimYqmOPDxue9hrb3T+zrP7+FqxDr+xGW3rtV2qZ+tMzz9qZ4bbnNMPZos0xTpTERzdntVU9hnbz4OsfxEHsM7e/B1j+Ihasfj9Asr7avN+/8AMHNuyny/dVSdzO3sTxy+x+/hYfdTg82wGwOW4HObUWsZhbMWq4ivrcKeETr28Ih0g2+UbOYXK7tVyxVPLGk6tPnG0uMza3TbxEU/VnWNI0YcdvyyHMNod3eMyzK7VNzFXa7c0U1VaRwqiZ4uyG4xWGoxNmqzXzVRMebSYXEV4a/Reo56ZifJVT2GdvPg6z+/g9hnbz4Os/xELViIfQLK+2rzTL+YObdlPl+6qnsM7efB1n+Ig9hnb34Os/xELVh9Asr7avNn+YObdlPl+6Atxu7XazZ3ePhM2zXB2rWGtWrsVVU3YqnWadI4J77HoSPKcpsZZYmzYmdJnXlRnN82xGa4iL+I01005OTt/UAbRq3mY1R30jdls42q2ZwmFyaxRevWsR1qqa6+rHV0SMPJjsHbxmHqw9z7NT1YHF3MFiaMRa+1TzKqewzt58HWf4iD2GdvPg6z/EQtWIn9Asr7avNL/wCYObdlPl+6qnsM7efB1n+Ig9hnb34Os/xELVh9Asr7avNn+YObdlPl+6F+jlsDtLsrtPjMbnOFt2bN3Dep0TTc60zPWifsTPpw4siT5ZltnLsPGHszPFjXn9aK5pmV7MsTOJvacadOb1ADYNe89naizpKbG59tZZyyMlw9F6cPXVNfXr6umsJVHhzDAWsdhqsNd+zPZ5vbluPu5fiacTa041Pb3aKqewzt58HWf4iD2GdvPg6z/EQtWIt9Asr7avNLf5g5t2U+X7qqewzt58HWf4iD2Gdvfg6x/EQtWH0Cyvtq82P5g5t2U+X7on6NWxe0GyVzNZzvDUWvXMW/U+pcirXTra/SlWqJmmYmOfgexKcuy+1gMNTh7WvFjXn9c6opmWYXswxVWJvacadOb1Roj3eTum2d2oivE2rU4DHTrPq1iIiKp/xU9v0oT2z3RbX5DXVVbwf4Rw1PGLmGiZmPHTzWuYmNY49rT5pspl2Pma5p4tXbH6NzlW1uZZdEURVx6OyfhKjWJsXsPdm1iLNy1XHOm5TNMx5pfmurm+zuSZrbmnMcqwuJiefqlqJmfO5XMtzeweMqmr8FTh5n/gXJpQvE8H2Kpn+hdiY9fJKb4bhHwlUaX7UxPq5YVUOzVZmrcPsTNUzT6+pifzfXEvpwm5HYSxVFU4PEXZjsuXpqh46dg80mdJmnze2rhCyqI1imryVdp4zpHGZ7HR7LbCbVbQXYjL8ov9Sufy16nqUeeZ4rS5HsNsplGk4DIsHaqjt9SiZ+dvrdui3TFNFNNMR2RDd4Lg/iJicTd1jsiGjx3CNVMTGEs6TPXVPwhD+7zcTl2Aqoxe0t/wBfXo0n1vbjS1TPhnnV50uYHCYfB4enDYWxRZtURpTRRTEUxD6BOsvyrB4Cji4eiI9fXPtQHMc2xmY18fE1zVujuhiObHmehsIjRrgBkAAAAedeOmj4doMmy3O8vrweaYK1ibNcaTTXT9HebAfFdumumaa41iX1RXVbqiqidJhBG3e4Oqa7mK2WxsUx7qMLiZ181Nf3on2l2Q2lyG5VRmeT4m1TTP5Sm3NVGn+aOC52nB+WIsWr1PVu24rjvTGqG5jsRgMTPHsa0Verm8k0yzbvMcLEUXtLlPr5/NRvt0Fxc62B2RzWetjcgwVdU/nepxE/M57F7k9hL9WvrG/a48rd+aUWvcH+Opn+ncpn3JbY4RcBVH9W1VHlKrYsxO4jYrWZirHxr/8Afl9OG3H7CWaoq9a4q5MdleJql56dg80mdJmnzemrhBymI1iKp9n7qvTLa7P7NZ/nl2KMrynFYnX86m3PV+WVqcm3cbGZZVFzDbP4Prxyqro60/O6XC4bD4a3FvD2LdqiPzaKYpj5m2wnB7XxtcRe8o/VqMZwj0TTphrPL21T8IQLsDuFxl+ujE7UYyLNuOPraxOtU+Ors8yatldnMn2cy6nB5RgLWGtxz6lPtq578zzmW3E4yzIsDl0f0KPrds86BZpn2YZlP/UXPq9kckPMxrHmVu2y3O7bZltfmmYYbDYObOKxt29bmrEaTNNVc1U68O8smM5tkuGzSimi/rpE68ksZPnWKym5Vcw+msxpyxqq17CO3v6Lgv4qPuPYR29/RcF/FR9y0o0P0Dyn/V5pD/MDOP8AT5fuq17CO3v6Lgv4qPuJ3Ibe6T/uuB/io+5aUZjYTKY/F5sTt/nExp9Xy/dqtjMHfy/ZXL8DiaYpu4fDUW7kU8YiqKYidG07WRMbduLdFNEdSFXK5rrmuet5mHAdIfZnNtqNjbWCyezTdv04mmuaa6urHV4pBH4Y3CUYvD1WLnNVGj98Fi7mDxFGIt/apnWFVPYZ28+DrP7+D2GdvPg6z/EQtWIl9Asr7avNMf5g5t2U+X7qqewzt58HWf4iD2Gdvfg6z/EQtWH0Cyvtq8z+YObdlPl+6Eejxu+2o2W22v5hnGFtWsPXgqrUTTc609aa6J+yU2ace+9CS5XldjLsPGHs68XWZ5fWi2aZnfzLEziL2nGmIjk9Tjd4W7jZra23NWNwnqGLiPa4qxHVr8/fjxoP233K7U5NXVcy21TmuF11ibXC5EeGmea0RLX5psvl2YfWrp4tfbHI2WU7U5llsRRbr41H4Z5Y9nYo3j8Hi8DemzjcNew1yOdN23NM/JL8V2szyXKsxtzRjsvw+IiefqtuKnK5puj2FxszM5LRh9f+BVNKE4ng+xNM62LsTHr5JTnC8I+HqjS/ZmJ9XLCp52a9izd3cTsPVpNNOOp0/wDyZn6X7YbcfsLZriv1tirkx/fxMy8MbB5pM6a0+b3zwg5VEaxTV5fuq9Mt3s3sftLn1yKcsyfFXaKuHqk0TTR49ZWnyXd9sdlNUV4LIMHTVH5024qn53RWbNqxbim1apt096mNG4wfB9OuuJu+UNPjeEbWnTC2fbM/CEJ7vtwtuiqjF7VYv1WfdetcPOlMeCqrnKZcmyvAZTgKMFluEtYaxbjSm3bpiIh9onOW5Ngsuo4uHoiJ7eufagGZ51jsyq42JuTMdUdUexjRiaefhehtNGrAGQAAABjxvmzDA4XH4SrDYzD279muNKrdynWJ8z6h81UxVExPLDNMzTOsTpKF94G4fAYybmK2ZxHrO7PGcNc426p8E84Q/tVsLtVs9dqpzDKMR6nRP5azT16NPBMLkPzu26K40ro60Tw0lEMy2Ly/Fzx7X1KvVzeSY5XtxmWCpii7/Up9fP5qMzwq6s8J7wuRnmw2yebxPr7IsHcqn871KIn5nM47cjsLiK5qjCYi1VP/AA78wiV/g/x1M/0rlNUeSY4fhFwFUf1rdVM+yVXRZO9uE2RqmPU8Tj6IiOXquv0v1s7h9iqdPVJx1Wkaf1iY+h5I2EzaZ5qfN654QMoiNY43krO+nK8vx+ZXos5fhL+Jrnh1bNE1aePRajKd0ewuAqiYyS3fmO2/PXdXluVZbl9EW8FgcPh6Y5epW4pbPC8H1+qdb92Ij1cstZi+EfD0xph7MzPr5IV02H3IbS5tXRdzmqnK8NwmaavbXZ83KE37A7A7ObI4fTLMFFWImPb4m97a5X5+x1Qm+V7N5fl31rdGtXbPLKCZttNmOZ/Vu16Ufhjkj92NED7+N2+1e0m8G7meU4K1cw1ViimKqr0UzrGuvBPI9ma5VYzKx8hemdNdeR4spzW/leI+XsacbTTlVU9hnbz4OsfxEHsM7efB1n+IhasRv6BZX21eaTfzBzbsp8v3VU9hnbz4Os/xEHsM7efB1n9/C1YfQLK+2rzZ/mDm3ZT5fu4rcNs/mOze7vDZZmlqLWJt3rtVVNNXWjSquZji7SGRL8LhqMNYps0c1MRHkhuLxNeKv136+eqZmfaAPQ84AAAAAAAAAAADyc3oY0H4YzDWcTh6rGIsW71uuNKqLlEVU1eOJRjt1uP2ezeuvFZRXXlmIr1maaI1t1T4Y7PMlUeLHZbhMdRxMRRFUf8AOt7sDmeMwFfHw1yad0+xVHazdDtpktdVVGBjH2Y/9TDTrM+OlxOMwmLwd31LGYa9Yrjsu25pn514pjV8WZ5RlmYW5ox2X4bERPP1W1TUhWM2Aw9c8bDXJp9U8qc4HhFxVuOLirUVeuORSQ7NVtc03VbC42qZryHD26p51WtaJ+ZqL+43Ya5NVVNnG25n+7iZ4NBc2BzGmfqV0z7dEgtcImW1R9eiqPKfirCLNW9xGxEVa1Rjq/BOImGwwG5vYPC1RM5TN6Y/41yanzRsDmcz9aqmPa+q+ELK4j6tNU+zRVamJqriimJmqeURzl0Gzewm1eeVx6wyXEzRVP5S7RNuiPPPFa3J9ktmsrjTAZJg7Gn92zDc0UU0U6U0xER2RDc4Tg+pieNibuvqiGlxnCNXMcXC2dPXVP6IK2J3A1dai/tNmM6RxnD4Xh8tX3Jg2V2ZyXZ3Axhsoy61hqYjjNNMdarxzzluBNMuyLAZfH9C3Gvb1oRmWfZhmM/9RcmY7OaPJ514kPQ22jTgDIAAMVRrTMd+GQFZtsd0e22O2rzHF4fAWKrWIxNdduqb8a1UzM6Nb7DO3mv9nWP38LViGXdhstuV1VzVVy+tNrW3ma2rdNumKdIjTm/dVT2GdvPg6z/EQewzt58HWP4iFqx+f0Cyvtq836fzBzbsp8v3VTq3M7exE/8Aw6x/EQs9kFi7hskwuGu0xFy1ZppqiOWsRD7husn2fwuVVV1WJn62nP6mjznaHF5vFEYiI+rrzRpzgDetCAAAA8/nNXtLs9lG0GAqwmbYC1ibcxw69PGnxTzhth+dy1Rco4lcaw+7dyu1VFVE6SgbbrcFXE14jZjH60zxjDYr6Ir+9Fe0exm02Q3JpzLJsVbpieNymiaqdPHC5nJ+d+zbu0zFyiKonhpMIdmGxGAxE8ezrRPq5vJNMt28zLCxxL2lyn18/mo126dveFx862F2TzWJ9e5Dgrkz2+pRE/M5zGbk9hL9fW9Y37PxV+aUXvcH+Opn+ncpq9yV2OEXAVR/VtVU+UqtizPsD7E9bX/f9NddPXEvswe5TYTD1azgL12df/VvTU89OweaTOkzT5vRXwhZVEa001T7P3Va7dO2W+2c2L2ozy5TGXZNiqqap/KV0TRTEeOVqsl2H2UyrScDkODtTHb6lEz87fWrVu3RFNFFNMR2Uw3OD4PoidcTe9kR+rS43hGmaZpwtnT1zP6IM2E3B6V0YnajHa9s4bDcI89fP5Ex7OZDlGRZfTg8py+zhbVEaaW6eM+OectoJtl2SYHL6dLFEa9vWguZZ3j8xq1xFyZjs6vJjRj5eD0Ns1IAAAAAAADxV53jEWbV+1VZv26bluqNJpqp1iX7DE0xMaTzETMTqiXeJuPyXOK68ZkNz8GYqrjNuI1s1ebs8yGtrN2+12ztyqcZlN29aify+Gj1Sifk4wt+810xVGmnPnqieZbHZdjJmuiOJVPZ+iX5VtpmeBiLdU8emOqefz51GK6aqLk266ZpqidJpmNJhhc3PNjtmM4omnMckwV/XtmzGrl8duU2DxNfWjAXrPH/ANG9NKH4jg/xtM/0blNUeSZYfhGwVUf1rVVM+rSVWhZmncRsT19Z9fzGuvVm/L78BuZ2EwtUT+DK70x/xrs1PPRsFmcz9aqmPa9NfCFlURrTTVPs0+KrNi1cvXItWbddyueVNFOsz5odnsdur2w2hu01UZdVgrE87+K1oiI8Ec5WcyTZfZ/KaYpy7KMHh4jl1LUax523iJiNIj5G/wADwf2qZirFXNfVHIj+P4Rb1cTGEtRT655fdzI23b7nMh2cqt4vMI/CWOo4xXdp/o6J/wANPLz80j0URRTFNNOkRyiIfoJ1gsvw2Ct/J4eiKYQHG4/FY658pia5qn/nMjjpF7K51tXs3hcJk2Hou3bWI69VNdfV4ad9DfsM7e/B1j9/C1Y0uZ7K4HMcROIvTPGnTm9TeZVtbj8sw0YexFPF5+WFVPYZ28+DrH8RB7DO3vwdZ/iIWrGu+gWV9tXm2X8wc27KfL91VPYZ291/s6x/EQ73o8bvtp9lttcRmGb4S1asV4KqzE03OtPWmuifslNw9eB2PwGDxFOItzPGpnXneLH7Z5jjsNXhrsU8Wrsj9wBLESAAY5jIxoPGmvZLid4+6/ZzayKr9dj1njtOGKsxpVM/4o5T53cjzYrBYfF25tX6YqpntenC4zEYS5F2xXNNUdcKr7b7nNrcirqu4WxTmWGjjFeHn20eOmePyOCxmGxOEuep4vD3bFcc6btE0z8krx6axxa/NsiyfMqZpx+W4XERPP1S1Ez8qDY/YDD3J42FuTT6p5YT3L+ETFW6eLi7cV+uOSVJxa3Mt0GwmM11yemxrz9Qrmn6GsubiNiKp9pTjqI70YiZR+5sDmdM/Vqpn26JFb4Q8rqj69NUeyJVlPB31osJuR2FsVRVODxNzT/iYiqp0mR7BbI5ROuByHBUVR+dNuJn5362OD/HVT/UuU0x5vyv8IuApj+lbqqn2QqxsxsTtRn1ymnLcnxNVFc6eq109SjxzMpf3fbhsJhqqMXtRifXNce29bWeFEeCqecpns2aLdPVooimI4aRHB+sQleW7FZfhJ49369Xr5vJEMz25zLGUzRa/p0z2c/m+PKsvweW4KjCYHC0WLNuNKbdunSIfBvAy/EZpsXmWAwlHWv4jDV0W6ZnSJqmODdiW12KKrU2tNKZjREKL1dN2LuutUTryqqewzt58G2f4iD2GdvPg6z/ABELViHfQLK+2rzTSOEDNuyny/dVT2GdvPg6z/EQewzt78HWP4iFqw+gWV9tXmz/ADBzbsp8v3Vs2A3T7a5ZtrlmPxeBs02MNiIruVerRMxCyNPueXzPQ3+UZLh8rt1W7EzpM68qO5zneJza7TcxGmsRpyRoANw04AAAAAAAAAAAAADE69hpxZBjR58cPlx+XYHHW5oxmDs34mOVyiKn2D4qt0VxpVGsPumqqidaZ0lxOcbp9hsxmarmSWrNU/nWZmifmaLE7hdja6tbNzHWfFfmfpSmNZeyLLL327FM+xtLOe5pZ+7v1R7UQ/i/bN/CuYfLT9x+L9s58K5h8tP3JeHn+jGT/kQ9P0pzn/IqRD+L9s58K5h8tP3H4v2znwrmHy0/cl4Poxk/5EH0pzn/ACKkQ/i/bOfCuYfLT9x+L9s58K5h8tP3JeD6MZP+RB9Kc5/yKkQ/i/bOfCuYfLT9x+L9s58K5h8tP3JeD6MZP+RB9Kc5/wAipEP4v2znwrmHy0/cfi/bOfCuYfLT9yXg+jGT/kQfSnOf8ipEP4v2znwrmHy0/cfi/bOfCuYfLT9yXg+jGT/kQfSnOf8AIqRD+L9s18KZj8tP3Mfi/wCzfwpmPy0/cl8PoxlH5EH0pzn/ACKkX7MblsnyLO8PmuXZzmVu/h64qp406VR3p4cYSdGur0Nlg8vw2CpmjD0RTE9jWY3MMVjq4rxNc1THaAPY8YAAAAAAAAAByh8We4GrMcqv4OjEXcNVetzR6ra4V0a9sPtHzVTFUaSzTM0zEwiGrcBs3OtVWaZlNUzrM6068ec8uJ+L9s18KZj8tP3JeGknZnKJ57EN9G1GcxHJiKkQ/i/bOfCuYfLT9x+L9s58K5h8tP3JeGPoxk/5EH0pzn/IqRD+L9s58K5h8tP3H4v2znwrmHy0/cl4Poxk/wCRB9Kc5/yKkQ/i/bOfCuYfLT9x+L9s58K5h8tP3JeD6MZP+RB9Kc5/yKkQ/i/bOfCuYfLT9x+L9s58K5h8tP3JeD6MZP8AkQfSnOf8ipEP4v2znwrmHy0/cfi/bOfCuYfLT9yXg+jGT/kQfSnOf8ipEP4v2znwrmHy0/cfi/bOfCuYfLT9yXg+jGT/AJEH0pzn/IqRFR0f9mYqiasyzCuI/N1pj7H34LcXsTZ0qu2sZeqp/v35jX5EnD7o2cymidabFL4r2lziuNKsRV5uWyTd3sblVVNeEyDBxcj/ANSu31qvll0eHw9jD0xRYs0WqY5RRTER8z9hs7OEsWI0tURHdDVXsTfvzrdrmrvmWDwMj0PwAAAAAAAAAAAAAAAAAAAAAAAAAAAAAAAAAAAAAAAAAAAAAAAAAAAAAAAAAAAAAAAAAAAAAAAAYNODIDGknnZAHnR6AAAAAAAAAAAAAOTDIaAxOrIDHmOPgZAeZie8acHoY0Y0AGWQAAAAAAAAAAAAAAAAAGCYlkNBgZAY0Yq8UPQQaAAAAAAAAAAAAMRyIZGNBg8zIyMcT5GRjQeY1jvs6MjIAAAAAAAAAAAAAAAAAAAAAAAAAAAAx5jTvsgMR45ZANGOOpOneZAeSZegAAAAAAAAAAAAAAAAAAAAAAAADRjl32RjQYjmzIMjzEMsgMR4iYnwMgxoADIAAAAAAAAAAAAABowyAwSyAxEeM4shoAAAAAAAAAAAAAAAADGjIaDEaE6sjGgxBoyMsaMTGpyZGNGQBkAAAAAAAAAAAAAAAAAAAAAAAAAAAAAAAAAAAAAAAAAAAAAAAAAAAAAAAAAAAAAAAAAAAAAAAAAAAAAAAAAAAAAAAAAAAAAAAAAAAAAAAAAAAAAAAAAAAAAAAAAAAAAAAAAAAAAAAAAAAAAAAAAAAAAAAAAAAAAAAAAAAAAAAAAAAAAAAAAAAAAAAAAAAAAAAAAAAAAAAAAAAAAAAAAAAAAAAAAAAAAAAAAAAAAAAAAAAAAAAAAAAAAAAAAAAAAAAAAAAAAAAAAAAAAAAAAAAAAAAAAAAAAAAAAAAAAAAAAAAAAAAAAAAAAAAAAAAAAAAAAAAAAAAAAAAAAAAAAAAAAAAAAAAAAAAAAAAAAAAAAAAAAAAAAAAAAAAAAAAAAAAAAAAAAAAAAAAAAAAAAAAAAAAAAAAAAAAAAAAAAAAAAAAAAAAAAAAAAAAAAAAAAAAAAAAAAAAAAAAAAAAAAAAAAAAAAAAAAAAAAAAAAAAAAAAAAAAAAAAAAAAAAAAAAAAAAAAAAAAAAAAAAAAAAAAAAAAAAAAAAAAAAAAAAAAAAAAAAAAAAAAAAAAAAAAAAAAAAAAAAAAAAAAAAAAAAAAAAAAAAAAAAAAAAAAAAAAAAAAAAAAAAAAAAAAAAAAAAAAAAAAAAAAAAAAAAAAAAAAAAAAAAAAAAAAAAAAAAAAAAAAAAAAAAAAAAAAAAAAAAAAAAAAAAAAAAAAAAAAAAAAAAAAAAAAAAAAAAAAAAAAAAAAAAAAAAAAAAAAAAAAAAAAAAAAAAAAAAAAAAAAAAAAAAAAAAAAAAAAAAAAAAAAAAAAAAAAAAAAAAAAAAAAAAAAAAAAAAAAAAAAAAAAAAAAAAAAAAAAAAAAAAAAAAAAAAAAAAAAAAAAAAAAAAAAAAAAAAAAAAAAAAAAAAAAAAAAAAAAAAAAAAAAAAAAAAAAAAAAAAAAAAAAAAAAAAAAAAAAAAAAAAAAAAAAAAAAAAAAAAAAAAAAAAAAAAAAAAAAAAAAAAAAAAAAAAAAAAAAAAAAAAAAAAAAAAAAAAAAAAAAAAAAAAAAAAAAAAAAAAAAAAAAAAAAAAAAAAAAAAAAAAAAAAAAAAAAAAAAAAAAAAAAAAAAAAAAAAAAAAAAAAAAAAAAAAAAAAAAAAAAAAAAAAAAAAAAAAAAAAAAAAAAAAAAAAAAAAAAAAAAAAAAAAAAAAAAAAAAAAAAAAAAAAAAAAAAAAAAAAAAAAAAAAAAAAAAAAAAAAAAAAAAAAAAAAAAAAAAAAAAAAAAAAAAAAAAAAAAAAAAAAAAAAAAAAAAAAAAAAAAAAAAAAAAAAAAAAAAAAAAAAAAAAAAAAAAAAAAAAAAAAAAAAAAAAAAAAAAAAAAAAAAAAAAAAAAAAAAAAAAAAAAAAAAAAAAAAAAAAAAAAAAAAAAAAAAAAAAAAAAAAAAAAAAAAAAAAAAAAAAAAAAAAAAAAAAAAAAAAAAAAAAAAAAAAAAAAAAAAAAAAAAAAAAAAAAAAAAAAAAAAAAAAAAAAAAAAAAAAAAAAAAAAAAAAAAAAAAAAAAAAAAAAAAAAAAAAAAAAAAAAAAAAAAAAAAAAAAAAAAAAAAAAAAAAAAAAAAAAAAAAAAAAAAAAAAAAAAAAAAAAAAAAAAAAAAAAAAAAAAAAAAAAAAAAAAAAAAAAAAAAAAAAAAAAAAAAAAAAAAAAAAAAAAAAAAAAAAAAAAAAAAAAAAAAAAAAAAAAAAAAAAAAAAAAAAAAAAAAAAAAAAAAAAAAAAAAAAAAAAAAAAAAAAAAAAAAAAAAAAAAAAAAAAAAAAAAAAAAAAAAAAAAAAAAAAAAAAAAAAAAAAAAAAAAAAAAAAAAAAAAAAAAAAAAAAAAAAAAAAAAAAAAAAAAAAAAAAAAAAAAAAAAAAAAAAAAAAAAAAAAAAAAAAAAAAAAAAAAAAAAAAAAAAAAAAAAAAAAAAAAAAAAAAAAAAAAAAAAAAAAAAAAAAAAAAAAAAAAAAAAAAAAAAAAAAAAAAAAAAAAAAAAAAAAAAAAAAAAAAAAAAAAAAAAAAAAAAAAAAAAAAAAAAAAAAAAAAAAAAAAAAAAAAAAAAAAAAAAAAAAAAAAAAAAAAAAAAAAAAAAAAAAAAAAAAAAAAAAAAAAAAAAAAAAAAAAAAAAAAAAAAAAAAAAAAAAAAAAAAAAAAAAAAAAAAAAAAAAAAAAAAAAAAAAAAAAAAAAAAAAAAAAAAAAAAAAAAAAAAAAAAAAAAAAAAAAAAAAAAAAAAAAAAAAAAAAAAAAAAAAAAAAAAAAAAAAAAAAAAAAAAAAAAAAAAAAAAAAAAAAAAAAAAAAAAAAAAAAAAAAAAAAAAAAAAAAAAAAAAAAAAAAAAAAAAAAAAAAAAAAAAAAAAAAAAAAAAAAAAAAAAAAAAAAAAAAAAAAAAAAAAAAAAAAAAAAAAAAAAAAAAAAAAAAAAAAAAAAAAAAAAAAAAAAAAAAAAAAAAAAAAAAAAAAAAAAAAAAAAAAAAAAAAAAAAAAAAAAAAAAAAAAAAAAAAAAAAAAAAAAAAAAAAAAAAAAAAAAAAAAAAAAAAAAAAAAAAAAAAAAAAAAAAAAAAAAAAAAAAAAAAAAAAAAAAAAAAAAAAAAAAAAAAAAAAAAAAAAAAAAAAAAAAAAAAAAAAAAAAAAAAAAAAAAAAAAAAAAAAAAAAAAAAAAAAAAAAAAAAAAAAAAAAAAAAAAAAAAAAAAAAAAAAAAAAAAAAAAAAAAAAAAAAAAAAAAAAAAAAAAAAAAAAAAAAAAAAAAAAAAAAAAAAAAAAAAAAAAAAAAAAAAAAAAAAAAAAAAAAAAAAAAAAAAAAAAAAAAAAAAAAAAAAAAAAAAAAAAAAAAAAAAAAAAAAAAAAAAAAAAAAAAAAAAAAAAAAAAAAAAAAAAAAAAAAAAAAAAAAAAAAAAAAAAAAAAAAAAAAAAAAAAAAAAAAAAAAAAAAAAAAAAAAAAAAAAAAAAAAAAAAAAAAAAAAAAAAAAAAAAAAAAAAAAAAAAAAAAAAAAAAAAAAAAAAAAAAAAAAAAAAAAAAAAAAAAAAAAAAAAAAAAAAAAAAAAAAAAAAAAAAAAAAAAAAAAAAAAAAAAAAAAAAAAAAAAAAAAAAAAAAAAAAAAAAAAAAAAAAAAAAAAAAAAAAAAAAAAAAAAAAAAAAAAAAAAAAAAAAAAAAAAAAAAAAAAAAAAAAAAAAAAAAAAAAAAAAAAAAAAAAAAAAAAAAAAAAAAAAAAAAAAAAAAAAAAAAAAAAAAAAAAAAAAAAAAAAAAAAAAAAAAAAAAAAAAAAAAAAAAAAAAAAAAAAAAAAAAAAAAAAAAAAAAAAAAAAAAAAAAAAAAAAAAAAAAAAAAAAAAAAAAAAAAAAAAAAAAAAAAAAAAAAAAAAAAAAAAAAAAAAAAAAAAAAAAAAAAAAAAAAAAAAAAAAAAAAAAAAAAAAAAAAAAAAAAAAAAAAAAAAAAAAAAAAAAAAAAAAAAAAAAAAAAAAAAAAAAAAAAAAAAAAAAAAAAAAAAAAAAAAAAAAAAAAAAAAAAAAAAAAAAAAAAAAAAAAAAAAAAAAAAAAAAAAAAAAAAAAAAAAAAAAAAAAAAAAAAAAAAAAAAAAAAAAAAAAAAAAAAAAAAAAAAAAAAAAAAAAAAAAAAAAAAAAAAAAAAAAAAAAAAAAAAAAAAAAAAAAAAAAAAAAAAAAAAAAAAAAAAAAAAAAAAAAAAAAAAAAAAAAAAAAAAAAAAAAAAAAAAAAAAAAAAAAAAAAAAAAAAAAAAAAAAAAAAAAAAAAAAAAAAAAAAAAAAAAAAAAAAAAAAAAAAAAAAAAAAAAAAAAAAAAAAAAAAAAAAAAAAAAAAAAAAAAAAAAAAAAAAAAAAAAAAAAAAAAAAAAAAAAAAAAAAAAAAAAAAAAAAAAAAAAAAAAAAAAAAAAAAAAAAAAAAAAAAAAAAAAAAAAAAAAAAAAAAAAAAAAAAAAAAAAAAAAAAAAAAAAAAAAAAAAAAAAAAAAAAAAAAAAAAAAAAAAAAAAAAAAAAAAAAAAAAAAAAAAAAAAAAAAAAAAAAAAAAAAAAAAAAAAAAAAAAAAAAAAAAAAAAAAAAAAAAAAAAAAAAAAAAAAAAAAAAAAAAAAAAAAAAAAAAAAAAAAAAAAAAAAAAAAAAAAAAAAAAAAAAAAAAAAAAAAAAAAAAAAAAAAAAAAAAAAAAAAAAAAAAAAAAAAAAAAAAAAAAAAAAAAAAAAAAAAAAAAAAAAAAAAAAAAAAAAAAAAAAAAAAAAAAAAAAAAAAAAAAAAAAAAAAAAAAAAAAAAAAAAAAAAAAAAAAAAAAAAAAAAAAAAAAAAAAAAAAAAAAAAAAAAAAAAAAAAAAAAAAAAAAAAAAAAAAAAAAAAAAAAAAAAAAAAAAAAAAAAAAAAAAAAAAAAAAAAAAAAAAAAAAAAAAAAAAAAAAAAAAAAAAAAAAAAAAAAAAAAAAAAAAAAAAAAAAAAAAAAAAAAAAAAAAAAAAAAAAAAAAAAAAAAAAAAAAAAAAAAAAAAAAAAAAAAAAAAAAAAAAAAAAAAAAAAAAAAAAAAAAAAAAAAAAAAAAAAAAAAAAAAAAAAAAAAAAAAAAAAAAAAAAAAAAAAAAAAAAAAAAAAAAAAAAAAAAAAAAAAAAAAAAAAAAAAAAAAAAAAAAAAAAAAAAAAAAAAAAAAAAAAAAAAAAAAAAAAAAAAAAAAAAAAAAAAAAAAAAAAAAAAAAAAAAAAAAAAAAAAAAAAAAAAAAAAAAAAAAAAAAAAAAAAAAAAAAAAAAAAAAAAAAAAAAAAAAAAAAAAAAAAAAAAAAAAAAAAAAAAAAAAAAAAAAAAAAAAAAAAAAAAAAAAAAAAAAAAAAAAAAAAAAAAAAAAAAAAAAAAAAAAAAAAAAAAAAAAAAAAAAAAAAAAAAAAAAAAAAAAAAAAAAAAAAAAAAAAAAAAAAAAAAAAAAAAAAAAAAAAAAAAAAAAAAAAAAAAAAAAAAAAAAAAAAAAAAAAAAAAAAAAAAAAAAAAAAAAAAAAAAAAAAAAAAAAAAAAAAAAAAAAAAAAAAAAAAAAAAAAAAAAAAAAAAAAAAAAAAAAAAAAAAAAAAAAAAAAAAAAAAAAAAAAAAAAAAAAAAAAAAAAAAAAAAAAAAAAAAAAAAAAAAAAAAAAAAAAAAAAAAAAAAAAAAAAAAAAAAAAAAAAAAAAAAAAAAAAAAAAAAAAAAAAAAAAAAAAAAAAAAAAAAAAAAAAAAAAAAAAAAAAAAAAAAAAAAAAAAAAAAAAAAAAAAAAAAAAAAAAAAAAAAAAAAAAAAAAAAAAAAAAAAAAAAAAAAAAAAAAAAAAAAAAAAAAAAAAAAAAAAAAAAAAAAAAAAAAAAAAAAAAAAAAAAAAAAAAAAAAAAAAAAAAAAAAAAAAAAAAAAAAAAAAAAAAAAAAAAAAAAAAAAAAAAAAAAAAAAAAAAAAAAAAAAAAAAAAAAAAAAAAAAAAAAAAAAAAAAAAAAAAAAAAAAAAAAAAAAAAAAAAAAAAAAAAAAAAAAAAAAAAAAAAAAAAAAAAAAAAAAAAAAAAAAAAAAAAAAAAAAAAAAAAAAAAAAAAAAAAAAAAAAAAAAAAAAAAAAAAAAAAAAAAAAAAAAAAAAAAAAAAAAAAAAAAAAAAAAAAAAAAAAAAAAAAAAAAAAAAAAAAAAAAAAAAAAAAAAAAAAAAAAAAAAAAAAAAAAAAAAAAAAAAAAAAAAAAAAAAAAAAAAAAAAAAAAAAAAAAAAAAAAAAAAAAAAAAAAAAAAAAAAAAAAAAAAAAAAAAAAAAAAAAAAAAAAAAAAAAAAAAAAAAAAAAAAAAAAAAAAAAAAAAAAAAAAAAAAAAAAAAAAAAAAAAAAAAAAAAAAAAAAAAAAAAAAAAAAAAAAAAAAAAAAAAAAAAAAAAAAAAAAAAAAAAAAAAAAAAAAAAAAAAAAAAAAAAAAAAAAAAAAAAAAAAAAAAAAAAAAAAAAAAAAAAAAAAAAAAAAAAAAAAAAAAAAAAAAAAAAAAAAAAAAAAAAAAAAAAAAAAAAAAAAAAAAAAAAAAAAAAAAAAAAAAAAAAAAAAAAAAAAAAAAAAAAAAAAAAAAAAAAAAAAAAAAAAAAAAAAAAAAAAAAAAAAAAAAAAAAAAAAAAAAAAAAAAAAAAAAAAAAAAAAAAAAAAAAAAAAAAAAAAAAAAAAAAAAAAAAAAAAAAAAAAAAAAAAAAAAAAAAAAAAAAAAAAAAAAAAAAAAAAAAAAAAAAAAAAAAAAAAAAAAAAAAAAAAAAAAAAAAAAAAAAAAAAAAAAAAAAAAAAAAAAAAAAAAAAAAAAAAAAAAAAAAAAAAAAAAAAAAAAAAAAAAAAAAAAAAAAAAAAAAAAAAAAAAAAAAAAAAAAAAAAAAAAAAAAAAAAAAAAAAAAAAAAAAAAAAAAAAAAAAAAAAAAAAAAAAAAAAAAAAAAAAAAAAAAAAAAAAAAAAAAAAAAAAAAAAAAAAAAAAAAAAAAAAAAAAAAAAAAAAAAAAAAAAAAAAAAAAAAAAAAAAAAAAAAAAAAAAAAAAAAAAAAAAAAAAAAAAAAAAAAAAAAAAAAAAAAAAAAAAAAAAAAAAAAAAAAAAAAAAAAAAAAAAAAAAAAAAAAAAAAAAAAAAAAAAAAAAAAAAAAAAAAAAAAAAAAAAAAAAAAAAAAAAAAAAAAAAAAAAAAAAAAAAAAAAAAAAAAAAAAAAAAAAAAAAAAAAAAAAAAAAAAAAAAAAAAAAAAAAAAAAAAAAAAAAAAAAAAAAAAAAAAAAAAAAAAAAAAAAAAAAAAAAAAAAAAAAAAAAAAAAAAAAAAAAAAAAAAAAAAAAAAAAAAAAAAAAAAAAAAAAAAAAAAAAAAAAAAAAAAAAAAAAAAAAAAAAAAAAAAAAAAAAAAAAAAAAAAAAAAAAAAAAAAAAAAAAAAAAAAAAAAAAAAAAAAAAAAAAAAAAAAAAAAAAAAAAAAAAAAAAAAAAAAAAAAAAAAAAAAAAAAAAAAAAAAAAAAAAAAAAAAAAAAAAAAAAAAAAAAAAAAAAAAAAAAAAAAAAAAAAAAAAAAAAAAAAAAAAAAAAAAAAAAAAAAAAAAAAAAAAAAAAAAAAAAAAAAAAAAAAAAAAAAAAAAAAAAAAAAAAAAAAAAAAAAAAAAAAAAAAAAAAAAAAAAAAAAAAAAAAAAAAAAAAAAAAAAAAAAAAAAAAAAAAAAAAAAAAAAAAAAAAAAAAAAAAAAAAAAAAAAAAAAAAAAAAAAAAAAAAAAAAAAAAAAAAAAAAAAAAAAAAAAAAAAAAAAAAAAAAAAAAAAAAAAAAAAAAAAAAAAAAAAAAAAAAAAAAAAAAAAAAAAAAAAAAAAAAAAAAAAAAAAAAAAAAAAAAAAAAAAAAAAAAAAAAAAAAAAAAAAAAAAAAAAAAAAAAAAAAAAAAAAAAAAAAAAAAAAAAAAAAAAAAAAAAAAAAAAAAAAAAAAAAAAAAAAAAAAAAAAAAAAAAAAAAAAAAAAAAAAAAAAAAAAAAAAAAAAAAAAAAAAAAAAAAAAAAAAAAAAAAAAAAAAAAAAAAAAAAAAAAAAAAAAAAAAAAAAAAAAAAAAAAAAAAAAAAAAAAAAAAAAAAAAAAAAAAAAAAAAAAAAAAAAAAAAAAAAAAAAAAAAAAAAAAAAAAAAAAAAAAAAAAAAAAAAAAAAAAAAAAAAAAAAAAAAAAAAAAAAAAAAAAAAAAAAAAAAAAAAAAAAAAAAAAAAAAAAAAAAAAAAAAAAAAAAAAAAAAAAAAAAAAAAAAAAAAAAAAAAAAAAAAAAAAAAAAAAAAAAAAAAAAAAAAAAAAAAAAAAAAAAAAAAAAAAAAAAAAAAAAAAAAAAAAAAAAAAAAAAAAAAAAAAAAAAAAAAAAAAAAAAAAAAAAAAAAAAAAAAAAAAAAAAAAAAAAAAAAAAAAAAAAAAAAAAAAAAAAAAAAAAAAAAAAAAAAAAAAAAAAAAAAAAAAAAAAAAAAAAAAAAAAAAAAAAAAAAAAAAAAAAAAAAAAAAAAAAAAAAAAAAAAAAAAAAAAAAAAAAAAAAAAAAAAAAAAAAAAAAAAAAAAAAAAAAAAAAAAAAAAAAAAAAAAAAAAAAAAAAAAAAAAAAAAAAAAAAAAAAAAAAAAAAAAAAAAAAAAAAAAAAAAAAAAAAAAAAAAAAAAAAAAAAAAAAAAAAAAAAAAAAAAAAAAAAAAAAAAAAAAAAAAAAAAAAAAAAAAAAAAAAAAAAAAAAAAAAAAAAAAAAAAAAAAAAAAAAAAAAAAAAAAAAAAAAAAAAAAAAAAAAAAAAAAAAAAAAAAAAAAAAAAAAAAAAAAAAAAAAAAAAAAAAAAAAAAAAAAAAAAAAAAAAAAAAAAAAAAAAAAAAAAAAAAAAAAAAAAAAAAAAAAAAAAAAAAAAAAAAAAAAAAAAAAAAAAAAAAAAAAAAAAAAAAAAAAAAAAAAAAAAAAAAAAAAAAAAAAAAAAAAAAAAAAAAAAAAAAAAAAAAAAAAAAAAAAAAAAAAAAAAAAAAAAAAAAAAAAAAAAAAAAAAAAAAAAAAAAAAAAAAAAAAAAAAAAAAAAAAAAAAAAAAAAAAAAAAAAAAAAAAAAAAAAAAAAAAAAAAAAAAAAAAAAAAAAAAAAAAAAAAAAAAAAAAAAAAAAAAAAAAAAAAAAAAAAAAAAAAAAAAAAAAAAAAAAAAAAAAAAAAAAAAAAAAAAAAAAAAAAAAAAAAAAAAAAAAAAAAAAAAAAAAAAAAAAAAAAAAAAAAAAAAAAAAAAAAAAAAAAAAAAAAAAAAAAAAAAAAAAAAAAAAAAAAAAAAAAAAAAAAAAAAAAAAAAAAAAAAAAAAAAAAAAAAAAAAAAAAAAAAAAAAAAAAAAAAAAAAAAAAAAAAAAAAAAAAAAAAAAAAAAAAAAAAAAAAAAAAAAAAAAAAAAAAAAAAAAAAAAAAAAAAAAAAAAAAAAAAAAAAAAAAAAAAAAAAAAAAAAAAAAAAAAAAAAAAAAAAAAAAAAAAAAAAAAAAAAAAAAAAAAAAAAAAAAAAAAAAAAAAAAAAAAAAAAAAAAAAAAAAAAAAAAAAAAAAAAAAAAAAAAAAAAAAAAAAAAAAAAAAAAAAAAAAAAAAAAAAAAAAAAAAAAAAAAAAAAAAAAAAAAAAAAAAAAAAAAAAAAAAAAAAAAAAAAAAAAAAAAAAAAAAAAAAAAAAAAAAAAAAAAAAAAAAAAAAAAAAAAAAAAAAAAAAAAAAAAAAAAAAAAAAAAAAAAAAAAAAAAAAAAAAAAAAAAAAAAAAAAAAAAAAAAAAAAAAAAAAAAAAAAAAAAAAAAAAAAAAAAAAAAAAAAAAAAAAAAAAAAAAAAAAAAAAAAAAAAAAAAAAAAAAAAAAAAAAAAAAAAAAAAAAAAAAAAAAAAAAAAAAAAAAAAAAAAAAAAAAAAAAAAAAAAAAAAAAAAAAAAAAAAAAAAAAAAAAAAAAAAAAAAAAAAAAAAAAAAAAAAAAAAAAAAAAAAAAAAAAAAAAAAAAAAAAAAAAAAAAAAAAAAAAAAAAAAAAAAAAAAAAAAAAAAAAAAAAAAAAAAAAAAAAAAAAAAAAAAAAAAAAAAAAAAAAAAAAAAAAAAAAAAAAAAAAAAAAAAAAAAAAAAAAAAAAAAAAAAAAAAAAAAAAAAAAAAAAAAAAAAAAAAAAAAAAAAAAAAAAAAAAAAAAAAAAAAAAAAAAAAAAAAAAAAAAAAAAAAAAAAAAAAAAAAAAAAAAAAAAAAAAAAAAAAAAAAAAAAAAAAAAAAAAAAAAAAAAAAAAAAAAAAAAAAAAAAAAAAAAAAAAAAAAAAAAAAAAAAAAAAAAAAAAAAAAAAAAAAAAAAAAAAAAAAAAAAAAAAAAAAAAAAAAAAAAAAAAAAAAAAAAAAAAAAAAAAAAAAAAAAAAAAAAAAAAAAAAAAAAAAAAAAAAAAAAAAAAAAAAAAAAAAAAAAAAAAAAAAAAAAAAAAAAAAAAAAAAAAAAAAAAAAAAAAAAAAAAAAAAAAAAAAAAAAAAAAAAAAAAAAAAAAAAAAAAAAAAAAAAAAAAAAAAAAAAAAAAAAAAAAAAAAAAAAAAAAAAAAAAAAAAAAAAAAAAAAAAAAAAAAAAAAAAAAAAAAAAAAAAAAAAAAAAAAAAAAAAAAAAAAAAAAAAAAAAAAAAAAAAAAAAAAAAAAAAAAAAAAAAAAAAAAAAAAAAAAAAAAAAAAAAAAAAAAAAAAAAAAAAAAAAAAAAAAAAAAAAAAAAAAAAAAAAAAAAAAAAAAAAAAAAAAAAAAAAAAAAAAAAAAAAAAAAAAAAAAAAAAAAAAAAAAAAAAAAAAAAAAAAAAAAAAAAAAAAAAAAAAAAAAAAAAAAAAAAAAAAAAAAAAAAAAAAAAAAAAAAAAAAAAAAAAAAAAAAAAAAAAAAAAAAAAAAAAAAAAAAAAAAAAAAAAAAAAAAAAAAAAAAAAAAAAAAAAAAAAAAAAAAAAAAAAAAAAAAAAAAAAAAAAAAAAAAAAAAAAAAAAAAAAAAAAAAAAAAAAAAAAAAAAAAAAAAAAAAAAAAAAAAAAAAAAAAAAAAAAAAAAAAAAAAAAAAAAAAAAAAAAAAAAAAAAAAAAAAAAAAAAAAAAAAAAAAAAAAAAAAAAAAAAAAAAAAAAAAAAAAAAAAAAAAAAAAAAAAAAAAAAAAAAAAAAAAAAAAAAAAAAAAAAAAAAAAAAAAAAAAAAAAAAAAAAAAAAAAAAAAAAAAAAAAAAAAAAAAAAAAAAAAAAAAAAAAAAAAAAAAAAAAAAAAAAAAAAAAAAAAAAAAAAAAAAAAAAAAAAAAAAAAAAAAAAAAAAAAAAAAAAAAAAAAAAAAAAAAAAAAAAAAAAAAAAAAAAAAAAAAAAAAAAAAAAAAAAAAAAAAAAAAAAAAAAAAAAAAAAAAAAAAAAAAAAAAAAAAAAAAAAAAAAAAAAAAAAAAAAAAAAAAAAAAAAAAAAAAAAAAAAAAAAAAAAAAAAAAAAAAAAAAAAAAAAAAAAAAAAAAAAAAAAAAAAAAAAAAAAAAAAAAAAAAAAAAAAAAAAAAAAAAAAAAAAAAAAAAAAAAAAAAAAAAAAAAAAAAAAAAAAAAAAAAAAAAAAAAAAAAAAAAAAAAAAAAAAAAAAAAAAAAAAAAAAAAAAAAAAAAAAAAAAAAAAAAAAAAAAAAAAAAAAAAAAAAAAAAAAAAAAAAAAAAAAAAAAAAAAAAAAAAAAAAAAAAAAAAAAAAAAAAAAAAAAAAAAAAAf/2Q==;" vertex="1" parent="1">
          <mxGeometry x="109.99000000000001" y="820" width="114.71" height="60" as="geometry" />
        </mxCell>
        <object label="Ali Cloud S3" id="gx3IbBur36U3xI308H9o-2">
          <mxCell style="sketch=0;outlineConnect=0;fontColor=#232F3E;gradientColor=none;strokeColor=#ffffff;fillColor=#232F3E;dashed=0;verticalLabelPosition=middle;verticalAlign=bottom;align=center;html=1;whiteSpace=wrap;fontSize=10;fontStyle=1;spacing=3;shape=mxgraph.aws4.productIcon;prIcon=mxgraph.aws4.s3;" vertex="1" parent="1">
            <mxGeometry x="132.35" y="917.4" width="70" height="85.2" as="geometry" />
          </mxCell>
        </object>
        <mxCell id="gx3IbBur36U3xI308H9o-3" value="File - S3" style="sketch=0;outlineConnect=0;fontColor=#232F3E;gradientColor=none;strokeColor=#ffffff;fillColor=#232F3E;dashed=0;verticalLabelPosition=middle;verticalAlign=bottom;align=center;html=1;whiteSpace=wrap;fontSize=10;fontStyle=1;spacing=3;shape=mxgraph.aws4.productIcon;prIcon=mxgraph.aws4.elastic_file_system;" vertex="1" parent="1">
          <mxGeometry x="250" y="920" width="60" height="80" as="geometry" />
        </mxCell>
        <mxCell id="gx3IbBur36U3xI308H9o-18" value="" style="edgeStyle=orthogonalEdgeStyle;rounded=0;orthogonalLoop=1;jettySize=auto;html=1;" edge="1" parent="1" source="gx3IbBur36U3xI308H9o-4" target="gx3IbBur36U3xI308H9o-5">
          <mxGeometry relative="1" as="geometry" />
        </mxCell>
        <mxCell id="gx3IbBur36U3xI308H9o-4" value="" style="image;aspect=fixed;html=1;points=[];align=center;fontSize=12;image=img/lib/azure2/security/Key_Vaults.svg;" vertex="1" parent="1">
          <mxGeometry x="640" y="820" width="40" height="40" as="geometry" />
        </mxCell>
        <mxCell id="gx3IbBur36U3xI308H9o-20" style="edgeStyle=orthogonalEdgeStyle;rounded=0;orthogonalLoop=1;jettySize=auto;html=1;" edge="1" parent="1" source="gx3IbBur36U3xI308H9o-5" target="gx3IbBur36U3xI308H9o-13">
          <mxGeometry relative="1" as="geometry" />
        </mxCell>
        <mxCell id="gx3IbBur36U3xI308H9o-5" value="" style="shadow=0;dashed=0;html=1;strokeColor=none;fillColor=#EF8F21;labelPosition=center;verticalLabelPosition=bottom;verticalAlign=top;align=center;outlineConnect=0;shape=mxgraph.veeam.2d.end_to_end_encryption;" vertex="1" parent="1">
          <mxGeometry x="640.31" y="914.8" width="39.69" height="40" as="geometry" />
        </mxCell>
        <mxCell id="gx3IbBur36U3xI308H9o-6" value="" style="shape=image;html=1;verticalAlign=top;verticalLabelPosition=bottom;labelBackgroundColor=#ffffff;imageAspect=0;aspect=fixed;image=https://cdn1.iconfinder.com/data/icons/competitive-strategy-and-corporate-training/512/566_encryption_files_folder_network_secure_cyber_spot_security-128.png" vertex="1" parent="1">
          <mxGeometry x="183.0000000000001" y="1060" width="80" height="80" as="geometry" />
        </mxCell>
        <mxCell id="gx3IbBur36U3xI308H9o-9" value="File - S3" style="sketch=0;outlineConnect=0;fontColor=#232F3E;gradientColor=none;strokeColor=#ffffff;fillColor=#232F3E;dashed=0;verticalLabelPosition=middle;verticalAlign=bottom;align=center;html=1;whiteSpace=wrap;fontSize=10;fontStyle=1;spacing=3;shape=mxgraph.aws4.productIcon;prIcon=mxgraph.aws4.elastic_file_system;" vertex="1" parent="1">
          <mxGeometry x="327" y="920" width="60" height="80" as="geometry" />
        </mxCell>
        <mxCell id="gx3IbBur36U3xI308H9o-12" value="" style="sketch=0;points=[[0,0,0],[0.25,0,0],[0.5,0,0],[0.75,0,0],[1,0,0],[0,1,0],[0.25,1,0],[0.5,1,0],[0.75,1,0],[1,1,0],[0,0.25,0],[0,0.5,0],[0,0.75,0],[1,0.25,0],[1,0.5,0],[1,0.75,0]];outlineConnect=0;fontColor=#232F3E;fillColor=#C925D1;strokeColor=#ffffff;dashed=0;verticalLabelPosition=bottom;verticalAlign=top;align=center;html=1;fontSize=12;fontStyle=0;aspect=fixed;shape=mxgraph.aws4.resourceIcon;resIcon=mxgraph.aws4.documentdb_with_mongodb_compatibility;" vertex="1" parent="1">
          <mxGeometry x="263" y="1030" width="40" height="40" as="geometry" />
        </mxCell>
        <mxCell id="gx3IbBur36U3xI308H9o-13" value="File - S3" style="sketch=0;outlineConnect=0;fontColor=#232F3E;gradientColor=none;strokeColor=#ffffff;fillColor=#232F3E;dashed=0;verticalLabelPosition=middle;verticalAlign=bottom;align=center;html=1;whiteSpace=wrap;fontSize=10;fontStyle=1;spacing=3;shape=mxgraph.aws4.productIcon;prIcon=mxgraph.aws4.elastic_file_system;" vertex="1" parent="1">
          <mxGeometry x="400" y="920" width="60" height="80" as="geometry" />
        </mxCell>
        <mxCell id="gx3IbBur36U3xI308H9o-15" value="" style="sketch=0;points=[[0,0,0],[0.25,0,0],[0.5,0,0],[0.75,0,0],[1,0,0],[0,1,0],[0.25,1,0],[0.5,1,0],[0.75,1,0],[1,1,0],[0,0.25,0],[0,0.5,0],[0,0.75,0],[1,0.25,0],[1,0.5,0],[1,0.75,0]];outlineConnect=0;fontColor=#232F3E;fillColor=#C925D1;strokeColor=#ffffff;dashed=0;verticalLabelPosition=bottom;verticalAlign=top;align=center;html=1;fontSize=12;fontStyle=0;aspect=fixed;shape=mxgraph.aws4.resourceIcon;resIcon=mxgraph.aws4.documentdb_with_mongodb_compatibility;" vertex="1" parent="1">
          <mxGeometry x="337" y="1030" width="40" height="40" as="geometry" />
        </mxCell>
        <mxCell id="gx3IbBur36U3xI308H9o-16" value="" style="sketch=0;points=[[0,0,0],[0.25,0,0],[0.5,0,0],[0.75,0,0],[1,0,0],[0,1,0],[0.25,1,0],[0.5,1,0],[0.75,1,0],[1,1,0],[0,0.25,0],[0,0.5,0],[0,0.75,0],[1,0.25,0],[1,0.5,0],[1,0.75,0]];outlineConnect=0;fontColor=#232F3E;fillColor=#C925D1;strokeColor=#ffffff;dashed=0;verticalLabelPosition=bottom;verticalAlign=top;align=center;html=1;fontSize=12;fontStyle=0;aspect=fixed;shape=mxgraph.aws4.resourceIcon;resIcon=mxgraph.aws4.documentdb_with_mongodb_compatibility;" vertex="1" parent="1">
          <mxGeometry x="410" y="1030" width="40" height="40" as="geometry" />
        </mxCell>
        <mxCell id="gx3IbBur36U3xI308H9o-17" value="Vault" style="text;html=1;strokeColor=none;fillColor=none;align=center;verticalAlign=middle;whiteSpace=wrap;rounded=0;" vertex="1" parent="1">
          <mxGeometry x="670" y="820" width="60" height="30" as="geometry" />
        </mxCell>
        <mxCell id="gx3IbBur36U3xI308H9o-22" style="edgeStyle=orthogonalEdgeStyle;rounded=0;orthogonalLoop=1;jettySize=auto;html=1;entryX=0.5;entryY=1;entryDx=0;entryDy=0;entryPerimeter=0;" edge="1" parent="1" source="gx3IbBur36U3xI308H9o-5" target="gx3IbBur36U3xI308H9o-16">
          <mxGeometry relative="1" as="geometry">
            <Array as="points">
              <mxPoint x="550" y="935" />
              <mxPoint x="550" y="1090" />
              <mxPoint x="430" y="1090" />
            </Array>
          </mxGeometry>
        </mxCell>
        <mxCell id="gx3IbBur36U3xI308H9o-25" value="Encryption" style="text;html=1;strokeColor=none;fillColor=none;align=center;verticalAlign=middle;whiteSpace=wrap;rounded=0;" vertex="1" parent="1">
          <mxGeometry x="487" y="924.8" width="60" height="30" as="geometry" />
        </mxCell>
        <mxCell id="gx3IbBur36U3xI308H9o-27" value="KMS-AES-256" style="text;html=1;strokeColor=none;fillColor=none;align=center;verticalAlign=middle;whiteSpace=wrap;rounded=0;" vertex="1" parent="1">
          <mxGeometry x="630.15" y="970" width="60" height="30" as="geometry" />
        </mxCell>
        <mxCell id="gx3IbBur36U3xI308H9o-28" value="Databases" style="text;html=1;strokeColor=none;fillColor=none;align=center;verticalAlign=middle;whiteSpace=wrap;rounded=0;" vertex="1" parent="1">
          <mxGeometry x="327" y="1080" width="60" height="30" as="geometry" />
        </mxCell>
        <mxCell id="gx3IbBur36U3xI308H9o-30" value="S3 KMS&amp;nbsp;" style="text;html=1;strokeColor=none;fillColor=none;align=center;verticalAlign=middle;whiteSpace=wrap;rounded=0;" vertex="1" parent="1">
          <mxGeometry x="680" y="870" width="60" height="30" as="geometry" />
        </mxCell>
        <mxCell id="gx3IbBur36U3xI308H9o-31" value="Logical&amp;nbsp;" style="text;html=1;strokeColor=none;fillColor=none;align=center;verticalAlign=middle;whiteSpace=wrap;rounded=0;" vertex="1" parent="1">
          <mxGeometry x="400" y="894.8" width="90" height="30" as="geometry" />
        </mxCell>
        <mxCell id="gx3IbBur36U3xI308H9o-32" value="Change per month" style="text;html=1;strokeColor=none;fillColor=none;align=center;verticalAlign=middle;whiteSpace=wrap;rounded=0;" vertex="1" parent="1">
          <mxGeometry x="630.15" y="1010" width="60" height="30" as="geometry" />
        </mxCell>
        <mxCell id="gx3IbBur36U3xI308H9o-46" value="" style="group" vertex="1" connectable="0" parent="1">
          <mxGeometry x="539.9999999999999" y="380" width="137" height="60" as="geometry" />
        </mxCell>
        <mxCell id="gx3IbBur36U3xI308H9o-40" value="Data Classification" style="html=1;shape=mxgraph.sysml.callBehAct;whiteSpace=wrap;align=center;" vertex="1" parent="gx3IbBur36U3xI308H9o-46">
          <mxGeometry width="137" height="50.526315789473685" as="geometry" />
        </mxCell>
        <mxCell id="gx3IbBur36U3xI308H9o-41" value="" style="sketch=0;outlineConnect=0;fontColor=#232F3E;gradientColor=none;fillColor=#E7157B;strokeColor=none;dashed=0;verticalLabelPosition=bottom;verticalAlign=top;align=center;html=1;fontSize=12;fontStyle=0;aspect=fixed;pointerEvents=1;shape=mxgraph.aws4.template;" vertex="1" parent="gx3IbBur36U3xI308H9o-46">
          <mxGeometry x="101.32006249999993" y="28.421052631578945" width="26.317894736842106" height="31.578947368421048" as="geometry" />
        </mxCell>
        <mxCell id="gx3IbBur36U3xI308H9o-48" value="" style="sketch=0;points=[[0,0,0],[0.25,0,0],[0.5,0,0],[0.75,0,0],[1,0,0],[0,1,0],[0.25,1,0],[0.5,1,0],[0.75,1,0],[1,1,0],[0,0.25,0],[0,0.5,0],[0,0.75,0],[1,0.25,0],[1,0.5,0],[1,0.75,0]];outlineConnect=0;fontColor=#232F3E;fillColor=#C925D1;strokeColor=#ffffff;dashed=0;verticalLabelPosition=bottom;verticalAlign=top;align=center;html=1;fontSize=12;fontStyle=0;aspect=fixed;shape=mxgraph.aws4.resourceIcon;resIcon=mxgraph.aws4.documentdb_with_mongodb_compatibility;" vertex="1" parent="gx3IbBur36U3xI308H9o-46">
          <mxGeometry x="101.32006250000003" y="-6.315789473684211" width="25.263157894736842" height="25.263157894736842" as="geometry" />
        </mxCell>
        <mxCell id="gx3IbBur36U3xI308H9o-87" value="" style="edgeStyle=orthogonalEdgeStyle;rounded=0;orthogonalLoop=1;jettySize=auto;html=1;" edge="1" parent="1" source="gx3IbBur36U3xI308H9o-57" target="gx3IbBur36U3xI308H9o-86">
          <mxGeometry relative="1" as="geometry" />
        </mxCell>
        <mxCell id="gx3IbBur36U3xI308H9o-57" value="Users" style="sketch=0;outlineConnect=0;fontColor=#232F3E;gradientColor=none;strokeColor=#232F3E;fillColor=#ffffff;dashed=0;verticalLabelPosition=bottom;verticalAlign=top;align=center;html=1;fontSize=12;fontStyle=0;aspect=fixed;shape=mxgraph.aws4.resourceIcon;resIcon=mxgraph.aws4.users;" vertex="1" parent="1">
          <mxGeometry x="87.64" y="10" width="60" height="60" as="geometry" />
        </mxCell>
        <mxCell id="gx3IbBur36U3xI308H9o-58" value="" style="group" vertex="1" connectable="0" parent="1">
          <mxGeometry x="358.28" y="100" width="103.44" height="50" as="geometry" />
        </mxCell>
        <mxCell id="gx3IbBur36U3xI308H9o-54" value="" style="image;html=1;image=img/lib/clip_art/networking/Firewall_02_128x128.png" vertex="1" parent="gx3IbBur36U3xI308H9o-58">
          <mxGeometry width="50" height="50" as="geometry" />
        </mxCell>
        <mxCell id="gx3IbBur36U3xI308H9o-55" value="Firewall" style="text;html=1;strokeColor=none;fillColor=none;align=center;verticalAlign=middle;whiteSpace=wrap;rounded=0;" vertex="1" parent="gx3IbBur36U3xI308H9o-58">
          <mxGeometry x="43.44" y="10" width="60" height="30" as="geometry" />
        </mxCell>
        <mxCell id="gx3IbBur36U3xI308H9o-59" value="" style="group" vertex="1" connectable="0" parent="1">
          <mxGeometry x="323.56" y="180" width="312.74" height="60" as="geometry" />
        </mxCell>
        <mxCell id="gx3IbBur36U3xI308H9o-111" value="Http" style="text;html=1;strokeColor=none;fillColor=none;align=center;verticalAlign=middle;whiteSpace=wrap;rounded=0;" vertex="1" parent="gx3IbBur36U3xI308H9o-59">
          <mxGeometry x="90.44" y="36" width="60" height="30" as="geometry" />
        </mxCell>
        <mxCell id="gx3IbBur36U3xI308H9o-152" value="Load Balancer" style="rounded=1;whiteSpace=wrap;html=1;" vertex="1" parent="gx3IbBur36U3xI308H9o-59">
          <mxGeometry x="-113.86000000000001" width="426.6" height="40" as="geometry" />
        </mxCell>
        <mxCell id="gx3IbBur36U3xI308H9o-75" style="edgeStyle=orthogonalEdgeStyle;rounded=0;orthogonalLoop=1;jettySize=auto;html=1;exitX=0;exitY=0.5;exitDx=0;exitDy=0;entryX=1;entryY=0.5;entryDx=0;entryDy=0;strokeColor=#006600;" edge="1" parent="1" source="gx3IbBur36U3xI308H9o-6" target="gx3IbBur36U3xI308H9o-73">
          <mxGeometry relative="1" as="geometry" />
        </mxCell>
        <mxCell id="gx3IbBur36U3xI308H9o-76" value="&lt;font color=&quot;#006600&quot;&gt;Backup&lt;/font&gt;" style="text;html=1;strokeColor=none;fillColor=none;align=center;verticalAlign=middle;whiteSpace=wrap;rounded=0;" vertex="1" parent="1">
          <mxGeometry x="100" y="1050" width="60" height="30" as="geometry" />
        </mxCell>
        <mxCell id="gx3IbBur36U3xI308H9o-81" value="" style="edgeStyle=orthogonalEdgeStyle;rounded=0;orthogonalLoop=1;jettySize=auto;html=1;" edge="1" parent="1" source="gx3IbBur36U3xI308H9o-54">
          <mxGeometry relative="1" as="geometry">
            <mxPoint x="420" y="185" as="targetPoint" />
          </mxGeometry>
        </mxCell>
        <mxCell id="gx3IbBur36U3xI308H9o-82" value="" style="group" vertex="1" connectable="0" parent="1">
          <mxGeometry x="350" y="240" width="100" height="40" as="geometry" />
        </mxCell>
        <mxCell id="gx3IbBur36U3xI308H9o-60" value="" style="sketch=0;points=[[0,0,0],[0.25,0,0],[0.5,0,0],[0.75,0,0],[1,0,0],[0,1,0],[0.25,1,0],[0.5,1,0],[0.75,1,0],[1,1,0],[0,0.25,0],[0,0.5,0],[0,0.75,0],[1,0.25,0],[1,0.5,0],[1,0.75,0]];outlineConnect=0;fontColor=#232F3E;fillColor=#DD344C;strokeColor=#ffffff;dashed=0;verticalLabelPosition=bottom;verticalAlign=top;align=center;html=1;fontSize=12;fontStyle=0;aspect=fixed;shape=mxgraph.aws4.resourceIcon;resIcon=mxgraph.aws4.waf;" vertex="1" parent="gx3IbBur36U3xI308H9o-82">
          <mxGeometry width="40" height="40" as="geometry" />
        </mxCell>
        <mxCell id="gx3IbBur36U3xI308H9o-61" value="WAF" style="text;html=1;strokeColor=none;fillColor=none;align=center;verticalAlign=middle;whiteSpace=wrap;rounded=0;" vertex="1" parent="gx3IbBur36U3xI308H9o-82">
          <mxGeometry x="40" y="5" width="60" height="30" as="geometry" />
        </mxCell>
        <mxCell id="gx3IbBur36U3xI308H9o-83" value="" style="edgeStyle=orthogonalEdgeStyle;rounded=0;orthogonalLoop=1;jettySize=auto;html=1;" edge="1" parent="1" target="gx3IbBur36U3xI308H9o-61">
          <mxGeometry relative="1" as="geometry">
            <mxPoint x="420" y="215" as="sourcePoint" />
          </mxGeometry>
        </mxCell>
        <mxCell id="gx3IbBur36U3xI308H9o-85" value="API gateweay" style="rounded=1;whiteSpace=wrap;html=1;" vertex="1" parent="1">
          <mxGeometry x="212.35" y="320" width="427.65" height="40" as="geometry" />
        </mxCell>
        <mxCell id="gx3IbBur36U3xI308H9o-88" value="" style="edgeStyle=orthogonalEdgeStyle;rounded=0;orthogonalLoop=1;jettySize=auto;html=1;" edge="1" parent="1" source="gx3IbBur36U3xI308H9o-86" target="gx3IbBur36U3xI308H9o-54">
          <mxGeometry relative="1" as="geometry" />
        </mxCell>
        <mxCell id="gx3IbBur36U3xI308H9o-86" value="" style="verticalLabelPosition=bottom;aspect=fixed;html=1;shape=mxgraph.salesforce.web;" vertex="1" parent="1">
          <mxGeometry x="220" y="22.600000000000023" width="60" height="47.400000000000006" as="geometry" />
        </mxCell>
        <mxCell id="gx3IbBur36U3xI308H9o-90" value="" style="edgeStyle=orthogonalEdgeStyle;rounded=0;orthogonalLoop=1;jettySize=auto;html=1;" edge="1" parent="1" source="gx3IbBur36U3xI308H9o-61" target="gx3IbBur36U3xI308H9o-85">
          <mxGeometry relative="1" as="geometry" />
        </mxCell>
        <mxCell id="gx3IbBur36U3xI308H9o-70" value="" style="sketch=0;outlineConnect=0;fontColor=#232F3E;gradientColor=none;fillColor=#7AA116;strokeColor=none;dashed=0;verticalLabelPosition=bottom;verticalAlign=top;align=center;html=1;fontSize=12;fontStyle=0;aspect=fixed;pointerEvents=1;shape=mxgraph.aws4.backup_aws_backup_support_for_amazon_s3;" vertex="1" parent="1">
          <mxGeometry x="299.35" y="661" width="27.65" height="27.65" as="geometry" />
        </mxCell>
        <mxCell id="gx3IbBur36U3xI308H9o-98" value="" style="group" vertex="1" connectable="0" parent="1">
          <mxGeometry x="87.6" y="661" width="131.2" height="120" as="geometry" />
        </mxCell>
        <mxCell id="gx3IbBur36U3xI308H9o-65" value="" style="whiteSpace=wrap;html=1;" vertex="1" parent="gx3IbBur36U3xI308H9o-98">
          <mxGeometry x="7" width="120" height="120" as="geometry" />
        </mxCell>
        <mxCell id="gx3IbBur36U3xI308H9o-66" value="Access ID&lt;br&gt;Access key" style="rounded=1;whiteSpace=wrap;html=1;" vertex="1" parent="gx3IbBur36U3xI308H9o-98">
          <mxGeometry x="15.336999999999989" y="80.24400000000003" width="102.26299999999999" height="31.089333333333347" as="geometry" />
        </mxCell>
        <mxCell id="gx3IbBur36U3xI308H9o-67" value="" style="sketch=0;outlineConnect=0;fontColor=#232F3E;gradientColor=none;fillColor=#DD344C;strokeColor=none;dashed=0;verticalLabelPosition=bottom;verticalAlign=top;align=center;html=1;fontSize=12;fontStyle=0;aspect=fixed;pointerEvents=1;shape=mxgraph.aws4.key_management_service_external_key_store;" vertex="1" parent="gx3IbBur36U3xI308H9o-98">
          <mxGeometry x="15.336999999999989" y="44.450666666666734" width="31.089333333333347" height="31.089333333333347" as="geometry" />
        </mxCell>
        <mxCell id="gx3IbBur36U3xI308H9o-68" value="&lt;font style=&quot;font-size: 13px;&quot;&gt;内网&amp;nbsp; &amp;nbsp;物理 KMS&lt;/font&gt;" style="text;html=1;strokeColor=none;fillColor=none;align=center;verticalAlign=middle;whiteSpace=wrap;rounded=0;" vertex="1" parent="gx3IbBur36U3xI308H9o-98">
          <mxGeometry y="8.666666666666629" width="78.4" height="28.00000000000001" as="geometry" />
        </mxCell>
        <mxCell id="gx3IbBur36U3xI308H9o-69" value="City B&lt;br&gt;Backup" style="text;html=1;strokeColor=none;fillColor=none;align=center;verticalAlign=middle;whiteSpace=wrap;rounded=0;" vertex="1" parent="gx3IbBur36U3xI308H9o-98">
          <mxGeometry x="72.4" y="36.66666666666674" width="58.8" height="28.00000000000001" as="geometry" />
        </mxCell>
        <mxCell id="gx3IbBur36U3xI308H9o-99" value="" style="group" vertex="1" connectable="0" parent="1">
          <mxGeometry x="383.8" y="650" width="131.2" height="120" as="geometry" />
        </mxCell>
        <mxCell id="gx3IbBur36U3xI308H9o-100" value="" style="whiteSpace=wrap;html=1;" vertex="1" parent="gx3IbBur36U3xI308H9o-99">
          <mxGeometry x="7" width="120" height="120" as="geometry" />
        </mxCell>
        <mxCell id="gx3IbBur36U3xI308H9o-101" value="Access ID&lt;br&gt;Access key" style="rounded=1;whiteSpace=wrap;html=1;" vertex="1" parent="gx3IbBur36U3xI308H9o-99">
          <mxGeometry x="15.336999999999989" y="80.24400000000003" width="102.26299999999999" height="31.089333333333347" as="geometry" />
        </mxCell>
        <mxCell id="gx3IbBur36U3xI308H9o-102" value="" style="sketch=0;outlineConnect=0;fontColor=#232F3E;gradientColor=none;fillColor=#DD344C;strokeColor=none;dashed=0;verticalLabelPosition=bottom;verticalAlign=top;align=center;html=1;fontSize=12;fontStyle=0;aspect=fixed;pointerEvents=1;shape=mxgraph.aws4.key_management_service_external_key_store;" vertex="1" parent="gx3IbBur36U3xI308H9o-99">
          <mxGeometry x="15.336999999999989" y="44.450666666666734" width="31.089333333333347" height="31.089333333333347" as="geometry" />
        </mxCell>
        <mxCell id="gx3IbBur36U3xI308H9o-103" value="&lt;font style=&quot;font-size: 13px;&quot;&gt;内网&amp;nbsp; &amp;nbsp;物理 KMS&lt;/font&gt;" style="text;html=1;strokeColor=none;fillColor=none;align=center;verticalAlign=middle;whiteSpace=wrap;rounded=0;" vertex="1" parent="gx3IbBur36U3xI308H9o-99">
          <mxGeometry y="8.666666666666629" width="78.4" height="28.00000000000001" as="geometry" />
        </mxCell>
        <mxCell id="gx3IbBur36U3xI308H9o-104" value="Beijing" style="text;html=1;strokeColor=none;fillColor=none;align=center;verticalAlign=middle;whiteSpace=wrap;rounded=0;" vertex="1" parent="gx3IbBur36U3xI308H9o-99">
          <mxGeometry x="72.4" y="16.446666666666744" width="58.8" height="28.00000000000001" as="geometry" />
        </mxCell>
        <mxCell id="gx3IbBur36U3xI308H9o-105" value="" style="edgeStyle=orthogonalEdgeStyle;rounded=0;orthogonalLoop=1;jettySize=auto;html=1;strokeColor=#006600;" edge="1" parent="1" source="gx3IbBur36U3xI308H9o-102" target="gx3IbBur36U3xI308H9o-69">
          <mxGeometry relative="1" as="geometry" />
        </mxCell>
        <mxCell id="gx3IbBur36U3xI308H9o-106" value="&lt;font color=&quot;#006600&quot;&gt;Backup&lt;/font&gt;" style="text;html=1;strokeColor=none;fillColor=none;align=center;verticalAlign=middle;whiteSpace=wrap;rounded=0;" vertex="1" parent="1">
          <mxGeometry x="283.17" y="710" width="60" height="30" as="geometry" />
        </mxCell>
        <mxCell id="gx3IbBur36U3xI308H9o-108" value="" style="edgeStyle=orthogonalEdgeStyle;rounded=0;orthogonalLoop=1;jettySize=auto;html=1;" edge="1" parent="1" source="gx3IbBur36U3xI308H9o-100" target="gx3IbBur36U3xI308H9o-8">
          <mxGeometry relative="1" as="geometry" />
        </mxCell>
        <mxCell id="gx3IbBur36U3xI308H9o-110" value="Https" style="text;html=1;strokeColor=none;fillColor=none;align=center;verticalAlign=middle;whiteSpace=wrap;rounded=0;" vertex="1" parent="1">
          <mxGeometry x="370" y="50" width="60" height="30" as="geometry" />
        </mxCell>
        <mxCell id="gx3IbBur36U3xI308H9o-117" value="Http" style="text;html=1;strokeColor=none;fillColor=none;align=center;verticalAlign=middle;whiteSpace=wrap;rounded=0;" vertex="1" parent="1">
          <mxGeometry x="416.78" y="280" width="60" height="30" as="geometry" />
        </mxCell>
        <mxCell id="gx3IbBur36U3xI308H9o-138" style="edgeStyle=orthogonalEdgeStyle;rounded=0;orthogonalLoop=1;jettySize=auto;html=1;exitX=0.5;exitY=1;exitDx=0;exitDy=0;" edge="1" parent="1" source="gx3IbBur36U3xI308H9o-121">
          <mxGeometry relative="1" as="geometry">
            <mxPoint x="420" y="650" as="targetPoint" />
            <Array as="points">
              <mxPoint x="282" y="630" />
              <mxPoint x="421" y="630" />
              <mxPoint x="421" y="650" />
            </Array>
          </mxGeometry>
        </mxCell>
        <mxCell id="gx3IbBur36U3xI308H9o-121" value="Key Management" style="rounded=1;whiteSpace=wrap;html=1;fillColor=#D4E1F5;" vertex="1" parent="1">
          <mxGeometry x="212.99999999999994" y="560" width="140" height="50" as="geometry" />
        </mxCell>
        <mxCell id="gx3IbBur36U3xI308H9o-122" value="User Management" style="rounded=1;whiteSpace=wrap;html=1;fillColor=#D4E1F5;" vertex="1" parent="1">
          <mxGeometry x="212.34999999999997" y="440" width="140" height="50" as="geometry" />
        </mxCell>
        <mxCell id="gx3IbBur36U3xI308H9o-123" value="DAO Authntication （JWT SSO）" style="rounded=1;whiteSpace=wrap;html=1;fillColor=#D4E1F5;" vertex="1" parent="1">
          <mxGeometry x="213.39999999999995" y="380" width="140" height="50" as="geometry" />
        </mxCell>
        <mxCell id="gx3IbBur36U3xI308H9o-125" value="Web" style="text;html=1;strokeColor=none;fillColor=none;align=center;verticalAlign=middle;whiteSpace=wrap;rounded=0;" vertex="1" parent="1">
          <mxGeometry x="218.8" y="70" width="60" height="30" as="geometry" />
        </mxCell>
        <mxCell id="gx3IbBur36U3xI308H9o-130" value="" style="group" vertex="1" connectable="0" parent="1">
          <mxGeometry x="540" y="560" width="140" height="60" as="geometry" />
        </mxCell>
        <mxCell id="gx3IbBur36U3xI308H9o-128" value="" style="rounded=1;whiteSpace=wrap;html=1;" vertex="1" parent="gx3IbBur36U3xI308H9o-130">
          <mxGeometry y="0.5" width="140" height="50" as="geometry" />
        </mxCell>
        <mxCell id="gx3IbBur36U3xI308H9o-91" value="" style="image;sketch=0;aspect=fixed;html=1;points=[];align=center;fontSize=12;image=img/lib/mscae/Cache_Redis_Product.svg;" vertex="1" parent="gx3IbBur36U3xI308H9o-130">
          <mxGeometry x="8.490000000000009" y="10.5" width="35.71" height="30" as="geometry" />
        </mxCell>
        <mxCell id="gx3IbBur36U3xI308H9o-93" value="" style="outlineConnect=0;dashed=0;verticalLabelPosition=bottom;verticalAlign=top;align=center;html=1;shape=mxgraph.aws3.mysql_db_instance;fillColor=#2E73B8;gradientColor=none;" vertex="1" parent="gx3IbBur36U3xI308H9o-130">
          <mxGeometry x="60.85000000000002" y="10.5" width="27.65" height="29" as="geometry" />
        </mxCell>
        <mxCell id="gx3IbBur36U3xI308H9o-94" value="" style="dashed=0;outlineConnect=0;html=1;align=center;labelPosition=center;verticalLabelPosition=bottom;verticalAlign=top;shape=mxgraph.weblogos.mongodb" vertex="1" parent="gx3IbBur36U3xI308H9o-130">
          <mxGeometry x="111.5" width="20" height="50" as="geometry" />
        </mxCell>
        <mxCell id="gx3IbBur36U3xI308H9o-132" value="Storage" style="text;html=1;strokeColor=none;fillColor=none;align=center;verticalAlign=middle;whiteSpace=wrap;rounded=0;" vertex="1" parent="gx3IbBur36U3xI308H9o-130">
          <mxGeometry x="30" y="27" width="60" height="30" as="geometry" />
        </mxCell>
        <mxCell id="gx3IbBur36U3xI308H9o-131" value="" style="group" vertex="1" connectable="0" parent="1">
          <mxGeometry x="10" y="990" width="60" height="120" as="geometry" />
        </mxCell>
        <mxCell id="gx3IbBur36U3xI308H9o-74" value="" style="group;strokeColor=default;container=0;" vertex="1" connectable="0" parent="gx3IbBur36U3xI308H9o-131">
          <mxGeometry width="60" height="120" as="geometry" />
        </mxCell>
        <mxCell id="gx3IbBur36U3xI308H9o-71" value="" style="outlineConnect=0;dashed=0;verticalLabelPosition=bottom;verticalAlign=top;align=center;html=1;shape=mxgraph.aws3.cloud_2;fillColor=#F58534;gradientColor=none;" vertex="1" parent="gx3IbBur36U3xI308H9o-131">
          <mxGeometry x="10" y="10" width="40" height="40" as="geometry" />
        </mxCell>
        <mxCell id="gx3IbBur36U3xI308H9o-73" value="" style="shape=image;imageAspect=0;aspect=fixed;verticalLabelPosition=bottom;verticalAlign=top;image=data:image/jpeg,/9j/4AAQSkZJRgABAQAASABIAAD/4QBYRXhpZgAATU0AKgAAAAgAAgESAAMAAAABAAEAAIdpAAQAAAABAAAAJgAAAAAAA6ABAAMAAAABAAEAAKACAAQAAAABAAACgKADAAQAAAABAAACgAAAAAD/7QA4UGhvdG9zaG9wIDMuMAA4QklNBAQAAAAAAAA4QklNBCUAAAAAABDUHYzZjwCyBOmACZjs+EJ+/8AAEQgCgAKAAwEiAAIRAQMRAf/EAB8AAAEFAQEBAQEBAAAAAAAAAAABAgMEBQYHCAkKC//EALUQAAIBAwMCBAMFBQQEAAABfQECAwAEEQUSITFBBhNRYQcicRQygZGhCCNCscEVUtHwJDNicoIJChYXGBkaJSYnKCkqNDU2Nzg5OkNERUZHSElKU1RVVldYWVpjZGVmZ2hpanN0dXZ3eHl6g4SFhoeIiYqSk5SVlpeYmZqio6Slpqeoqaqys7S1tre4ubrCw8TFxsfIycrS09TV1tfY2drh4uPk5ebn6Onq8fLz9PX29/j5+v/EAB8BAAMBAQEBAQEBAQEAAAAAAAABAgMEBQYHCAkKC//EALURAAIBAgQEAwQHBQQEAAECdwABAgMRBAUhMQYSQVEHYXETIjKBCBRCkaGxwQkjM1LwFWJy0QoWJDThJfEXGBkaJicoKSo1Njc4OTpDREVGR0hJSlNUVVZXWFlaY2RlZmdoaWpzdHV2d3h5eoKDhIWGh4iJipKTlJWWl5iZmqKjpKWmp6ipqrKztLW2t7i5usLDxMXGx8jJytLT1NXW19jZ2uLj5OXm5+jp6vLz9PX29/j5+v/bAEMABgYGBgYGCgYGCg4KCgoOEg4ODg4SFxISEhISFxwXFxcXFxccHBwcHBwcHCIiIiIiIicnJycnLCwsLCwsLCwsLP/bAEMBBwcHCwoLEwoKEy4fGh8uLi4uLi4uLi4uLi4uLi4uLi4uLi4uLi4uLi4uLi4uLi4uLi4uLi4uLi4uLi4uLi4uLv/dAAQAKP/aAAwDAQACEQMRAD8A+p6KKKACiiigAooooAKKKPSgAooo9KACiiigAooooAKKKKACiiigAooo9KACiiigAooooAKKKKACiiigAooooAKKKKACiiigAooooAKKKKACiiigAooooAKKKKACiiigAooooAKKKKACiiigAooooAKKKKACiiigAooooAKKKKACiiigAooooAKKKKACiiigAooooAKKKKACiiigAooooAKKKKAP/9D6nooooAKKKKACiiigAooooAKKKKACiiigAooooAKKKKACiiigAooooAKKKKACiiigAooooAKKKKACiiigAooooAKKKKACiiigAooooAKKKKACiiigAooooAKKKKACiiigAooooAKKKKACiiigAooooAKKKKACiiigAooooAKKKKACiiigAooooAKKKKACiiigAooooAKKKKACiiigAooooA//0fqeiiigAooooAKKKKACiiigAooooAKKKKACiiigAooooAKKKKACiiigAooooAKKKKACiiigAooooAKKKKACiiigAooooAKKKKACiiigAooooAKKKKACiiigAooooAKKKKACiiigAooooAKKKKACiiigAooooAKKKKACiiigAooooAKKKKACiiigAooooAKKKKACiiigAooooAKKKKACiiigD//S+p6KKKACiiigAooooAKKKKACiiigAooooAKKKKACiiigAooooAKKKKACiiigAooooAKKKKACiiigAooooAKKKKACiiigAooooAKKKKACiiigAooooAKKKKACiiigAooooAKKKKACiiigAooooAKKKKACiiigAooooAKKKKACiiigAooooAKKKKACiiigAooooAKKKKACiiigAooooAKKKKAP/9P6nooooAKKKKACiiigAooooAKKKKACiiigAooooAKKKKACiiigAooooAKKKKACiiigAooooAKKKKACiiigAooooAKKKKACiiigAooooAKKKKACiiigAooooAKKKKACiiigAooooAKKKKACiiigAooooAKKKKACiiigAooooAKKKKACiiigAooooAKKKKACiiigAooooAKKKKACiiigAooooA//1PqeiiigAooooAKKKKACiiigAooooAKKKKACiiigAooooAKKKKACiiigAooooAKKKKACiiigAooooAKKKKACiihqAKe0/wB39aNp/u/rTjsVd8nyr9a4PWfH2g6Uxiib7TL/AHYz8v8A31W9GjVrT9nShc56tSFP41E9E7VVuLq2tk33DrGvqx21886p8SNf1DMdqVtI/wDY+/XDXN5fX0nm3Uryt/eZt1e7huF609a0uU8urnlKPwH0re+O/DNidj3Ku3+x81c1cfFXSU/49beWT3b5VFeDYpM17NHhTDR+N3PLnnleXwHssnxZf/llY/8AfT1X/wCFsX//AD5R/wDfZ/wryJVNHNd3+rmB/k/E5/7XxX857Enxauv47Ff+AvV6D4sWjf6+zkX/AHXDf0rxA5pOtRLhzBSXwjjm2K/nPo+2+Jnhqf7zyQ/7yV1dprmk6iM2d1FL/utXyPlfSnI7I29G2tXnVeFKM/4czthn9VfHA+zUB7inHPavlPTvF+vaYVNvdO0a/wAEnzLXpek/FK3lURa1bmJv76HcteHiuHcXR+Fcx6dDOcPU+P3T2HjtTqytP1Sw1OLzrCZJl9VNaleHKMo/EerCfMLRRRTKCiiigAooooAKKKKACiiigAooooAKKKKACiiigAooooAKKKKACiiigAooooAKKKKACiiigAooooAKKKKAP//V+p6KKKACiiigAooooAKKKKACiiigAooooAKKKKACiiigAooooAKKKKACiiigAooooAKKKKACiiigAooqnc3UNrC1xcOI41+8zUoRCxayMVwviLxxpGg5gB8+5/55r/7NXnvij4jXN0zWOhkxxfdab+Jv9yvKvvfO33q+pyvhudT38Toj5/G5zye5ROn1vxdrOuMy3Evlxf8APJPu1yuc1ITio819pQwlKjHkpx0PmaleVWfPMeTTaKSuwiMbjqKKKCAooooAKKKKACiiigBtFFFSUXbO/vdOm+0WEphf+8DXrXh74mlgttryYI/5ap/7MteM5pQRXl43KcPio/vInXhcbVofwz7GtLq2u4hLauJI2+6Vq3xivk3QPE2qeHZt9pJuh3fNC33TX0T4c8Vaf4jt90DbZk+/E33kr4LMsnrYR8z+E+rwWZQxGn2jrKKForyj1AooooAKKKKACiiigAooooAKKKKACiiigAooooAKKKKACiiigAooooAKKKKACiiigAooooAKKKKAP//W+p6KKKACiiigAooooAKKKKACiiigAooooAKKKKACiiigAooooAKKKKACiiigAooooAKKKKAEBopq1Svr+2061kvLtxHHGu5mpL3vhCT5SLUtSs9JtHu71wka184eKfF934hn28xWqN8sf97/AH6g8V+KbzxJd73yttH/AKuP/wBnrlQM199kmRRofv6694+RzLM/a/u4fCLRRRX1Z4IUUUUANpQM0EVs6VoWr6tJtsbdz/tH5U/77rnxGIhRh7SozanCU/gMgriozkV69pvwouZFDanchD/djXd/Ou4sfhz4aslG+IzsP4pDmvDr8SYWnpD3j0qOS4iR818VJgV9YQ+F/D0H+qsoR/wCrv8AY2lf8+sP/fC15suLV9imdn+r8v5z4/4pQoPevrhtA0ST79jB/wB8LWRc+BfC9yuGs41/3Plq4cWw/wCXkCZZBVXwTPlzNHJr3O/+FNi4Z9Punib+FX+Za4DVvAviDSVaUxfaI1/ih+Y/98V6+G4gwdfSM/uOCrlmIpa8pxVFSMrK2xl2tUdeytdjzgoooqwFJqxZXdxp9wt3ZuUdfularjpRisp04TXJIcJ8ux9J+EPG0Gvp9mu8R3ifeX+9/u16B1r40gnnhuFuLdjHLG25WXtX0Z4M8XR6/B9lnIW8jX5l/vf7Vfnuc5N9X/fUfgPrcszL2v7mt8R6DRRRXzx7gUUUUAFFFFABRRRQAUUUUAFFFFABRRRQAUUUUAFFFFABRRRQAUUUUAFFFFABRRRQAUUUUAf/1/qeiiigAooooAKKKKACiiigAooooAKKKKACiiigAooooAKKKKACiiigAooooAKKKKACiiigCJ3RFLt91a+b/HXiptavvsNof9Egb/v4396u4+I/if7Db/2LZn99Ov7xl/hSvCOgr67hvK7v61U+R81nOYf8uYDaKKK+6PmgoooqQHBQa19J0bUdZuPs+nxF2/ib+Fa6Hwl4JvNfZbu6zDaL/F/FJ/u19Dabplhpdutrp8YjjX+7Xy+bcQww/wC7oe9I9nLspnX9+fwnB+H/AIb6Zp4Eupj7VL6N90fSvSIoooEEMKhVX+EVZpCoxXw+JxNWvP2laR9TRw0KUOSA6iiisToCiiigAooooAKKKKAOS1vwlo+uoTdRBZT/AMtY/levEfEXgPVNFLTwf6Rbdio+Zf8Aer6XbGOaa4Rk2nkV6OX5tiMK7U37p5uKy2lX/wAR8YDilNe7eLPh9Ddo19ogEc38UX8DV4ZNFNBI0M6lZF+Vlav0DLc1o46HNDc+UxuCnh5e+RUUUV65xCtVuyvbiwuY7q2fY8bbgaqA5o21lOmpw5JjhPlPq3w14ht/EGmrdx/K6/LIv9166TIIya+VPCviKbw9qi3Of9Hb5Zl/2a+pIJo54VmjO5WXcDX5hnGWvBVrfZPt8txn1il/eLdFFFeWekFFFFABRRRQAUUUUAFFFFABRRRQAUUUUAFFFFABRRRQAUUUUAFFFFABRRRQAUUUUAf/0PqeiiigAooooAKKKKACiiigAooooAKKKKACiiigAooooAKKKKACiiigAooooAKKKKAGjoKytX1ODSLCW+nPyxrn61rDtXhPxS1wyzx6NAeI/wB7J/vfwV2Zdg/rNeFE5MZifYUuc8tv76fUruW9uTl5G3GqdKVxSCv1anTUIckD4Kc3J8wlFFFbEjhzXofgjwW+tyLqN+u20X7q/wB+sbwl4bm8Q6osH3beL5pG/wDZa+nLS1gs4Ft7dQkSDaoHavj+IM49ivq1D4j3Mpy72n72p8JYhjjt41iiUKq8Koqaiivhz64KKKKACiiigAooooAKKKKACiiigAooooATtXnHjTwZFrcTXdkoW8X/AMf9q9Ho+laYfEToz9pTMa1GNWPJM+L5IpoZGhlUqyttZWphFe4/EPwpHcQnXLBP3qf61R/En96vDCa/T8qzKGNpe0jufEY3ByoVeQdRRRXqnAA6V7l8MfEK3Nu+h3B/eQ/Mn+5Xhq1o6RqcukalFqMXWNt23+8lePnOBWKw8odTvy/Fewq859h0VUs7qG9tY7yE7o5F3LVuvy8+9CiiigAooooAKKKKACiiigAooooAKKKKACiiigAooooAKKKKACiiigAooooAKKKKAP/R+p6KKKACiiigAooooAKKKKACiiigAooooAKKKKACiiigAooooAKKKKACiiigAooooAoXdwlnaSXMvCxqzGvkjUb6XU9QmvpOszbq99+Jmo/Y/DrW6H57pvK/4B/HXzoRgCvtOFcOlCddny+e1byjRG0UUV9ofOgKnSN55FgiXczNtVaixzXpvwz0QX2ptqkw/d2v3f8AfNebmGKjhaMq504Sj7erGmet+FNBh8P6UlsP9a3zSN/eeupHSlwKXtX5VVqSqS55n30IRjHkgLRRRSLCiiigAooooAKKKKACiiigAooooAKKKKACiiigCBlVkKt92vmXxr4d/sHVWEC/uJ/mj/8Aia+ncAjArlPFvhxfEWltZqyrMp3Rs38Jr0snzB4XEc8vhPNzLBfWKX94+WsCmc17XZfCiIL/AKfeNn0iFdRb/Dnwvbr88Bmb1kd/8a+vrcT4WOlP3jwIZLiJbnzf8tHy19Wx+D/DUX3LCL/vmpv+EY8P/wDPjF/3xXJ/rbT6QN/9X6v85xXww1f7ZpUmnynMlo2P+AvyK9Tx2rLsNJ03TizWMKRFvvbRitWvj8VXjVrzqQR9DhaMqVLkmOooorE6QooooAKKKKACiiigAooooAKKKKACiiigAooooAKKKKACiiigAooooAKKKKAP/9L6nooooAKKKKACiiigAooooAKKKKACiiigAooooAKKKKACiiigAooooAKKKN1ADAB6UoFNLAdTWXcaxplt/r7hF+rU3DmM5VYx+OR4t8VL7zdYt7AHCwJv/wCBPXleB2rtPE0E2sa5c3sTAxsfkz/drGTQ5ujOK/Scpq0qGEhByPgcwxtKVec+cxeKTC1tf2HN/fX/AL5pjaPde3516McZS/nOJV6P85kg4BFfUXgnTBpfh63iddskv7yT/fevnrTNJnn1K2t5F2o0ibm/urX1dDsES7cbf9mvk+KsVeMKMD6fh+EZSnMs0UbqK+QPqAooooAKKKKACiiigAooooAKKKKACiiigAooooAKKKKACiijdQAwc9qXArPudV0+y/4+p0T/AHmxXOz+ONCgbZ5pc/7IzWlPD1J/w4nNPGUqXxzOz4o4rzpviLpX8Mcrf8Bpn/Cx9P7wSiulZbiv5Dk/tnCfznpFIQPSuBj+IWit94SL/wABrWtvF2h3P3bhVP8Atnb/ADrGeDrw+OBtTzLDz+CZ1VFQxTw3C74nDD/ZNTVgdwUUUUAFFFFABRRRQAUUUUAFFFFABRRRQAUUUUAFFFFABRRRQAUUUUAFFFFAH//T+p6KKKACiiigAooooAKKKKACiiigAooooAKKKKACiiigAooooAjGPSl5NIeOWNcPrPi6GyJt7LEs3r/CtXChOr7kDkxeNpYWHPWkdXcXltZxebdOsar/AHq4S/8AHAU7NMj3f7b9K4K7vLrUJBJcuXIqpgrXr0MujH+IfD4/iqrV9zDe6at3rep35/fzHb/dX5VrLZQP4qbil2k16VOnCH8M+ZrV51Zc9SQ2iiitDmCiiigAq/banqFmcW8zIP7pXNUmGKFNROEJmtOtKD54HoVh44lRhHqUWR/fSu+stUsdQi821kDD2r5+61Lb3MtpJ5sDlHXuK8+tl0Jfwz6fL+J8RS9yt7x9GYFKQO4rzvRfGQdxa6r8j/wyfwtXoCMGXejZFeRVozpS5Jn3WDx9LFR56MieiiisTsCiiigAooooAKKKKACiiigAooooAiTkdMVHLLHGheU7VHesHW/Ellokf71t8p+6i9a8Y1jxJqGru32h9sX/ADzX7telg8qq4p3+yeLj85pYX3Pikek6p4706zBis18+T2+7Xn194r1rUWO6TyY/7sfy1zmDSV9Th8nw9DzPjcTnWKr/AGxSzM25iWpKKK9ZaHjBRRRQIKjqSigaLNvc3lm2+1maM/7IFdjpvjzVbXEd4qzx/wDfLVw1HWuKtgaNb+JE7sNmNfD/AMOR9AaV4o0rVvkhfbJ/cf5X/KulJGPavllPlbehrvND8cXliRBqOZov738S185jchnD3sPqfV5fxHGfuYk9toIzWfY6hb6hAtxauJI27ir5IFfPW5T6mM+b4R1FFFBYUUUUAFFFFABRRRQAUUUUAFFFFABRRRQAUUUUAFFFFAH/1PqeiiigAooooAKKKKACiiigAooooAKKKKACiiigAooooAYelRtIkSlnOAKezBV3V5J4l8QyX8rWFif3Y+8396tqFGVWXIedmWZQwdLnmO8QeKnumNpYHbH/ABSdc/SuH5FKDikJya+koUYUo8kD8sxuNq4qr7SsJRRRWxwhRRRQAUUUUAFFFFABRRRQAUUUUAO610+h+JLjSmEM3zwenda5fpTt1ROjCUOSZ14TFVcPP2lE+gbO9tr6FZ7Vgyt3q8rBq8F0rVrvR5t9ufk/iT+Fq9i0jWLXVoPNgPP8S/xLXz2Jws6W5+lZTnlLGx5J/EblFFFcZ7oUUUUAFFFFABRRUbPt+/QADaF9q888S+MVsM2WnEPcdz/Cv1rL8U+MmIbTtKb/AGXlXt/uV5iDhvmr6HK8m5/31c+RznPeT9zhh0s0ty7Szks7feZqZTiKbX16SgrI+Lc+YKKKKZmFFFFABRRRQAUUUUAFFFFABRRRQBraTrV3otx51q3y/wAUf8LV7roeu2mt2/nW7fN/Enda+dgcVf0vUrnSroXdo2D/ABL/AAtXiZnlca654fEfQZRnMsLLkn8J9L8UvGKxNF1i31mzW6g/4EP7rVtDpivipRlGXLI/Q4TjKPPAdRRRSLCiiigAooooAKKKKACiiigAooooAKKKKACiiigD/9X6nooooAKKKKACiiigAooooAKKKKACiiigAooooATtTTil7Vl6pqMWl2b3Mn8PT3ajl5tCJzjGPPM43xhrghiGm2h+dvvkfwoa8zIxUs80tzM1xKcvI25qiY5NfTYWj7KPIfkmaZhLG1/aDaKKK6jyxetHSgVqabpN1qcvl2w+X+KRvurUTnGMOeZ0UKE60/Z0zMTltg+aulsPCuq3yhnHkp6v1r0jSvDdlpShlG+T++3WuhA4wOBXjV8zf2D7bL+E4r3sUcFa+BbRf+PqV5D6D5Vrbi8KaLEuPs6t/vZ/xrphilrhniqs/tH0dHKcLS/hwOafwvojL/x7J+A/+vWRc+B9LlGYXeFv9k5/nXcDPrTvmPeiGJqw+2KeWYSfx0jxy/8AB+pWgaSDE6+3365SVHjbZMpVl/havo3HHqKwtT0Ow1VNs68/wuPvCu+hmc/tnz+YcKQl72GPDdhpvSt/WPD93o7bwPMi7PWFjNevTnCUOeB8RisLVw8+SsMooorQ5hy1bs7y4sZRNbHBXsf4qp9KXNL2fOa06k4S54Ht2heIrfWIv7sq/eT0rpM5r5zt5preYTWxKyL/ABV634d8TR6kBbzkJP6f3q8HG4H2T5obH6LkvEEcR+5rfEdnRRRXnH1AUUVEzoilmO1VoAQuFXc3SvIfFXi5rp20/S2+T/lpIveofFPi6S/Y6dpzbYv4pPWuBBxX02U5Rf8AfVj4vOc95v3OGG0UUV9WfGhRRRVAOFJU1raXF7cLb2yGR27V63oHgi0slFzqOJZfT+FfpXl47MaWEj756mX5XVxUvcPOdM8Patqh3W8W2P8Avt8q13dj8OrdRu1C5Zj6J8temRqqrsUYWpTXy2JzzE1fgfKfZYXh3C0vj945OLwboMS4+zBv94s39albwhoLdbSP8q6iiuD63V/nPU+oYf8AkOEuvAOiXA/dhoj/ALB/+vXKX3w9vIvnsJhL/sv8rV7LQcd63o5riqX2zlrZNhKv2D5hvbG6sJPKvIjGfeq2CtfS93ZWl9AYrtVkVv7wrybxB4Kmsla70zMkX3mj/iH0r6LBZ7Cr7tb3T5XH8P1aHv0feicBRRRX0J8yFFFFAHQeHtZl0W/WUn9y3yyLX0BBcJPGJojuVl3CvmEc16l4A1reraRcN8y/Mn0r5jPMBzR+swPr+HMy5ZfVpnq1FFFfKn24UUUUAFFFFABRRRQAUUUUAFFFFABRRRQAUUUUAf/W+p6KKKACiiigAooooAKKKKACiiigAooooAKKKKAGY53V5V421HzrpNOiPyx/M3+9XptxMsNu8zdFG6vn+6ne7upLpvvSNur0cso88+c+U4pxvssP7GP2ipRRRXvn5wFFPPSiGN5pFij+Ys21VpX6lQXMaujaRLrF35KfLGn329K9ssLCDT7YW1su1VqloejxaRZrAv3vvO3q3ettV2185jMU6s7n6lkeUxwdLnn8RJRRRXGe8FFFFABRRRQAUUUUAVpoUmjZJBuVv4TXlmv+FpLJmvNPGY/4o/T6V61tAphXFbUK8qUvcPOzDLKWMhyTPm/rRg16N4i8LBs3unj5u6V50Q6Nsf5Wr6OhXhVjz0z8vzDLquCnyVRtFFFbnnD1XdzWhpOnXeo3gSzypX/lp/dpdM0q51S58mAYX+Jv7te1aXpcGmW4t4B9T615+Nxvsv3aPo8iyWWKn7SfwF6BHjiVJG8xlX7396rNNqGWVIo2eVtqr95q+fP034RzSpGpdiAq/erxnxX4qfUnbT7A7YP4m/v1D4p8Vy6ozWFi223X7zf364oHHSvqcpynl/f1z4vOc95/3OGG0UUV9QfHhRRRQA4DNX9L0y71W6FtaLuP8TfwrU2jaPd6xd/Z4F+X+Jv4Vr3jRdGtNHtRb2o+p9a8TM80jQjyQ+I+gyjJpYqXPP4SpoPh+10SELCMu335D95jXS+9FJXxc5yqS55n6BRoxpR5IDqKKKk2CiiigAooooAKjepKKAPJPGHhVUDanpyc/ekRe/8AtV5n97mvqFlDrtrwjxbon9jX++Bf3E3zL/sv/dr6fJMyv+4qHxOf5Ty/7TROSooor6o+PFHpVixu5bC8iuo+TG26q+KOtROmpx5ZGsKjhLmgfTdpdJe28dzF9113Vcx1rzv4f35m057Nz80DYH+5XoeeK/NsRR9lVlTP1XBYn29CFYfRRRWR2BRRRQAUUUUAFFFFABRRRQAUUUUAFFFFAH//1/qeiiigAooooAKKKKACiiigAooooAKKKKACiiigDkvGF19m0aRU+9J8leM5+QCvRvHk+Utbb+8zN+VecYycV7+XU/3R+Z8U1+bG8n8o2iiivRPmR2MGu48EWH2i+kv5V+WH5F/3q4gH5CK9n8KWottEiY9ZP3n5152Y1OWlY+k4YwvtcVzz+ydZRQtFeAfpwUUUUAFFFFABRRRQAUUUUAFFFFADSOMVw3iDwsuoBrq0wk/r/eruqQY7VdGpOlLngcmMwdLFQ9nWPm+SJ4JWhmUoy/wtWlpOkXGr3HlQfLGv3n/u16rrXhm21cK+fLlXowrV03TbfTLcW9uNqr0969WeaWh7nxHx9DhWX1j958AzS9Lg0y3WC3X5e59a1sd6M+tQTzw20LTXDBY1+8zV5Gp9tThGlHkgNnmggiM0pCqvUmvFPFPiiXVpWtbI7bZf/IlM8TeKZtYka3tWK2y/+PVyFfWZRlHJ+/r/ABHxOc557X9xQ+ESiiivpD5QKKKKAHKua19F0K71q78mBdsa/ff0p+haDd6zc+XH8sK/ff0r3jTdMtdLtltrVdqr+teDmmbew/d0/iPosmyaWJl7Sp8AzSdJtNJthb2y7V7n1rXXpRxS9q+NlKUpc0j9BhCMI8kBaKKKRYUUUUAFFFFABRRRQAUUUUAMxXM+J9KXVtLliRd0i/NH/v102elIBjNVSlKnLniY1qMasJQmfLZHGKQda2detPsWs3EH8JbctYyda/ScPVVSCqH5RWh7KcqYlFFFbHMdx4FvPs+umE/dmj3V7eBwfevmvRJvs+rWk3/TRa+k92BXxOfQ5K/MfoPDNfnw/s/5SSiiivEPpQooooAKKKKACiiigAooooAKKKKACiiigD//0PqeiiigAooooAKKKKACiiigAooooAKKKKACiiigDybx23/EygT/AGK4Qda7bx3/AMhiL/rj/wCzVxK9a+mwP8KB+UZ9/v1UbRRRXUeISZ+SvoSziWCzihX7qrtr57X7y19Fxf6sV42Z/YPuOD4fxSeiiivIPugooooAKKKKACiiigAooooAKKKKACiiigBMUUmc1UurmGzha4uGCRr95jRYiXujbm6gtbczzsFjX7xavEPEviWXV5fKt8x2y9B/epniXxNPrUvkx5jtl6D+9XL19dk+T+y/fV/iPhM6zr2/7ih8IlFFFfRny4UUUUAPVc1u6B4fuNeuNifLCv33pfDvh65125xytuv3nr3ew0+20+2W0tV2otfPZvm3sP3dH4j6bJcmliJe2rfAGnafb6bbrbWy7Y16Cr/ajindq+PlLmPvYQjGPJAWiiigsKKKKACiiigAooooAKKKKACiiigAooooA8L8fpjXVf8AvQqa4rvXefEP/kMp/wBcU/8AQmrg+9ff5PrhYH5hnf8AvcxKKKK9I8gmt38qRH/utur6agO6FW9q+Yf4a+nbb/j3j/3Vr5TiPeB9pwn/AMvS3RRRXzJ9kFFFFABRRRQAUUUUAFFFFABRRRQAUUUUAf/R+p6KKKACiiigAooooAKKKKACiiigAooooAKKKKAPKPHqYvraX+8jrXA16h47iD2cM/dZMV5eK+jy6V6Nj8s4khy42YlFFFdp4BID8hFe96ROLrTLe4/vxq1eA1634JvDPpf2c9YDs/4DXk5nT932iPr+Eq/LiJwf2juqKKK8U/QwooooAKKKKACiiigAooooAKKKKAGheMUnAp9Z19f2+nQNcXL7Y16mhe8ROUY+/MW9vLWwtmuLlwka9zXhfiPxHPrU+1Pltl6JTPEPiG51yfH3IF+6lc7X2GUZR7H99W+I+CzrOvrH7mj8IlFFFfQnzIUUUUAFdN4c8OXOuT723RwL1f1qTw34bl1qfdLmO2X7x/vV7jaWdvZ24t4BtjXoK+ezfOPZfuaPxH1GS5L7f99W+ELGwt7CBba2QJGvRau7QKKQsAK+P+I+7hHl92I+iiigsKKKKACiiigAooooAKKKKACiiigAooooAKKKhllSKMzSnaqruegDwzxtOJ/ED7f+WcarXHGrt9cNeX090ekkjNVI1+i4Gl7KjCDPyfHVva151AooorsOEntIvNu4Yf78iLX07Cu2JU9q+d/DcP2jXLUej7q+i/Wvj+I6n72ED7vhWH7qcx9FFFfPH1YUUUUAFFFFABRRRQAUUUUAFFFFABRRRQB//9L6nooooAKKKKACiiigAooooAKKKKACiiigAooooA57xHZ/bdJmh7hdy14ZngCvo5vnASvBtZsfsGpS2+35S25f9yvXyuevs2fD8XYX4MSZFFFFeyfCh3rpPDGpHTdVUMfkl+U1zrcGlY5ArOpT54ezOvCYmeHqxrQPpBeBS9a4Twlrhu4RYzn97GvH+0vrXdBsV8tOHJLkZ+u4LGQxVL21MfRRRUHUFFFFABRRRQAUUUUAJ2ppwaXtWZqWp2+l2zXVy21F/WiEOb3CJzjGPPMdqN/bafbG5ujtVa8J17XrjXbnzG+WFfuJUWua7c63db5fljX/AFaf3axSxr7PK8o9h+9qfEfBZznUsT+5o/CNooor3j5kKKKKAHZFdV4Z8Mza1J50+Y7Zep/vVJ4W8Ly6xL9ouPltl/8AHq9ut4Le2hEMChY16AV83m+b+z/cUPiPq8lyP2v76v8ACLa2sNnCtvbqFjX7qrVojNANGa+SPu/hFooooAKKKKACiiigAooooAKKKKACiiigAooooAKKKKAIyAOa4Hx1qv2PTvsER/eXPyn/AHa7HUL63021kvJ22pEK+etX1KbVr576X+L7q/3VFerk2C9vW55fDE+fz/H+wpexh8UjLooor7w/OQooooA9F+HtoZtQmvWX5Y12L/vV7JXHeDNMGnaOm/8A1k37xq7GvzvMa3ta85o/Usnw/sMLCAtFFFcR6gUUUUAFFFFABRRRQAUUUUAFFFFABRRRQB//0/qeiiigAooooAKKKKACiiigAooooAKKKKACiiigBDXn3jbTjLCmpQ/ei4b/AHK9ABBFV5YEmhaGUblYYNa0Z+znzo48fg44qhKjM+dcUlamsac2l3pgb7v3oz6rWXX1EJ80OeB+QV6E6U/Z1BKKKKswLEE01vMtzCdsi/devXvD/iS31WNYZTsnX7y+teOKxWnRSukiuh2sv8S1xYrCwqxue3lGb1cFL+4fR3UUuMDivK9K8Z3Ftth1Qbx/fX71egWWqWOoJvtZFkHtXhVcNOk/fP0bB5rh8VH93I1qKZT6xPRCiiigBO1IMdqD0rG1fV7XR7Yz3Lcdh/epwjKUuWJE5xjHnmO1TU7XSbVru6baq9vWvB9d1y71q686X5Y1/wBWn92maxrV3rN0bi4bag+7H/drLZs19nleU+w/eVPiPz/Oc5liZezp/CNooor3T5wKKKKAHcGux8L+FptXkW7ufltl/wDIlP8AC3hRtTlW9vBttl/h/wCele0wxRQxCKIbVXoK+YzbNuX9zQPq8lyP2v76v8I+CCG3jWGJQqr91VqxRRXyp92FFFFABRRRQAUUUUAFFFFABRRRQAUUUUAFFFFABRRUUskUS75SFVe7UAKpAGcYqne39tp1u1zduI417tXIap460y0UpZf6RJ/s/dryjU9X1DV5vOvX/wB1V+6tergsmq1veqe7A8DH5/Sw/uU/ekaPiTxFLrc/lp8tun3R/wCz1zVOOBTa+0w2HhRh7OmfB18VPET56gUUUV0HIOUZ4ra8O6U+q6pFbhf3afNJ/u1iLkV7n4P0M6Tp++Ufv5vmb/Z/2a8jNsZ7ClZfEz3Mmy/61X1+E7FFCLsXotS0UV8KfpQUUUUAFFFFABRRRQAUUUUAFFFFABRRRQAUUUUAf//U+p6KKKACiiigAooooAKKKKACiiigAooooAKKKKACiiigDmvEWipq1nsH+tT5kb3rxSWGaKVreYbWX5WWvo7qK4nxN4aXUVN3ajFwq/8AfVehgsVye5M+Xz/JvrUfb0fiPIaKkkjeNmRgVZfvK1R19AfmoUUUUAFSLK8Tb0ba3+zUdFA0btt4h1m2OFmLD0b5q14fHWqpxJHG3/jtcZzRk1zTwtKf2D06OcYql8Ez0H/hPrv/AJ91/wC+qcPH8/8AFbD/AL6FeeZNMZyq/NUU8upS+wdK4hzD+c9Fb4gOF+e2P/fQrz3VNWu9YumuLpuP4VH3RWdJNI5qPFezg8rpUH7RbhWzTFV48laYUUUV6h5wUUUUALVi0kt4LhZbpPNRf4d33qrUtTUpqaszSnPlPSYviGsUYiisiqr/AA7xU3/CyJP+fQ/99ivMMmjJry/7Dwn8h639vY3+c9P/AOFjv/z6f+Pij/hY7/8APp/4+K8woo/sTCfyFf6wY3+c9P8A+Fjv/wA+n/j4o/4WO/8Az6f+PivMKKP7Ewn8gf6wY3+c9P8A+Fjv/wA+n/j4o/4WO/8Az6f+PivMKKP7Ewn8gf6wY3+c9P8A+Fjv/wA+n/j4o/4WO/8Az6f+PivMKKP7Ewn8gf6wY3+c9P8A+Fjv/wA+n/j4o/4WO/8Az6f+PivMKKP7Ewn8gf6wY3+c9P8A+Fjv/wA+n/j4o/4WO/8Az6f+PivMKKP7Ewn8gf6wY3+c9N/4WRJ/z5/+Pik/4WRP/wA+n/j9eac0c0f2JhP5Cf8AWDG/znpB+JN3/BaL/wB9j/CoZPiPqTDEVtGv+826vPMmjJqlk2F/kD+3sb/Odbc+NvEE4wrxx/7i/wCNc5cX19enddTu/wBTVXdRmuqjgaNLWEDhrY6vV/iTEooorqOMKKKKAF60lLXX+F/DMuryrc3QK2y9P9qufEYqGHhz1DrwmFniJ+zpmh4L8PNeyrql4v7qP/Vr6t617RtGKghhjt4xFEu1V6KKnHSvgMZi5YmpzyP03AYCOFpckB1FFFcp3BRRRQAUUUUAFFFFABRRRQAUUUUAFFFFABRRRQB//9X6nooooAKKKKACiiigAooooAKKKKACiiigAooooAKKKKACiiigDjNf8MQ6ohlt8Rz/AN71ryi4sp7OcxXSmNhX0MnTrmsvUNIs9Th8u6Td6N/Etd2Fx06XuSPms24fhiv3lH3ZHgXJoyRXX6t4QvrJt9l+/j9/vCuUcPG2x1Kt/tV7lOtCr8B8BicDVwsuStEiooorY4QooppZQNzUQgNK4O2BuaqMrPK3zUSO8jfNUdexQoch0whyhRRRXSUFFFFABRRRQAUUUUAFFFFABRRRQAUUUUAFFFFABRRRQAUUUUAFFFFABRRRQAUUUUAFFFFABRRRQA8AtTR12VsaVoOp6q6i1jOz/no33a9X0TwbY6WVmuP9In/vN0FeTjc0pYe/WR7eX5NiMVr9k4/w54Nnvit3qi7Iv4U/iP1r2GCCG3jWGJQqr90LVjAFJgV8di8ZUxMuaZ97gMBSwsOSA6iiiuU7gooooAKKKKACiiigAooooAKKKKACiiigAooooAKKKKAP/9b6nooooAKKKKACiiigAooooAKKKKACiiigAooooAKKKKACiiigAooooAaTzWLf6NYaiP8ASIlZvX+KtumkelHPykVKUakeSZ5teeBVPzafPt9nrmLnwvrNv1jEn+41e4hQKYSf736V3UsfVgfP4rhnBVfg90+eLm0vLdczwSr/ALy1gys7t8y19TbFPUZqFrO2f70an8K78NnTpbQOD/VKEfgmfL+F9KML6V9KnStOb71vH/3wKP7H0v8A59Yv++BXR/rL/WhP+qUv+fh8z8UcV9Mf2NpX/PpF/wB8LR/Y2lf8+kX/AHwta/6yL/n2H+qsv5z5n4o4r6Y/sbSv+fSL/vhaP7G0r/n0i/74Wj/WRf8APsP9VZfznzRxRxX0t/Y2lf8APrF/3wtL/Yulf8+sX/fC0f6yL/n2T/qrL+c+a6K+k/7E0r/n1i/74Wj+xNK/59Yv++Fo/wBY1/IH+qtT/n4fNlFfSf8AYmlf8+sX/fC0f2JpX/PrF/3wtH+sa/kD/VWp/wA/D5sor6T/ALE0r/n1i/74Wj+xNK/59Yv++Fo/1jX8gf6q1P8An4fNlFfSf9iaV/z6xf8AfC0f2JpX/PrF/wB8LR/rGv5A/wBVan/Pw+bKK+k/7E0r/n1i/wC+Fo/sTSv+fWL/AL4Wj/WNfyB/qrU/5+HzZRX0n/Ymlf8APrF/3wtH9iaV/wA+sX/fC0f6xr+QP9Van/Pw+bKK+k/7E0r/AJ9Yv++Fo/sTSv8An1i/74Wj/WNfyB/qrU/5+HzZRX0n/Ymlf8+sX/fC0f2JpX/PrF/3wtH+sa/kD/VWp/z8Pm3ijivpH+xtJ/59Yv8AvgUf2PpP/PrF/wB8rR/rGv8An2L/AFTqfznzbSf8Br6Y/snTf+faP/vkVImnWa/dhVfwqf8AWRf8+yv9VJfznzPFBcS/6qN2/wB1a1bfw7rdxzHbOP8AfGyvopYIV+6oqTbjpWNTiSp9iB0w4Wh9uZ41Z/D/AFOYhr6VIV/ur8zV2eneCdGsArunnyL/ABSV2m2kry62ZYirpOZ7GGybC0NYQGJEirsRQq/7NS0UVwnqBRRRQAUUUUAFFFFABRRRQAUUUUAFFFFABRRRQAUUUUAFFFFABRRRQB//1/qeiiigAooooAKKKKACiiigAooooAKKKKACiiigAooooAKKKKACiiigAooooAKKKKACiiigAooooAKKKKACiiigAooooAKKKKACiiigAooooAKKKKACiiigAooooAKKKKACiiigAooooAKKKKACiiigAooooAKKKKACiiigAooooAKKKKACiiigAooooAKKKKACiiigAooooAKKKKACiiigD//Q+p6KKKACiiigAooooAKKKKACiiigAooooAKKKKACiiigAooooAKKKKACiiigAooooAKKKKACiiigAooooAKKKKACiiigAooooAKKKKACiiigAooooAKKKKACiiigAooooAKKKKACiiigAooooAKKKKACiiigAooooAKKKKACiiigAooooAKKKKACiiigAooooAKKKKACiiigAooooAKKKKAP/9H6nooooAKKKKACiiigAooooAKKKKACiiigAooooAKKKKACiiigAooooAKKKKACiiigAooooAKKKKACiiigAooooAKKKKACiiigAooooAKKKKACiiigAooooAKKKKACiiigAooooAKKKKACiiigAooooAKKKKACiiigAooooAKKKKACiiigAooooAKKKKACiiigAooooAKKKKACiiigAooooA//0vqeiiigAooooAKKKKACiiigAooooAKKKKACiiigAooooAKKKKACiiigAooooAKKKKACiiigAooooAKKKKACiiigAooooAKKKKACiiigAooooAKKKKACiiigAooooAKKKKACiiigAooooAKKKKACiiigAooooAKKKKACiiigAooooAKKKKACiiigAooooAKKKKACiiigAooooAKKKKACiiigD//T+p6KKKACiiigAooooAKKKKACiiigAooooAKKKKACiiigAooooAKKKKACvP7j4neA7OeS0uNWhjkjZlZcN8rf9816BX5oeKv+Rp1b/r8uP/Q2oA+6v+Fr/Dz/AKDUH5P/APE0f8LX+Hn/AEGoPyf/AOJr4ltPAnjK/to7yy0q6mhlXckip8rJVLVvCviPQoUudY0+a0jdtitIu3LUAffujeN/CniG8+waLqEVzPt3bF3fdror6/tNNtJb+8cRwwLudv7q18Xfs9/8j6//AF5S/wDoSV9oX1pFfWc1nLzHPG8bf8D4oA46x+JvgXU7uKw0/VIpZ5m2xoFf5m/75rv2r8z7mC58MeJJLd/lm0+6/WNq/QptbtpvC7eIYz+5az+1f+Ob6APk3xF8Z/HNpr9/a6ZerHaxXDrGDDE21A3qU5r6b+HWp6rrfhCw1bWZPNublXd22qufnOz7n+xX56SySXVwZW+aSRt1fpJ4U03+yfDOm6b/AM8LdF/8doAXX/E2h+GLaO51u7W1jlbarMrNub/gGaq6F408NeKZZIPD98t1JGNzqFZdv/faivmX9oTXTda9Z6HGfks4fMb/AH5P/wBmvQf2etE+x+HLnWmHzXs21f8AcjoA+hqa33Ttp1FAHzhqfx/h0m+m03UNEnjmhbaytKv/AMRXofw++JGmePIbjyIjaz2x+aJ23HZ/erzT46+AjeWv/CX6bH++gXF0F/iT+/8AhXzj4R8SX3hHXYNbsif3TfvF/wCeifxrQB+ktZmqarYaLYSanqcoigh5d2HSm6Lq9nrumQapYP5kM67lauS+J2nX2reCdR03TYmuLiVE2xr95vnoArf8Lg+G3/QZj/79y/8AxFH/AAuD4bf9BmP/AL9y/wDxFfG//Cr/AIgf9AS6/wC+aZL8NfHcEbTS6PdKqLuZitAH2X/wuD4bf9BmP/v3L/8AEUf8Lg+G3/QZj/79y/8AxFfn1Xb23w58cXcEdza6RcyRyruVlX7y0AfZ3/C4Pht/0GY/+/cv/wARR/wuD4bf9BmP/v3L/wDEV8b/APCr/iB/0BLr/vmq198PvGmm2kt9faVcQwQLveRl+VVoA+0V+L3w4ZtqavHlv+mcv/xFeko6soZejV+XNt/x8R/7y1+n9n/x6xf9c0/lQBZooooAN1FfKH7Q95d2uqaT5Erx7oZvutt/iWvm/wDtbU/+fuf/AL+tQB+n9FfmB/a2p/8AP3P/AN/Wo/tbU/8An7n/AO/rUAfp/RX5gf2tqf8Az9z/APf1qP7W1P8A5+5/+/rUAfp/RX5gf2tqf/P3P/39aj+1tT/5+5/+/rUAfp/RX5gf2tqf/P3P/wB/Wr6W/Z1vLu6u9Y+0yvJtjh272Ld3oA+qaKKKACiiigAooooAKKKKACiiigAooooAKKKKACiiigAooooAKKKKACiiigD/1PqeiiigAooooAKKKKACiiigAooooAKKKKACiiigAooooAKKKKACiiigAr80PFX/ACNOrf8AX5cf+htX6X1+aHir/kadW/6/Lj/0NqAPvv4ef8iPo/8A16RV5b+0Z/yLFj/19/8Astep/Dv/AJEfR/8Ar1SvK/2jf+RYsf8Ar7/9koA8o/Z7/wCR9f8A68pf/Qkqf4n+OPFmk+OdSsNN1KaG3idNsaN8q/ItL8Af+R3P/XpL/wChV9b3Phjw9fTtd3unW00zfeeSJWZvxoA/Nu/vrzU7qS+1CVpp5DuZ26tW0vjDxOul/wBirqE/2PZ5Xk7vl2f3a/QP/hDPCf8A0CbP/vwn+FfJnxxuNFt9fg0LRrWG3FpHumMKKm55Pp/s0AeFI7Iwdeq12n/CyPHX/QXuf++q9G+A/hO213W7rU9ShSe1tI9u2Rdys8n+FfV3/CGeE/8AoE2f/fhP8KAPzl1HUb/VruS/1KZrieT70kn3mrd07xz4t0q1jsdN1KeC3i+7GrfKK+/f+EM8J/8AQJs/+/Cf4Uf8IZ4T/wCgTZ/9+E/woAw/hfqN9qvgbTb/AFKVpriVX3SN95vnavQqqWdnaafbraWUSQwp91EXaoq3QBBNDFPE0Myh43G1lbvXwL8T/BE3gvX2jhVvsVz+8t2/9k/4BX6A1UubGzvAv2qFJdv3d6hqAPkP4G+PP7J1H/hF9Sf/AEW8fMJP/LOX/wCzr7HrLTRtIjYPFZ26sO6xKK1KACsrXP8AkEX3/XvL/wCgVq1la5/yCL7/AK95f/QKAPzIk/1jf71fpT4P/wCRW0v/AK9If/Qa/NaT/WN/vV+lPhH/AJFfS/8Ar0h/9AoA6OuI+JH/ACImtf8AXnN/Ku3riPiR/wAiJrX/AF5zfyoA/O2D/j4j/wB5K/UCz/49Yv8Armn8q/L+D/j4j/3kr9QLP/j1i/65p/KgCzRRRQBy2t+EfDfiSSOXXLJLpovlUtu+WsT/AIVT8Pf+gPD+b/8AxdeiUUAed/8ACqfh7/0B4fzf/wCLo/4VT8Pf+gPD+b//ABdeiUUAed/8Kp+Hv/QHh/N//i6P+FU/D3/oDw/m/wD8XXolFAHnf/Cqfh7/ANAeH83/APi6P+FU/D3/AKA8P5v/APF16JRQB53/AMKp+Hv/AEB4fzf/AOLrf0Pwn4d8NtI+h2aWrTf6zbu+b866WigAooooAKKKKACiiigAooooAKKKKACiiigAooooAKKKKACiiigAooooAKKKKAP/1fqeiiigAooooAKKKKACiiigAooooAKKKKACiiigAooooAKKKKACiiigAr80PFX/ACNOrf8AX5cf+htX6X1+aHir/kadW/6/Lj/0NqAO80r4zeNdG0+30uyeDybaPy490QJzWH4r+JXibxnZx2OtPE0cT+Yvlpt+avo/wf8ACPwNq3hfTtSvbN2muLdJJG81vvVwXxg+H3hfwloltd6JbtDJJMUZmdm+XPvQByfwOZl8WXjJwf7MuP8A2SvPH8TeJ/MOdRvOv/PZ/wDGvTv2ffm8eSf9eUv/AKElfYF5b6Bp1rJe3sFvHDEu6R2RfloA/O7/AISnxOv/ADErz/v+/wDjWRcXFxeztcTu8sjfeZ23Ma9H+Jnje38W6p5WlwJBYWzYh2rtaT/beup+C3gH/hINU/t/U4t1hZn5VYf6yX/61AHjljqur6cGSwup7dXOWWF2TP5Vb/4SbxR/0FL3/v8Ay/41+ji6VpX/AD6Q/wDftap6h4b0PUbOaxubOHy512tiNRQB+dv/AAlPiX/oJ3f/AH+f/Gn/APCSeKf+gpe/9/5f8a1PHPg298F67Jps4ZoW+a3k/wCeiV7X8HPHuk3EMfhPxDFB5q/LazOi/N/sNQBufs+6lqmoQat/adzNc7Gh2mZ2fb97+/Xtvi6R4PCurSxkq6WdwysOx2NW3BaW1qG+zRJHu/uKFqO8srfULWaxul3wzxvG6+qycGgD82/+Eo8R/wDQSu/+/wC/+NH/AAlHiP8A6CV3/wB/3/xr7d/4Uz8O/wDoG/8Aj7185fGvwpofhPU9PttDg8iOeF2f5t27DUAdl+z/AKtqepa5qKahdTXCpbJtEju2356+sK+Pv2b/APkPap/17J/6HXvXjb4kaR4Fmt4NTgmka5VmXyh6fWgD0esrXP8AkEX3/XvL/wCgV4r/AMNFeD/+fW8/75T/AOLrPv8A49+F7mxnt0trotJG8a5Cj76/7tAHyFJ/rG/3q/Snwj/yK+l/9ekP/oFfmm3LE19c6D8efDGmaNZadPbXTSW8CRMwVf8AlmuKAPpauI+JH/Iia1/15zfyrzf/AIaK8H/8+t5/3yn/AMXXNeLPjh4a13w3f6PbW10sl3C0SsyrtoA+WoP+PiP/AHkr9QLP/j1i/wCuafyr8v4P+PiP/eSv1As/+PWL/rmn8qALNFFfKXi343+KtA8S3+i2sFo8NrN5Ssyvu4/4HQB9X0V8V/8ADRXjP/n2sv8Avh//AIuj/horxn/z7WX/AHw//wAXQB9qUV8V/wDDRXjP/n2sv++H/wDi6P8Ahorxn/z7WX/fD/8AxdAH2pRXxX/w0V4z/wCfay/74f8A+Lo/4aK8Z/8APtZf98P/APF0AfalFfFf/DRXjP8A59rL/vh//i6P+GivGf8Az7WX/fD/APxdAH2pRXxX/wANFeM/+fay/wC+H/8Ai6P+GivGf/PtZf8AfD//ABdAH2lRXyt4J+NfifxJ4osNEvYLVIbmTYzRq+7/ANDr6poAKKKKACiiigAooooAKKKKACiiigAooooAKKKKACiiigAooooAKKKKAP/W+p6KKKACiiigAooooAKKKKACiiigAooooAKKKKACiiigAooooAKKKKACvzQ8Vf8AI06t/wBflx/6G1fpfX5oeKv+Rp1b/r8uP/Q2oA+/Ph3/AMiPo/8A16pXlf7Rv/IsWP8A19/+yVf8GfFLwFpXhTTdNvtTWO4gt1SRfLl+Vh/wCuB+M/jzwt4p0O1tNCvhcyRXG9l8t1+XZ/tpQBx/wIn+zeMZ7hhnyrC4f8ilYvjz4na541mMEn+i2SN8tujdf9/+9Wx8DY3m8W3cMf3pdOuEX/xyu78NfBCLTbWbXfGjeYsEbzfZIW/uDf8AO9AHy5W9aeJdfsYVtrLULiGFfupHKyqv4V9F2nxr8GvJFaQ+GwqsyovEX/xFfSK6No7f8uNv/wB+koA/Ov8A4TLxX/0Fbz/v8/8AjR/wmXiv/oK3n/f5/wDGv0V/sTR/+fK3/wC/S1HJomjrG3+hW/3f+eS0Afm/qOs6vqxVNSuprjZ93zXLY/Op9U0XVtCkg/tCFofPjWWF/wCFk/vKaoX/APyEbjb/AM9n/wDQq/QKLwvo/iXwdY6VrEAmj+zRbT/EvyfwPQB4v8HvijrWp6jb+EtZ/wBJDKwhuGb518tc4b+/X1PXzX4Z+EGoeDvHtnq9nMLrTl835m+WSPKcb6+lKACvkH9pD/kNaX/17P8A+h19fV8g/tIf8hrS/wDr2f8A9DoAZ+zf/wAh7VP+vZP/AEOvRfjB8O/EHjW8sJdF8nbbRujeY+3vXnX7N/8AyHtU/wCvZP8A0OvsGgD4g/4Z+8ef3rP/AL+t/wDEVFcfAjxvaQSXMzWu2NWZtsrdv+AV9yVla5/yCL7/AK95f/QKAPzFZdrba9l0/wCCHjTUrOG+tvsvlzxrIm6Xnaf+AV47J/rG/wB6v0p8I/8AIr6X/wBekP8A6BQB8h/8M/ePP71n/wB/W/8AiKztW+C/jHQ9MuNXvja+TbRtLJtkLNtH/AK+8K4j4kf8iJrX/XnN/KgD87YP+PiP/eSv1As/+PWL/rmn8q/L+D/j4j/3kr9QLP8A49Yv+uafyoAs18zeKfgRqXiLX73WodThhW7lMvlsjfLmvpmigD5H/wCGbdV/6C8P/fpqP+GbdV/6C8P/AH6avris7U7630rT59RuW2xQRtIzUAfnn438Kt4O1xtCe5W6eONHZlXbgv8Aw1L4G8F33jjWG0uzkWAIjSSSMNyqtYGu6rc63q9zq9wcvcyNIa+tPgB4d/s7wxNrsoxJqEuF/wCuUfH891AHFf8ADNuq/wDQXh/79NR/wzbqv/QXh/79NX1xRQB8j/8ADNuq/wDQXh/79NR/wzbqv/QXh/79NX1xRQB8j/8ADNuq/wDQXh/79NR/wzbqv/QXh/79NX1xRQB82eEPgZqXhjxFaa7NqUUy2sm/YqNlq+k6KKACiiigAooooAKKKKACiiigAooooAKKKKACiiigAooooAKKKKACiiigD//X+p6KKKACiiigAooooAKKKKACiiigAooooAKKKKACiiigAooooAKKKKACvzP8Uf8AIz6t/wBftx/6G1fpfJwhNfmT4gk83Xb+b+9dTH/x80Ad9pnwc8cavYQalZW8TQzr5ibpVX5axvE/w48T+DrSO+1yGOOOVvLXbIr/ADV9y+BU2eDtIT/p0i/9BryP9ov/AJFmx/6+/wD2SgDyr9nv/kfX/wCvKX/0JK+tfGcvkeEtWm/uWkv/AKBXyV+z3/yPr/8AXlL/AOhJX2NremQ65pF1pE7skdzG0bOv3lzQB+aNlP8AZbqK4xu8t1bHrjmvo/8A4aQ1Jf8AmExf9/Grrf8AhnDwx/0Eb3/yF/8AEUf8M4eGP+gje/8AkL/4igDkv+GktS/6BUX/AH8akb9o/UmVl/smL5v9tq67/hnDwx/0Eb3/AMhf/EUf8M4eGP8AoI3v/kL/AOIoA+QJ5fNmeb+826vomx/aG1CytIbRdKiZYkVM+Y3au2/4Zw8Mf9BG9/8AIX/xFfMnjTQrfw34mvtEtXeSO2k2Kzj5m/KgD7h+HHjObxxojavNAtuyzNHtVt1eiV4P+z3/AMiXL/19PXvFABXyD+0h/wAhrS/+vZ//AEOvr6vkH9pD/kNaX/17P/6HQAz9m/8A5D2qf9eyf+h19g18ffs3/wDIe1T/AK9k/wDQ6+sb6/s9NtJL+/lSGGNdzyO3yrQBoVla5/yCL7/r3l/9Arznwj8T7Pxn4su9E0qL/RLa2aUSt96RhIqdP7vzV6Nrn/IIvv8Ar3l/9AoA/MiT/WN/vV+lPhH/AJFfS/8Ar0h/9Ar81pP9Y3+9X6U+Ef8AkV9L/wCvSH/0CgDo64j4kf8AIia1/wBec38q7euI+JH/ACImtf8AXnN/KgD87YP+PiP/AHkr9QLP/j1i/wCuafyr8v4P+PiP/eSv1As/+PWL/rmn8qALNFFFABXgvx78S/2T4XTRIGxLqbbT/wBco/v/AK7a96r4K+MniL/hIPGtysT7rex/0WP6p9//AMfoA840fTp9Z1S20u2G6W5kWNfxr9KNI02DSdMtdLtxiO2jSJf+AV8hfADw2upeI5tduBmPTY/3f/XWT/7HdX2jQAUUUUAFchr3jjwt4ZuFtNcvFt5JF3KrBuVrr6+fvj74bbU/DMOuwDdJp0nzf9cpP/r7aAPRdJ+I/gvXb5NM0vUEmuJPuptb5q7yvzI0HVZtD1m01eD/AFltKsi/hX6TafeQ6nY2+o253R3MaSr/ALrrkUAaNFFFABRRRQAUUUUAFFFFABRRRQAUUUUAFFFFABRRRQAUUUUAFFFFABRRRQB//9D6nooooAKKKKACiiigAooooAKKKKACiiigAooooAKKKKACiiigAooooAp3riG1mlb7qxu1fmHPI9xcPKfvSNur9HfGd7Hp3hLVrtuNtrN/6Dtr86tNhNzqVrbL/wAtJUX82oA/STw3H5Hh/Tof7lrD/wCgV4p+0b/yLFj/ANff/sle7vPYabDHFPKkKqu1dzba+fP2gr+xuvDVilrOkjfaf4W3fw0AeVfA4uniu8dTtZNMuGX/AMcrhm8d+M9x/wCJvd/9/Wr0P4ARpJ43mhkXcrWEysP+BpX1D/wq/wCHzf8AMFtf++aAPhj/AITvxl/0GLv/AL+tR/wnfjL/AKDF3/39avuf/hVvw/8A+gLa/wDfNH/Crfh//wBAW1/75oA+GP8AhO/GX/QYu/8Av61H/Cd+Mv8AoMXf/f1q+4J/ht8ObePzbjSLSNf7xWqP/CC/Cr/nx0//AL6/+yoA8M+CnifxDq/jZbPUr+e4h+zStskfcv8ADXnnxZ/5KFrH/Xb/ANlr7L0jQvAGhXf23SIrK1n27d8bLu218YfFOWKfx7q0sLBlabgr/u0AfSn7Pf8AyJcv/X09e8V4P+z3/wAiXL/19PXvFABXyD+0h/yGtL/69n/9Dr6+r4x/aC1XT9Q8Q2cFjMkr2sLpMF/hfdQBh/B/xdpPgy71TUtWZvmt1WONfvSNu+7XP+OPiLrvja6P2tzDZq2YreM/Iv8Avf32rgIIJriVYIELu/CqvevqP4c/BDb5eteM4+fvR2f/AMX/APE0AUv2fPDur2+qXXiG4gZLOW1aCN2/iYujfL/3zX09rn/IIvv+veX/ANAq9FEkMawwqFVRtVV/hqjrn/IIvv8Ar3l/9AoA/MiT/WN/vV+lPhH/AJFfS/8Ar0h/9Ar81pP9Y3+9X6U+Ef8AkV9L/wCvSH/0CgDo64j4kf8AIia1/wBec38q7euI+JH/ACImtf8AXnN/KgD87YP+PiP/AHkr9QLP/j1i/wCuafyr8vYOJkP+1X6LW3jvwatvEjazZbtq/wDLdP8AGgDtaKajq6hlOVanUAcj4319PDXhe+1n+OKP93/tOfu1+ccsrzytLKdzMdzGvqP9ojxL8tl4Wt3+b/j5mX/0D/2avm3Rn06PVbV9W3fZFkVptg+bb7UAfcfwg8Nt4d8F2iXC7bi8/wBJk/4H9xf++K9WrwKP4/eCI1CJFdhV+Vf3Y/8Ai6d/w0J4K/55Xn/fsf8AxdAHvdFeCf8ADQngr/nlef8Afsf/ABdH/DQngr/nlef9+x/8XQB73WXq+nW+s6Zc6XdLuiuY2javGP8AhoTwV/zyvP8Av2P/AIuj/hoTwV/zyvP+/Y/+LoA+PtX02fSNTudLuBiW2leJvqlfYvwG8Q/2l4VOjzsTNp0m35v+eUnzLXzf8TfEOh+KPEja1oQlVJ418xZF2/OlafwZ8St4f8a20MjbYNQ/0eT8fuf+PUAfelFC0UAFFFFABRRRQAUUUUAFFFFABRRRQAUUUUAFFFFABRRRQAUUUUAFFFFAH//R+p6KKKACiiigAooooAKKKKACiiigAooooAKKKKACiiigAooooAKKKKAPHfjfezweBprS3QyNeSJFhV3fL9//ANkr5V+HWgX+o+NtKhmgkVVuUlZmVv8Aln8//stfoUyK33hTfKT+6KAPB/j9ob6h4Vi1OFCZLGb+H+5J8lfG32K7/wCeL/8AfNfqA8SOuxgGX0FM+xWn/PJP++aAPjD4AwXEXjp3ljZV+xS9V/2kr7XqulvbxNuiRFb/AGVqxQAUUUUAcj420OPxF4X1HSGX5poWMf8Avx/On/j1fnU1hfKxVoJMr/sNX6h1X+yW3/PJP++aAPzE+wXn/PCX/vhqT7Fef88JP++Gr9PPslt/zyT/AL5o+yW3/PJP++aAPEf2f45YvBsqSoVP2p/vCvdqiSJFXagC/wC7UtAGbqtn/aWnz2PmPD50bL5kZ2sufSvgy6+GnikeK5PDMFu8027eJf4Gi/v76/QWo/KTfvx8396gDyv4f/CrR/Bca3cuLrUcfNMR93/cr1iiigArK1z/AJBF9/17y/8AoFatNZFddrcigD8tZP8AWN/vV+k3g7/kV9L/AOvSH/0CtH+w9F/58bf/AL9JV9IkiUJEoVV+6ooAmriviHDNP4I1eG3QySPauqqO9drRQB+ZX/COa/8A9A64/wC/T09fDniDcv8AxL7n/v01fplRQBS08bbC3Vv+eaf+g1d3UUUAfDnjXwf4/wDE3ia81ZtIuGWSQrH937kfB71yn/CrfiB/0Bbj/wAdr9DqKAPzx/4Vb8QP+gLcf+O0f8Kt+IH/AEBbj/x2v0OooA/PH/hVvxA/6Atx/wCO0f8ACrfiB/0Bbj/x2v0OooA/PH/hVvxA/wCgLcf+O0f8Kt+IH/QFuP8Ax2v0OooA/PH/AIVb8QP+gLcf+O0+L4Z/EOCRZotHuFZTvVvl/wAa/QuigDE8Pz311o1pPqcRt7p4U86Nv4X/AI626KKACiiigAooooAKKKKACiiigAooooAKKKKACiiigAooooAKKKKACiiigD//0vqeiiigAooooAKKKKACiiigAooooAKKKKACiiigAooooAKKKKACiiigAooooAKKKKACiiigAooooAKKKKACiiigAooooAKKKKACiiigAooooAKKKKACiiigAooooAKKKKACiiigAooooAKKKKACiiigAooooAKKKKACiiigAooooAKKKKACiiigAooooAKKKKACiiigAooooAKKKKACiiigD//T+p6KKKACiiigAooooAKKKKACiiigAooooAKKKKACiiigAooooAKKKKACiiigAooooAKKKKACiiigAooooAKKKKACiiigAooooAKKKKACiiigAooooAKKKKACiiigAooooAKKKKACiiigAooooAKKKKACiiigAooooAKKKKACiiigAooooAKKKKACiiigAooooAKKKKACiiigAooooAKKKKAP/9T6nooooAKKKKACiiigAooooAKKKKACiiigAooooAKKKKACiiigAooooAKKKKACiiigAooooAKKKKACiiigAooooAKKKKACiiigAooooAKKKKACiiigAooooAKKKKACiiigAooooAKKKKACiiigAooooAKKKKACiiigAooooAKKKKACiiigAooooAKKKKACiiigAooooAKKKKACiiigAooooA//1fqeiiigAooooAKKKKACiiigAooooAKKKKACiiigAooooAKKKKACiiigAooooAKKKKACiiigAooooAKKKKACiiigAooooAKKKKACiiigAooooAKKKKACiiigAooooAKKKKACiiigAooooAKKKKACiiigAooooAKKKKACiiigAooooAKKKKACiiigAooooAKKKKACiiigAooooAKKKKACiiigD//W+p6KKKACiiigAooooAKKKKACiiigAooooAKKKKACiiigAooooAKKKKACiiigAooooAKKKKACiiigAooooAKKKKACiiigAooooAKKKKACiiigAooooAKKKKACiiigAooooAKKKKACiiigAooooAKKKKACiiigAooooAKKKKACiiigAooooAKKKKACiiigAooooAKKKKACiiigAooooAKKKKAP/9k=;" vertex="1" parent="gx3IbBur36U3xI308H9o-131">
          <mxGeometry x="5" y="60" width="50" height="50" as="geometry" />
        </mxCell>
        <mxCell id="gx3IbBur36U3xI308H9o-134" value="Data Authorization" style="rounded=1;whiteSpace=wrap;html=1;fillColor=#E6E6E6;" vertex="1" parent="1">
          <mxGeometry x="375" y="381" width="140" height="50" as="geometry" />
        </mxCell>
        <mxCell id="gx3IbBur36U3xI308H9o-135" value="Data Resitoration" style="rounded=1;whiteSpace=wrap;html=1;fillColor=#E6E6E6;" vertex="1" parent="1">
          <mxGeometry x="374.99999999999994" y="441" width="140" height="50" as="geometry" />
        </mxCell>
        <mxCell id="gx3IbBur36U3xI308H9o-136" value="Data Update" style="rounded=1;whiteSpace=wrap;html=1;fillColor=#E6E6E6;" vertex="1" parent="1">
          <mxGeometry x="376.78" y="501" width="140" height="50" as="geometry" />
        </mxCell>
        <mxCell id="gx3IbBur36U3xI308H9o-145" value="" style="edgeStyle=orthogonalEdgeStyle;rounded=0;orthogonalLoop=1;jettySize=auto;html=1;" edge="1" parent="1" source="gx3IbBur36U3xI308H9o-137" target="gx3IbBur36U3xI308H9o-104">
          <mxGeometry relative="1" as="geometry">
            <Array as="points">
              <mxPoint x="445" y="638" />
              <mxPoint x="460" y="638" />
            </Array>
          </mxGeometry>
        </mxCell>
        <mxCell id="gx3IbBur36U3xI308H9o-137" value="Data Request" style="rounded=1;whiteSpace=wrap;html=1;fillColor=#E6E6E6;" vertex="1" parent="1">
          <mxGeometry x="375" y="560" width="140" height="50" as="geometry" />
        </mxCell>
        <mxCell id="gx3IbBur36U3xI308H9o-142" value="&lt;font color=&quot;#ff0000&quot;&gt;Https&lt;/font&gt;" style="text;html=1;strokeColor=none;fillColor=none;align=center;verticalAlign=middle;whiteSpace=wrap;rounded=0;" vertex="1" parent="1">
          <mxGeometry x="450" y="781" width="60" height="30" as="geometry" />
        </mxCell>
        <mxCell id="gx3IbBur36U3xI308H9o-147" value="Log Audit" style="rounded=1;whiteSpace=wrap;html=1;fillColor=#D4E1F5;" vertex="1" parent="1">
          <mxGeometry x="213.39999999999998" y="501" width="140" height="50" as="geometry" />
        </mxCell>
      </root>
    </mxGraphModel>
  </diagram>
</mxfile>
